<?xml version="1.0" encoding="UTF-8"?>
<!DOCTYPE svg PUBLIC "-//W3C//DTD SVG 1.1//EN" "http://www.w3.org/Graphics/SVG/1.1/DTD/svg11.dtd">
<!-- Creator: CorelDRAW X7 -->
<svg xmlns="http://www.w3.org/2000/svg" xml:space="preserve" width="59.2666mm" height="25.3998mm" version="1.1" style="shape-rendering:geometricPrecision; text-rendering:geometricPrecision; image-rendering:optimizeQuality; fill-rule:evenodd; clip-rule:evenodd"
viewBox="0 0 593 254"
 xmlns:xlink="http://www.w3.org/1999/xlink">
 <defs>
  <style type="text/css">
   <![CDATA[
    .str0 {stroke:white;stroke-width:2}
    .fil2 {fill:none}
    .fil0 {fill:white}
    .fil1 {fill:white;fill-rule:nonzero}
   ]]>
  </style>
 </defs>
 <g id="Layer_x0020_1">
  <metadata id="CorelCorpID_0Corel-Layer"/>
  <g id="_424578888">
   <path class="fil0" d="M73 116c-2,-2 -3,-13 -3,-16l0 -5c0,-5 2,-11 5,-15 1,-2 2,-4 4,-5 2,-1 4,-2 8,-3 -1,1 -4,3 -4,4 -4,3 -6,9 -7,14 -2,8 -3,17 -3,26zm53 -3l0 -17c-1,0 -2,-1 -3,-1 -1,-1 -1,-1 -1,-2 0,-1 -1,-1 -1,-1 0,-1 -1,-1 -1,-1 0,-2 1,0 1,-1 -1,0 -2,0 -2,-1 -1,-1 0,-1 0,-2 0,-1 -1,-1 -2,-1 0,-3 3,-4 2,-7 0,-1 -1,-2 -1,-3 0,-1 0,-3 0,-4 1,-4 5,-8 8,-10l0 -16c-4,-1 -6,-1 -10,0 -3,0 -4,0 -7,0 0,1 -2,1 -3,1 0,0 0,0 -1,0 -3,1 -1,1 -4,1l-7 2c0,1 -1,1 -1,1l-3 1c-2,0 0,0 -3,1l-1 1c0,0 1,0 0,0 0,0 -2,1 -4,2 0,1 -1,0 -1,1l-2 1c-1,1 -4,2 -5,3 0,0 0,1 0,1 -2,1 -5,3 -5,4 -1,1 0,0 -1,1 0,0 -1,0 -1,1 -1,0 -1,1 -2,1l-2 3c-1,1 0,1 -3,3 0,0 -1,1 -1,1l-2 3c-1,1 0,0 -1,2 -1,0 -2,2 -2,2 0,1 -1,1 -1,2 0,0 0,1 -1,1 0,0 0,1 0,1 -1,1 -5,7 -5,8 0,1 0,2 0,2 -1,2 0,1 -1,3 0,1 0,1 -1,1 0,1 0,0 0,1l0 1c-1,2 -1,2 -1,3 -1,1 -1,1 -1,2 0,1 0,2 -1,3 0,1 0,2 0,2 0,1 0,1 0,2 -1,1 0,1 0,2 -1,2 -1,4 -1,6 0,1 -1,6 0,7 0,1 0,2 0,4 1,2 0,2 1,4l18 0c-2,-11 -2,-14 -4,-24 -1,-5 -3,-12 -3,-17 0,-2 1,-4 1,-6 1,-7 7,-13 11,-16 5,-3 10,-5 15,-5 1,0 6,0 7,1 0,0 0,0 0,0 0,0 -3,0 -5,1 -7,2 -14,6 -17,13 -6,11 -2,20 0,30 1,8 1,15 2,23l14 0c1,-3 2,-6 2,-9 4,-10 6,-14 7,-25 1,-6 1,-15 0,-20 -1,-2 -5,-12 0,-12 2,0 3,1 4,2 5,1 6,-1 10,4 1,1 2,3 3,3 1,-1 1,-1 2,-1 0,0 0,1 0,2 1,0 4,0 6,1 2,1 -1,4 0,5 1,1 4,0 3,3 0,0 0,0 0,1 0,0 1,0 1,1 1,1 0,1 0,2 11,5 -2,8 -4,13 -1,2 0,3 0,4 0,2 0,3 0,4 2,1 4,1 6,0 1,-1 3,-2 5,-3z"/>
   <path class="fil0" d="M31 138l4 0c-1,-11 -2,-11 -1,-23l2 -7c0,-1 2,0 3,-1 0,0 1,-2 1,-3 0,-2 1,-4 2,-6 0,-2 1,-3 2,-6 1,-2 1,-4 2,-6 1,-2 4,-8 5,-10l7 -9c2,-1 5,-5 6,-6l5 -4c0,0 1,0 1,-1 1,0 2,-1 3,-1 0,-1 4,-3 5,-3l8 -4c2,-1 7,-3 9,-4 1,0 1,0 2,-1 3,0 5,-1 8,-1 2,-1 8,-2 11,-1 0,-1 0,0 0,-1 -1,0 0,0 -1,0 0,0 0,0 0,0l-4 0c-2,0 -4,0 -5,0 -10,2 -18,4 -27,8 -5,2 -10,5 -14,8 -5,3 -13,9 -17,14 0,1 0,1 -1,2 -1,2 -3,4 -5,6 -4,7 -4,7 -8,15 -3,7 -6,18 -6,27 -1,1 -1,9 -1,10 1,1 1,0 1,0 1,1 1,1 1,2 0,1 1,1 1,2 0,1 0,2 1,4z"/>
   <path class="fil0" d="M74 55l1 0c0,1 -1,1 -2,1 -1,2 -4,4 -6,5 0,0 0,1 -1,1 -1,1 -3,3 -4,4 -2,2 -8,9 -9,11l-2 3c-1,0 0,0 -1,0 0,1 -2,4 -2,5 0,1 0,1 -1,2l-2 5c-1,3 -2,5 -3,8l-1 6c0,1 0,1 -1,2 0,1 -1,0 -1,1 1,0 0,0 0,0 0,1 0,1 0,2 0,0 0,1 0,1 -1,2 0,2 -1,4 0,1 0,0 0,3 0,1 0,2 0,3l1 0 0 -3c1,-2 0,-2 1,-3 0,-1 0,-3 0,-3 0,-2 1,-1 1,-2l1 -7c0,-1 1,-2 1,-2l1 -2c0,-1 0,0 0,-1 0,0 0,-1 0,-1 1,-1 1,-1 2,-3 0,-1 0,-1 0,-2 1,-1 1,-1 1,-1 0,-1 0,-1 0,-1l2 -2c0,-1 0,-1 0,-2 0,0 1,0 1,-1 1,-2 2,-3 3,-4l3 -5c0,-1 0,0 1,-1l3 -4c0,-1 0,-1 1,-1 1,-1 1,-1 2,-2 0,-1 1,-1 1,-1l6 -6 11 -7c0,0 0,0 0,0 1,-1 1,-1 2,-1 0,0 0,-1 1,-1l2 -1c0,0 0,0 0,0 0,0 1,0 1,0 0,-1 1,-1 1,-1 2,-1 3,-1 5,-2 1,0 2,-1 3,-1l3 -1c2,-1 6,-2 7,-2 1,0 2,0 3,0 0,0 0,0 1,0 1,0 1,0 2,0 1,-1 1,-1 2,-1 2,0 10,0 12,0l0 -2c-4,0 -7,0 -11,0 -1,0 -3,0 -4,0 0,0 0,0 0,0 -1,0 -8,1 -9,1 -1,0 0,0 -1,0 -1,1 0,1 -1,1l-5 1c-1,1 0,0 0,1 -1,0 -1,0 -1,0l-2 1c-1,0 -2,0 -3,1 -1,0 -1,0 -3,1 -1,0 -2,1 -3,1 0,0 0,0 0,0l-1 1c0,0 0,0 -1,0 0,0 -1,1 -2,1 -1,1 -4,2 -5,3z"/>
   <path class="fil0" d="M39 122l-1 0c1,0 1,0 1,0 0,0 0,0 0,1 0,0 0,0 0,1l0 3c0,1 0,1 0,2 0,1 0,2 0,2 1,3 0,2 1,5 0,0 0,1 0,2l2 0c-1,-2 0,-2 -1,-4 0,-2 0,-3 0,-4 -1,-1 0,-6 0,-7 0,-2 0,-4 1,-6 0,-1 -1,-1 0,-2 0,-1 0,-1 0,-2 0,0 0,-1 0,-2 1,-1 1,-2 1,-3 0,-1 0,-1 1,-2 0,-1 0,-1 1,-3l0 -1c0,-1 0,0 0,-1 1,0 1,0 1,-1 1,-2 0,-1 1,-3 0,0 0,-1 0,-2 0,-1 4,-7 5,-8 0,0 0,-1 0,-1 1,0 1,-1 1,-1 0,-1 1,-1 1,-2 0,0 1,-2 2,-2 1,-2 0,-1 1,-2l2 -3c0,0 1,-1 1,-1 3,-2 2,-2 3,-3l2 -3c1,0 1,-1 2,-1 0,-1 1,-1 1,-1 1,-1 0,0 1,-1 0,-1 3,-3 5,-4 0,0 0,-1 0,-1 1,-1 4,-2 5,-3l2 -1c0,-1 1,0 1,-1 2,-1 4,-2 4,-2 1,0 0,0 0,0l1 -1c3,-1 1,-1 3,-1l3 -1c0,0 1,0 1,-1l7 -2c3,0 1,0 4,-1 1,0 1,0 1,0 1,0 3,0 3,-1 3,0 4,0 7,0 4,-1 6,-1 10,0l0 -1c-2,0 -12,0 -13,0 -1,0 -1,0 -2,0 -1,0 -3,1 -4,1 -1,0 -3,1 -4,1 -1,0 -1,0 -1,0 -1,0 -1,0 -1,0 -1,0 -2,1 -4,1 -1,1 -1,1 -2,1 -1,0 -1,0 -2,1 -1,0 -4,1 -5,2 -3,1 -3,1 -5,2 -3,2 -4,3 -6,4 -2,1 -2,1 -3,2 -1,1 -1,1 -2,1 -2,2 -4,4 -5,5 -1,0 -7,6 -8,7 0,1 0,1 -1,2l-5 7c0,1 -1,2 -2,3 0,1 0,1 -1,2 0,0 0,0 0,1 0,0 0,0 -1,0 0,1 0,1 0,2 -1,1 -1,1 -1,2 -1,1 -1,2 -2,3 0,1 0,1 -1,2 0,0 0,1 0,2 0,0 0,0 -1,1 0,0 0,0 0,0 0,2 0,3 -1,4l-1 4c0,1 0,1 0,1 0,1 0,1 0,1 -1,1 -1,2 -1,2 0,1 0,2 0,2 -1,2 -1,3 -1,5 0,0 -1,0 -1,1l0 1c0,1 0,1 0,1z"/>
   <path class="fil0" d="M78 52c0,0 -3,2 -4,2 -2,1 -8,6 -10,8 -2,2 -4,4 -6,6 -4,4 -8,10 -10,15 -1,3 -3,6 -4,8 -2,5 -2,10 -4,14 0,1 -1,2 -1,2 -1,1 -2,1 -3,1 0,0 0,1 0,2 0,-1 0,-1 1,-1 0,-1 0,0 2,0 0,-1 1,0 1,-1 1,-1 1,-1 1,-2l1 -6c1,-3 2,-5 3,-8l2 -5c1,-1 1,-1 1,-2 0,-1 2,-4 2,-5 1,0 1,-1 1,-1 1,-2 2,-3 3,-5 2,-3 4,-6 7,-8l3 -3 7 -6c0,0 3,-2 3,-2 1,-1 4,-2 5,-3 1,0 2,-1 2,-1 1,0 1,0 1,0l1 -1c0,0 0,0 0,0 1,0 2,-1 3,-1 2,-1 2,-1 3,-1 1,-1 2,-1 3,-1l2 -1c0,0 0,0 1,0 0,-1 -1,0 0,-1l5 -1c1,0 0,0 1,-1 1,0 0,0 1,0 1,0 8,-1 9,-1 1,0 2,0 3,-1 1,0 2,0 2,0 -3,-1 -9,0 -11,1 -3,0 -5,1 -8,1 -1,1 -1,1 -2,1 -2,1 -7,3 -9,4l-8 4z"/>
   <path class="fil0" d="M39 122c0,0 0,0 0,-1l0 -1c0,-1 1,-1 1,-1 0,-2 0,-3 1,-5 0,0 0,-1 0,-2 0,0 0,-1 1,-2 0,0 0,0 0,-1 0,0 0,0 0,-1l1 -4c1,-1 1,-2 1,-4 0,0 0,0 0,0 1,-1 1,-1 1,-1 0,-1 0,-2 0,-2 1,-1 1,-1 1,-2 1,-1 1,-2 2,-3 0,-1 0,-1 1,-2 0,-1 0,-1 0,-2 1,0 1,0 1,0 0,-1 0,-1 0,-1 1,-1 1,-1 1,-2 1,-1 2,-2 2,-3l5 -7c1,-1 1,-1 1,-2 1,-1 7,-7 8,-7 1,-1 3,-3 5,-5 1,0 1,0 2,-1 1,-1 1,-1 3,-2 2,-1 3,-2 6,-4 2,-1 2,-1 5,-2 1,-1 4,-2 5,-2 1,-1 1,-1 2,-1 1,0 1,0 2,-1 2,0 3,-1 4,-1 0,0 0,0 1,0 0,0 0,0 1,0 1,0 3,-1 4,-1 1,0 3,-1 4,-1 1,0 1,0 2,0 1,0 11,0 13,0l0 -1c-2,0 -10,0 -12,0 -1,0 -1,0 -2,1 -1,0 -1,0 -2,0 -1,0 -1,0 -1,0 -1,0 -2,0 -3,0 -1,0 -5,1 -7,2l-3 1c-1,0 -2,1 -3,1 -2,1 -3,1 -5,2 0,0 -1,0 -1,1 0,0 -1,0 -1,0 0,0 0,0 0,0l-2 1c-1,0 -1,1 -1,1 -1,0 -1,0 -2,1 0,0 0,0 0,0l-11 7 -6 6c0,0 -1,0 -1,1 -1,1 -1,1 -2,2 -1,0 -1,0 -1,1l-3 4c-1,1 -1,0 -1,1l-3 5c-1,1 -2,2 -3,4 0,1 -1,1 -1,1 0,1 0,1 0,2l-2 2c0,0 0,0 0,1 0,0 0,0 -1,1 0,1 0,1 0,2 -1,2 -1,2 -2,3 0,0 0,1 0,1 0,1 0,0 0,1l-1 2c0,0 -1,1 -1,2l-1 7c0,1 -1,0 -1,2 0,0 0,2 0,3 -1,1 0,1 -1,3l0 3z"/>
   <path class="fil0" d="M35 138l1 0 -1 -8c0,-1 0,-2 0,-3 0,-1 0,-6 0,-8l0 -3c1,-1 1,-1 1,-2 0,-1 0,-1 0,-1l1 -4c-1,0 -1,0 -1,1 0,-1 0,-2 0,-2 1,0 2,0 3,-1 0,0 1,-1 1,-2 2,-4 2,-9 4,-14 1,-2 3,-5 4,-8 2,-5 6,-11 10,-15 2,-2 4,-4 6,-6 2,-2 8,-7 10,-8 1,0 4,-2 4,-2 -1,0 -5,2 -5,3 -1,0 -2,1 -3,1 0,1 -1,1 -1,1l-5 4c-1,1 -4,5 -6,6l-7 9c-1,2 -4,8 -5,10 -1,2 -1,4 -2,6 -1,3 -2,4 -2,6 -1,2 -2,4 -2,6 0,1 -1,3 -1,3 -1,1 -3,0 -3,1l-2 7c-1,12 0,12 1,23z"/>
   <path class="fil0" d="M38 122c1,1 0,1 0,2 0,1 0,1 0,2 -1,1 -1,3 -1,4 1,1 1,2 1,4 0,1 0,2 0,4l2 0c0,-1 0,-2 0,-2 -1,-3 0,-2 -1,-5 0,0 0,-1 0,-2 0,-1 0,-1 0,-2l0 -3c0,-1 0,-1 0,-1 0,-1 0,-1 0,-1 0,0 0,0 -1,0z"/>
   <path class="fil0" d="M151 113c-1,0 -1,0 -1,-1 0,-3 0,-4 1,-7 1,-3 2,-5 2,-9 2,1 2,7 2,9 -1,3 -2,4 -3,6 0,1 0,1 -1,2zm-26 -67l0 16c2,0 3,-1 4,-2 2,0 3,-1 5,-1 2,-1 8,0 10,1 3,2 5,4 7,6 3,6 1,13 -2,18 -3,6 0,6 2,8 1,1 -1,8 -1,10 -1,2 -2,5 -3,7 0,1 -1,1 -1,1 -1,-2 3,-8 4,-13 0,-2 0,-2 -1,-3 -1,-2 -3,-4 -6,-4 0,0 -1,0 -1,-1l-1 0c1,0 3,-2 4,-3 4,-5 3,-14 1,-18 -2,-2 -5,-5 -10,-5 -2,0 -4,0 -6,1 -2,1 -3,2 -5,3l0 27c2,0 5,0 6,0 1,0 2,0 3,1 1,0 1,0 2,0 0,0 -1,1 -1,2 -1,2 -1,4 -1,7 0,2 0,4 0,6 0,3 -1,2 -2,4 1,0 1,0 2,1 -3,0 -1,-1 -5,0 -1,0 -3,1 -4,2l0 6c4,-1 6,-2 8,-3 3,-1 4,-3 5,-5 2,-2 3,-4 4,-7 1,-5 1,-8 1,-9l0 0c1,2 1,9 0,11 0,3 -2,6 -4,9 -3,5 -9,7 -14,7l0 3 3 2c1,1 2,1 3,2 2,1 4,3 5,5l4 0c-1,-8 -4,-9 -4,-15 1,0 1,0 1,1 2,4 5,10 6,14l11 0c-1,-4 -4,-8 -4,-12 1,-5 6,-12 7,-15l1 -4c0,0 0,0 0,0l1 0c0,0 0,0 0,0 0,7 -2,10 -5,15 -1,3 -2,5 -1,9 1,2 2,4 4,7l12 0c1,-1 4,-4 7,-7 2,-3 2,-7 0,-11 -1,-3 -3,-5 -6,-7 -2,-2 -7,-4 -8,-6 2,0 8,3 10,4 3,2 6,4 7,6 1,2 2,4 2,5 2,4 -1,11 -3,14 -1,0 -2,1 -2,2l12 0 0 -6c0,-1 1,-1 1,-2 0,-1 1,-2 1,-2 1,-5 0,-12 0,-17 -1,-3 -1,-7 -2,-10 0,-1 -1,-4 -1,-5 0,0 0,0 0,0l0 0c1,0 2,4 2,4l1 4c0,1 0,1 0,1 0,2 0,0 0,3 0,1 1,5 1,8 0,2 1,11 0,12 0,1 0,0 0,1 0,1 0,2 -1,3 -1,1 -1,4 -1,6l11 0c-1,-4 0,-7 0,-10 0,-4 -1,-2 -1,-5l0 -7 -1 -7c-1,0 -1,-1 -1,-2 0,0 0,-1 0,-2 -1,-1 -2,-5 -3,-7 0,-1 0,-2 0,-2 -1,-2 -2,-5 -2,-6 -1,-1 -3,-5 -4,-6 0,-1 0,-1 -1,-2l-4 -6c0,-1 0,-1 -1,-1 0,0 0,0 0,0 -1,0 -1,-1 -1,-1 -1,-1 -1,-2 -2,-3 -1,-1 -1,0 -2,-1l-1 -2c-1,0 -1,-1 -2,-1 0,-1 0,0 0,-1 0,0 0,0 -1,0 -1,-2 -1,-1 -1,-2 0,0 -1,0 -1,0l-5 -4c-1,-1 -1,-1 -2,-2 -1,0 -1,0 -2,-1 -2,-1 0,-1 -4,-2l-4 -2c0,0 -1,-1 -1,-1 -1,0 -3,-1 -4,-1 -1,-1 -1,-1 -3,-1 -1,-1 -2,-1 -3,-1 -2,-1 -3,-1 -3,-1 -2,-1 -3,-1 -4,-1 -2,0 -3,-1 -3,-1 -3,0 -5,0 -8,0zm11 35c1,-2 6,-3 5,1 0,2 -1,3 -1,4 -1,0 -3,1 -4,1 0,-1 0,-1 1,-1 0,0 0,0 0,0 3,-1 3,-4 2,-6 -1,0 -2,0 -3,1z"/>
   <path class="fil0" d="M79 192c1,0 2,1 3,1 1,1 2,1 3,1 3,2 7,3 11,5 4,1 9,1 12,2 2,1 4,2 6,2 3,0 5,0 7,-1 1,0 2,0 4,0 1,0 3,0 3,1 -1,0 -3,0 -4,0l-3 1c-3,0 -4,0 -7,0 -2,0 -4,-1 -6,-2 -1,0 -7,-1 -10,-2l-8 -3c-2,0 -4,-1 -6,-2 -1,0 -1,-1 -2,-1l-2 -1c-1,-1 0,-1 -1,-1zm52 -55l-38 0c1,12 11,24 11,37 0,3 1,5 0,8 0,1 -1,6 -1,7 -1,-1 -1,-7 -1,-8 0,-2 0,-5 -1,-7 -3,-13 -10,-19 -10,-33l1 -4 -6 0 -1 4c-1,4 -1,9 1,12 3,7 7,10 8,11 -2,0 -6,-3 -7,-3 -2,-2 -3,-4 -5,-6 -1,-2 -2,-5 -2,-8 0,-7 0,-5 1,-10l-14 0c0,5 0,10 1,14 0,1 0,1 0,1 0,1 0,1 0,1 2,11 4,18 11,25l4 4c1,1 2,2 4,3 1,0 2,1 2,1 -2,0 -10,-4 -13,-6 -1,-1 -2,-1 -3,-2 -2,-3 -4,-6 -6,-9 -5,-9 -6,-20 -8,-32l-17 0c0,3 2,10 3,13l1 1c0,0 0,1 0,2 0,0 1,2 1,2 0,0 0,0 0,0 0,0 -1,-1 -1,-1 0,0 0,0 0,-1l-1 0c0,0 0,-1 0,-1 0,-1 -1,-2 -1,-3 -1,0 -1,0 -1,-1 0,0 0,-1 0,-1l-2 -5c0,-1 -1,-3 -1,-5l-2 0 1 1c0,2 0,2 0,4 1,1 1,3 1,3l1 3c0,1 1,3 1,5 0,0 0,2 1,2 0,0 0,1 0,1 1,3 0,2 2,5l2 3c0,1 0,1 0,2 0,2 5,7 5,8l-1 0 0 1 0 -1c-1,0 -1,-1 -2,-2 -2,-3 -3,-4 -4,-7 -2,-2 -2,-4 -3,-6 -1,-1 -3,-4 -3,-6 0,1 0,0 0,1 -1,-1 -1,-3 -2,-4 0,0 0,-1 0,-2 0,-1 0,-1 0,-2 0,-1 -2,-7 -2,-9l-4 0 2 11c0,0 1,1 1,2 0,1 0,2 1,4 0,2 2,5 3,7 1,1 2,3 3,5l1 1c1,1 1,1 1,2 1,0 1,1 1,1 4,5 4,5 7,9 1,1 8,7 10,9 0,0 1,1 1,1 0,-1 0,-1 -1,-2 -1,-2 -3,-4 -5,-6 -1,-1 -2,-2 -2,-3 1,1 6,5 7,7 1,0 1,1 2,1 0,1 1,1 1,2 1,0 1,0 2,1l5 5 7 4c1,1 1,1 1,1 -2,1 -14,-6 -16,-7 -3,-2 -3,-2 -6,-5 -2,-1 -5,-5 -6,-6 0,1 0,0 0,1 0,0 0,0 0,0 -2,0 -5,-4 -6,-6l-3 -4c-1,-1 -2,-3 -3,-3 0,1 3,4 4,6l8 9c0,-1 0,0 0,-1l10 9c0,1 0,0 1,1 2,2 3,2 4,4l3 1c1,1 1,1 3,2 3,2 7,4 11,6 1,0 3,1 5,2 4,1 5,1 8,2 1,0 2,0 3,0 2,1 4,1 6,1 1,0 1,1 2,1 5,1 14,1 20,0l3 0c1,-1 -5,0 -5,0 -3,1 -10,0 -13,0 -1,0 -5,-1 -5,-1l0 0 1 0c0,-1 0,0 1,-1 3,0 7,0 11,0 3,-1 5,-1 8,-2 0,0 1,0 2,0 0,0 0,0 0,1 0,-1 3,-1 4,-1 1,0 1,0 1,-1 1,0 1,0 2,0l0 -3c-2,0 -2,0 -6,0 0,1 -1,1 -1,0 0,0 3,0 3,0 2,-1 3,-1 4,-1l0 -9c-1,0 -2,0 -4,1 -4,1 -7,1 -12,2 -3,0 -16,1 -18,0 4,-1 12,0 14,-1 0,0 1,0 2,0 0,0 1,0 2,0l4 -1c1,0 3,0 4,0 2,-1 3,-1 4,-1l2 -1c1,0 0,0 2,0l0 -4c0,1 -1,2 -2,2 1,-2 2,-11 1,-12 0,-2 0,-3 0,-4l1 -1 0 -9c-3,-1 -14,-7 -17,-9 -1,-1 -4,-3 -5,-4 8,-2 15,4 21,7 0,0 1,1 1,1l0 -17c0,-1 -1,-1 -1,-2l-5 -4z"/>
   <path class="fil0" d="M51 184c0,1 2,2 3,3l4 4c2,2 6,6 9,8l4 2c1,1 2,1 2,2 2,1 8,3 10,4 3,2 4,2 7,3 1,0 3,1 3,1 2,0 4,0 6,1 1,0 4,0 6,1 1,0 1,0 1,0l5 1c5,0 9,0 13,0 1,0 5,-1 6,-2l-3 0c-6,1 -15,1 -20,0 -1,0 -1,-1 -2,-1 -2,0 -4,0 -6,-1 -1,0 -2,0 -3,0 -3,-1 -4,-1 -8,-2 -2,-1 -4,-2 -5,-2 -4,-2 -8,-4 -11,-6 -2,-1 -2,-1 -3,-2l-3 -1c-1,-2 -2,-2 -4,-4 -1,-1 -1,0 -1,-1l-10 -9c0,1 0,0 0,1z"/>
   <path class="fil0" d="M79 192c1,0 0,0 1,1l2 1c1,0 1,1 2,1 2,1 4,2 6,2l8 3c3,1 9,2 10,2 2,1 4,2 6,2 3,0 4,0 7,0l3 -1c1,0 3,0 4,0 0,-1 -2,-1 -3,-1 -2,0 -3,0 -4,0 -2,1 -4,1 -7,1 -2,0 -4,-1 -6,-2 -3,-1 -8,-1 -12,-2 -4,-2 -8,-3 -11,-5 -1,0 -2,0 -3,-1 -1,0 -2,-1 -3,-1z"/>
   <path class="fil0" d="M40 137c0,2 1,4 1,5l2 5c0,0 0,1 0,1 0,1 0,1 1,1 0,1 1,2 1,3 0,0 0,1 0,1l1 0c0,1 0,1 0,1 0,0 1,1 1,1 0,0 0,0 0,0 0,0 -1,-2 -1,-2 0,-1 0,-2 0,-2l-1 -1c-1,-3 -3,-10 -3,-13l-2 0z"/>
   <path class="fil0" d="M39 153c-1,0 -2,-5 -1,-5 0,0 0,0 0,0 0,0 -1,-5 -1,-7 0,0 0,0 -1,-1 0,-1 0,-1 0,-3l-1 0c0,2 2,8 2,9 0,1 0,1 0,2 0,1 0,2 0,2 1,1 1,3 2,4 0,-1 0,0 0,-1z"/>
   <path class="fil0" d="M85 138l7 0c0,-2 1,-5 2,-6 0,2 -1,3 -1,6l33 0 0 -5 -2 -1c-2,-1 -4,-3 -7,-3 -7,-2 -10,0 -11,0 0,-1 2,-2 4,-3 1,-1 3,-1 5,-1 6,0 8,3 11,4l0 -3c-2,0 -10,-2 -10,-2 0,0 -1,0 0,0 0,0 0,0 0,0 0,0 1,0 1,0 0,0 1,0 1,0 4,-1 4,-1 8,-1l0 -6c-3,1 -5,3 -9,2 -2,0 -3,-1 -5,0 -2,0 -3,1 -5,1 1,-2 4,-3 4,-4 1,0 1,-1 1,-2 -1,-6 -2,-6 4,-10 1,-1 2,-1 3,-2 2,-3 -1,-5 -3,-6 1,-2 2,-3 -1,-3 0,-1 1,-1 1,-3 -6,-1 -3,-1 -3,-5 -2,-1 -2,-1 -4,-1 -2,0 -3,0 -4,1l2 1c-1,0 -1,0 -2,0 0,0 0,0 -1,0 0,1 -1,1 -2,1 0,-1 1,-3 2,-4 0,-1 -6,-7 -10,-8l2 8c2,9 2,18 0,26 -1,4 -3,12 -5,15 -1,2 -4,8 -4,10 -1,1 -1,2 -2,4z"/>
   <path class="fil0" d="M126 67c-2,1 -4,3 -5,5 -1,2 0,6 0,8 1,0 3,0 3,1 0,0 -1,1 -2,1l1 -1 -2 0c0,1 -1,3 -2,4 1,0 2,1 2,2 0,0 -1,2 1,2 0,0 1,0 1,0 0,1 -1,1 -1,2 1,0 1,0 2,1 1,0 1,1 1,2l1 0 0 -27z"/>
   <path class="fil0" d="M125 45l13 2 2 1c0,0 1,0 3,1 1,0 2,0 3,1 2,0 2,0 3,1 1,0 3,1 4,1 0,0 1,1 1,1l4 2c4,1 2,1 4,2 1,1 1,1 2,1 1,1 1,1 2,2l5 4c0,0 1,0 1,0 0,1 0,0 1,2 1,0 1,0 1,0 0,1 0,0 0,1 1,0 1,1 2,1l1 2c1,1 1,0 2,1 1,1 1,2 2,3 0,0 0,1 1,1 0,0 0,0 0,0 -2,-3 -5,-7 -7,-9 -2,-2 -3,-3 -4,-4 -1,-1 -6,-5 -7,-5 -1,-1 -2,-1 -2,-2 -1,0 -1,0 -3,-1 -1,-1 -1,-1 -2,-2 -4,-2 -8,-4 -12,-5l1 0c1,0 1,1 2,1 0,0 0,1 -2,0 -1,0 -1,0 -1,-1l-5 -1c-1,0 -3,0 -4,-1 -2,0 0,0 -3,0 -1,0 -2,0 -2,0 -3,0 -2,-1 -3,-1l-3 0 0 1z"/>
   <path class="fil0" d="M125 113l4 0c2,-3 1,-5 1,-9 0,-6 2,-6 3,-8 -2,0 -5,0 -8,0l0 17z"/>
   <path class="fil0" d="M125 44l3 0c1,0 0,1 3,1 0,0 1,0 2,0 3,0 1,0 3,0 1,1 3,1 4,1l5 1c0,1 0,1 1,1 2,1 2,0 2,0 -1,0 -1,-1 -2,-1l-1 0c0,0 -3,-2 -4,-2l-6 -1c0,-1 -1,0 -1,-1 -1,0 -2,0 -3,0 -1,0 -2,0 -3,0 -1,-1 -1,-1 -3,-1l0 2z"/>
   <path class="fil0" d="M125 138l6 0c0,-1 -4,-4 -6,-5l0 5z"/>
   <path class="fil0" d="M125 46c3,0 5,0 8,0 0,0 1,1 3,1 1,0 2,0 4,1l-2 -1 -13 -2 0 1z"/>
   <path class="fil0" d="M137 194l0 0c4,-1 7,-2 11,-2 3,-1 7,-2 10,-4l8 -5c2,-1 8,-6 10,-9 1,0 1,-1 2,-1 2,-2 7,-11 8,-12 1,-2 4,-5 5,-7 1,-1 1,-2 2,-2 0,-1 2,-4 1,-5 0,0 0,1 0,1 -1,1 0,1 -1,1 -1,2 -2,4 -4,6l-2 4c-1,0 -1,1 -2,1 -2,4 -4,7 -6,10 -1,2 -4,4 -6,6 0,0 0,0 0,1 -1,0 -1,0 -1,1l-3 2c-3,2 -4,3 -8,5 -1,1 -2,2 -4,2 -2,2 -5,3 -8,4 0,0 -1,0 -1,0l-4 1c-2,0 -2,0 -5,0l-2 1 0 0c-2,0 -1,0 -2,0l-2 1c-1,0 -2,0 -4,1 -1,0 -3,0 -4,0l-4 1c-1,0 -2,0 -2,0 -1,0 -2,0 -2,0 -2,1 -10,0 -14,1 2,1 15,0 18,0 5,-1 8,-1 12,-2 2,-1 3,-1 4,-1z"/>
   <path class="fil0" d="M107 211c2,0 5,0 7,0 2,0 9,0 11,-1 1,0 1,0 2,0 0,0 2,-1 3,-1 0,-1 0,-1 0,-1 -1,0 -2,0 -2,0 -3,1 -5,1 -8,2 -4,0 -8,0 -11,0 -1,1 -1,0 -1,1l-1 0z"/>
   <path class="fil0" d="M137 204l0 -1c-1,0 -2,0 -4,1 0,0 -3,0 -3,0 0,1 1,1 1,0 4,0 4,0 6,0z"/>
   <path class="fil0" d="M137 193l2 -1c3,0 3,0 5,0l4 -1c0,0 1,0 1,0 3,-1 6,-2 8,-4 2,0 3,-1 4,-2 4,-2 5,-3 8,-5l3 -2c0,-1 0,-1 1,-1 0,-1 0,-1 0,-1 2,-2 5,-4 6,-6 2,-3 4,-6 6,-10 1,0 1,-1 2,-1l2 -4c2,-2 3,-4 4,-6 1,0 0,0 1,-1 0,0 0,-1 0,-1 1,1 -1,4 -1,5 -1,0 -1,1 -2,2 -1,2 -4,5 -5,7 -1,1 -6,10 -8,12 -1,0 -1,1 -2,1 -2,3 -8,8 -10,9l-8 5c-3,2 -7,3 -10,4 -4,0 -7,1 -11,2l0 9c2,-1 9,-3 12,-5 2,0 4,0 7,-1 2,0 6,-2 8,-3 1,-1 2,-1 3,-2 1,-1 4,-3 5,-3 1,-1 2,0 3,-1 1,-2 8,-10 9,-11 2,-3 5,-7 7,-10 0,0 0,-1 1,-1 0,-1 3,-6 3,-7l2 -6c2,-4 4,-11 5,-16l-2 0c0,1 0,0 0,1 0,-1 0,0 0,-1l-11 0 -1 4c-1,2 0,3 -1,3 -1,-1 -1,-1 0,-1 0,-1 1,-5 1,-6l-12 0c-1,1 -2,2 -3,3 0,0 0,1 -1,1 0,1 0,1 -1,1 0,0 0,0 0,0 0,1 1,1 3,5 2,6 2,10 0,16 0,0 0,1 -1,1 0,1 0,1 -1,1 1,-2 1,-4 1,-7 0,-4 -3,-8 -5,-12l-4 -5c0,0 4,-3 5,-4l-13 0c4,7 12,17 13,26 0,2 -1,5 -2,7 -2,4 -2,3 -7,3 -2,0 -5,-1 -8,-1 -1,-1 -5,-3 -6,-3 -1,5 -2,5 -6,7 0,2 0,3 0,4 -1,2 -2,8 -3,9l0 4z"/>
   <path class="fil0" d="M137 204c1,-1 2,-1 3,-1 3,-1 8,-3 10,-4 4,-1 6,0 11,-3 1,0 2,-1 3,-1 0,0 0,0 1,0 0,-1 1,-1 2,-2 0,0 0,0 1,0 0,-1 0,-1 1,-1 0,-1 1,-1 1,-1 1,-1 2,-1 2,-2 1,0 1,1 1,0 1,0 3,-1 3,-1l0 -1c1,0 5,-5 6,-6l4 -5c1,-1 4,-5 4,-6 1,-1 1,-2 1,-2 2,-2 4,-7 5,-8 1,-1 4,-11 5,-13 0,-2 1,-2 1,-4 0,0 0,-2 1,-3 0,0 0,-1 0,-1 0,-1 0,-1 0,-2l-1 0c-1,5 -3,12 -5,16l-2 6c0,1 -3,6 -3,7 -1,0 -1,1 -1,1 -2,3 -5,7 -7,10 -1,1 -8,9 -9,11 -1,1 -2,0 -3,1 -1,0 -4,2 -5,3 -1,1 -2,1 -3,2 -2,1 -6,3 -8,3 -3,1 -5,1 -7,1 -3,2 -10,4 -12,5l0 1z"/>
   <path class="fil0" d="M137 207c3,0 8,-2 11,-4 1,0 2,0 4,-1 2,-1 7,-4 9,-5l3 -2c0,0 0,0 0,0 -1,0 -2,1 -3,1 -5,3 -7,2 -11,3 -2,1 -7,3 -10,4 -1,0 -2,0 -3,1l0 3z"/>
   <path class="fil0" d="M176 187c1,0 8,-8 8,-9l4 -5c0,0 1,-1 1,-1l3 -4c0,-1 4,-7 4,-8 -1,1 -3,6 -5,8 0,0 0,1 -1,2 0,1 -3,5 -4,6l-4 5c-1,1 -5,6 -6,6z"/>
   <path class="fil0" d="M165 195c1,-1 4,-3 5,-3l2 -2c1,-1 1,1 4,-2 0,0 -2,1 -3,1 0,1 0,0 -1,0 0,1 -1,1 -2,2 0,0 -1,0 -1,1 -1,0 -1,0 -1,1 -1,0 -1,0 -1,0 -1,1 -2,1 -2,2z"/>
   <path class="fil0" d="M137 138l0 -1 -1 0c1,1 1,1 1,1z"/>
   <path class="fil0" d="M137 160l6 3c2,1 4,2 6,3 5,2 13,5 15,0 2,-5 -4,-17 -6,-22 -1,-1 -1,-2 -2,-4l-2 -3 -12 0c1,3 4,9 5,11 2,3 6,7 6,9 -2,-1 -11,-10 -14,-13 -1,0 -1,-1 -2,-1l0 17z"/>
   <path class="fil0" d="M137 174c1,-1 3,-3 3,-5 0,-1 0,-2 -1,-3 0,0 -1,-1 -2,-1l0 9z"/>
   <path class="fil0" d="M137 138l2 2c0,0 1,1 1,1l0 -4 -3 0 0 1z"/>
   <path class="fil0" d="M200 138l2 0c2,-6 1,-17 2,-17 0,0 0,0 0,0 0,0 0,0 0,0l0 1c0,-6 -2,-14 -3,-20 -1,0 -2,-5 -3,-5 0,0 1,2 1,2 1,2 1,5 2,7 0,1 0,2 0,3 0,1 0,1 0,2 0,1 1,2 1,3l0 8c0,2 0,4 0,6 0,5 0,5 -2,10z"/>
   <path class="fil0" d="M188 138l1 0c0,-2 0,-5 1,-6 1,-1 1,-2 1,-3 0,-1 0,0 0,-1 1,-1 0,-10 0,-12 0,-3 -1,-7 -1,-8 0,-3 0,-1 0,-3 0,0 0,0 0,-1l-1 -4c0,0 -1,-4 -2,-4l0 0c0,0 0,0 0,0 0,1 1,4 1,5 1,3 1,7 2,10 0,5 1,12 0,17 0,0 -1,1 -1,2 0,1 -1,1 -1,2l0 6z"/>
   <path class="fil0" d="M202 138l1 0c0,-1 0,-2 1,-2 0,-3 0,-13 0,-14l0 -1c0,0 0,0 0,0 0,0 0,0 0,0 -1,0 0,11 -2,17z"/>
   <path class="fil0" d="M188 137c0,1 -1,5 -1,6 -1,0 -1,0 0,1 1,0 0,-1 1,-3l1 -4 -1 0z"/>
   <path class="fil0" d="M200 137c0,1 0,0 0,1 0,-1 0,0 0,-1l0 0z"/>
   <path class="fil1" d="M473 60l9 0 0 131 -9 0 0 -131zm51 0l8 0 -16 131 -9 0 -17 -131 8 0 14 108 0 0 12 -108zm15 0l26 0 0 9 -17 0 0 47 16 0 0 9 -16 0 0 66 -9 0 0 -131z"/>
   <line class="fil2 str0" x1="450" y1="61" x2="450" y2= "193" />
   <path class="fil0" d="M231 61l191 0c5,0 10,4 10,10l0 77 -211 0 0 -77c0,-6 4,-10 10,-10zm9 73c2,2 7,4 12,4 11,0 17,-8 17,-18 0,-9 -4,-14 -12,-18 -7,-4 -10,-7 -10,-12 0,-5 3,-10 9,-10 4,0 8,2 9,3l2 -6c-2,-2 -6,-3 -11,-3 -9,0 -15,7 -15,16 0,9 5,15 12,18 7,3 10,7 10,13 0,6 -4,10 -10,10 -5,0 -9,-2 -11,-4l-2 7zm62 -33l-19 0 0 -20 20 0 0 -6 -26 0 0 62 27 0 0 -7 -21 0 0 -22 19 0 0 -7zm34 0l-18 0 0 -20 20 0 0 -6 -26 0 0 62 27 0 0 -7 -21 0 0 -22 18 0 0 -7zm10 36c4,0 7,1 12,1 9,0 16,-4 21,-9 4,-6 7,-14 7,-25 0,-10 -3,-17 -7,-22 -4,-5 -11,-8 -19,-8 -5,0 -10,1 -14,1l0 62zm7 -56c1,0 4,-1 7,-1 13,0 19,10 19,25 0,16 -7,26 -20,26 -3,0 -5,0 -6,0l0 -50zm38 53c3,2 8,4 12,4 11,0 17,-8 17,-18 0,-9 -4,-14 -12,-18 -7,-4 -10,-7 -10,-12 0,-5 3,-10 9,-10 5,0 8,2 9,3l2 -6c-2,-2 -6,-3 -11,-3 -9,0 -15,7 -15,16 0,9 5,15 13,18 6,3 9,7 9,13 0,6 -4,10 -10,10 -5,0 -9,-2 -11,-4l-2 7z"/>
   <path class="fil2 str0" d="M231 143l190 -3c6,0 11,-3 11,3l0 40c0,5 -5,10 -10,10l-191 0c-6,0 -10,-5 -10,-10l0 -40c0,-6 4,0 10,0z"/>
   <path class="fil2 str0" d="M231 143l191 3c5,0 10,3 10,-3l0 -72c0,-6 -4,-10 -10,-10l-191 0c-5,0 -10,4 -10,10l0 72c0,6 5,0 10,0z"/>
   <path class="fil1" d="M247 159c-6,0 -10,5 -10,13 0,8 4,13 9,13 5,0 10,-4 10,-13 0,-8 -4,-13 -9,-13zm0 2c4,0 6,6 6,11 0,6 -2,11 -6,11 -4,0 -7,-5 -7,-11 0,-6 2,-11 7,-11zm12 24l2 0 0 -12 8 0 0 -3 -8 0 0 -8 8 0 0 -3 -10 0 0 26zm20 -26l0 26 3 0 0 -26 -3 0zm10 26l0 -11c0,-4 0,-8 0,-11l0 0c1,3 2,6 3,9l7 13 2 0 0 -26 -2 0 0 11c0,4 0,7 0,10l0 1c-1,-3 -2,-6 -4,-9l-6 -13 -3 0 0 26 3 0zm19 0l0 -11c0,-4 0,-8 0,-11l0 0c1,3 2,6 4,9l6 13 2 0 0 -26 -2 0 0 11c0,4 0,7 0,10l0 1c-1,-3 -2,-6 -3,-9l-7 -13 -2 0 0 26 2 0zm25 -26c-6,0 -9,5 -9,13 0,8 3,13 9,13 5,0 9,-4 9,-13 0,-8 -3,-13 -9,-13zm0 2c4,0 6,6 6,11 0,6 -2,11 -6,11 -4,0 -7,-5 -7,-11 0,-6 3,-11 7,-11zm25 20c-1,1 -2,1 -4,1 -5,0 -7,-4 -7,-10 0,-7 3,-11 7,-11 2,0 3,1 4,1l1 -2c-1,-1 -2,-1 -5,-1 -6,0 -10,5 -10,13 0,9 4,13 10,13 2,0 4,0 5,-1l-1 -3zm14 -11l-7 0 0 -8 8 0 0 -3 -11 0 0 26 11 0 0 -3 -8 0 0 -9 7 0 0 -3zm7 15l0 -11c0,-4 0,-8 0,-11l0 0c1,3 2,6 3,9l7 13 2 0 0 -26 -2 0 0 11c0,4 0,7 0,10l0 1c-1,-3 -2,-6 -3,-9l-7 -13 -3 0 0 26 3 0zm30 -4c-1,1 -3,1 -4,1 -5,0 -8,-4 -8,-10 0,-7 3,-11 8,-11 2,0 3,1 4,1l1 -2c-1,-1 -3,-1 -5,-1 -6,0 -10,5 -10,13 0,9 4,13 9,13 3,0 5,0 6,-1l-1 -3zm14 -11l-8 0 0 -8 8 0 0 -3 -10 0 0 26 11 0 0 -3 -9 0 0 -9 8 0 0 -3z"/>
  </g>
 </g>
</svg>
