<?xml version="1.0" encoding="UTF-8"?>
<!DOCTYPE svg PUBLIC "-//W3C//DTD SVG 1.1//EN" "http://www.w3.org/Graphics/SVG/1.1/DTD/svg11.dtd">
<!-- Creator: CorelDRAW -->
<svg xmlns="http://www.w3.org/2000/svg" xml:space="preserve" width="143.933mm" height="50.8mm" version="1.1" style="shape-rendering:geometricPrecision; text-rendering:geometricPrecision; image-rendering:optimizeQuality; fill-rule:evenodd; clip-rule:evenodd"
viewBox="0 0 14393.34 5080"
 xmlns:xlink="http://www.w3.org/1999/xlink"
 xmlns:xodm="http://www.corel.com/coreldraw/odm/2003">
 <defs>
  <style type="text/css">
   <![CDATA[
    .str0 {stroke:#CD2527;stroke-width:50;stroke-miterlimit:22.9256}
    .str1 {stroke:#CC2627;stroke-width:50;stroke-miterlimit:22.9256}
    .fil0 {fill:none}
    .fil25 {fill:none;fill-rule:nonzero}
    .fil7 {fill:#CD2527}
    .fil15 {fill:#61372F}
    .fil17 {fill:#742B24}
    .fil16 {fill:#752D23}
    .fil4 {fill:#782E23}
    .fil21 {fill:#7C2C22}
    .fil2 {fill:#8A2724}
    .fil11 {fill:#8D2A24}
    .fil5 {fill:#9F2826}
    .fil22 {fill:#A42826}
    .fil20 {fill:#A42827}
    .fil6 {fill:#A42A26}
    .fil8 {fill:#A42B26}
    .fil9 {fill:#A62828}
    .fil3 {fill:#B62829}
    .fil12 {fill:#B92829}
    .fil18 {fill:#C32728}
    .fil19 {fill:#C62B2B}
    .fil1 {fill:#CC2627}
    .fil10 {fill:#DF3655}
    .fil14 {fill:#E03E4D}
    .fil23 {fill:#FDF5F6}
    .fil13 {fill:#FEFEFE}
    .fil24 {fill:#CD2527;fill-rule:nonzero}
    .fil26 {fill:#CC2627;fill-rule:nonzero}
    .fil27 {fill:#FEFEFE;fill-rule:nonzero}
   ]]>
  </style>
 </defs>
 <g id="Layer_x0020_1">
  <metadata id="CorelCorpID_0Corel-Layer"/>
  <rect class="fil0" x="-0.01" width="14393.34" height="5080"/>
  <g id="_2185481035104">
   <path class="fil1" d="M1458.77 2251.26c-50,-40 -90,-320 -90,-400l0 -120c0,-140 50,-310 120,-400 30,-50 70,-90 120,-130 50,-30 100,-50 180,-60 -10,10 -80,60 -90,80 -90,80 -150,250 -180,370 -50,200 -70,440 -60,660zm1339.99 -60l0 -450c-20,-10 -40,-10 -60,-20 -30,-20 -20,-30 -20,-70 -10,-10 -40,-10 -40,-20 -10,-10 -20,-20 -20,-30 10,-30 10,10 20,-20 -20,0 -50,0 -60,-20 0,-30 20,-30 10,-60 -10,-20 -30,-10 -40,-30 -20,-70 60,-100 40,-160 0,-30 -20,-50 -20,-90 0,-30 0,-70 0,-100 30,-100 110,-210 190,-250l0 -430c-90,0 -150,-10 -250,0 -69.99,10 -89.99,10 -169.99,30 -20,0 -50,0 -70,10 -20,0 -20,10 -40,10 -70,10 -40,0 -120,20l-160 60c-10,0 -20,0 -40,10l-60 20c-50,20 -20,20 -80,40l-20 10c-10,10 10,0 0,10 -10,10 -70,30 -110,60 -10,10 -20,0 -30,10l-50 40c-20,10 -100,50 -130,80 0,0 0,10 -10,10 -30,20 -110,80 -120,100 -20,30 0,10 -20,30 -10,10 -20,10 -30,20 -10,10 -30,30 -50,40l-60 70c-20,20 0,40 -60,70 -20,20 -30,30 -50,50l-30 50c-30,40 0,10 -40,60 -10,0 -40,40 -40,50 -10,20 -30,30 -20,50 0,10 -20,20 -30,30 -10,10 -10,20 -10,40 -20,30 -110,170 -120,210 0,10 -10,30 -10,40 -10,50 -10,20 -30,80 0,10 0,10 -10,20 -10,10 0,0 0,20l-10 40c-20,50 -20,50 -30,80 -10,10 -10,30 -10,50 0,30 -20,50 -20,80 -10,20 -10,30 -10,50 0,30 -10,20 -10,40 -10,10 0,30 0,50 -10,40 -30,110 -20,150 10,30 -20,149.99 -10,199.99 10,20 0,50 10,90 20,60 10,40 20,90l460 0c-30,-259.99 -40,-349.99 -90,-599.99 -30,-140 -90,-310 -80,-450 0,-40 20,-110 30,-150 30,-180 170,-340 280,-410 120,-70 260,-120 400,-120 10,0 140,0 160,10 0,0 0,0 0,0 -10,0 -80,10 -130,20 -180,60 -350,170 -440,340 -150,280 -40,530 0,790 30,190 50,369.99 50,569.99l370 0c20,-70 40,-150 70,-220 80,-239.99 130,-359.99 180,-649.99 20,-150 10,-380 -20,-510 -20,-60 -120,-300 10,-310 50,-10 70,20 90,50 120,20 170,-10 270,120 20,20 50,60 70,60 20,-10 40,-30 50,-30 0,20 -10,40 0,60 40,10 110,10 150,30 59.99,20 -10,100 10,140 19.99,20 89.99,-20 89.99,50 0,20 -10,20 -20,40 10,10 40,10 40,20 10,40 -10,30 -10,60 280,130 -60,210 -109.99,340 -10,30 -10,70 0,100 0,50 0,70 0,110 59.99,10 109.99,10 159.99,-10 40,-20 90,-60 120,-70z"/>
   <path class="fil1" d="M358.78 2811.25l110 0c-20,-269.99 -60,-279.99 -20,-569.99l30 -180c20,-40 50,-10 80,-30 10,-10 30,-50 30,-70 20,-50 30,-120 50,-170 20,-50 20,-90 50,-160 20,-50 40,-100 60,-150 30,-50 90,-190 130,-240l180 -250c40,-30 120,-120 160,-150l120 -100c10,-10 20,-10 30,-20 20,-10 40,-30 60,-40 20,-10 120,-80 140,-80l210 -100c50,-20 190,-80 230,-90 30,-10 40,-20 60,-20 60,-20 130,-40 190,-50 70,-10 230,-30 289.99,-20 -10,-20 10,0 -10,-10 0,-10 10,0 0,0 0,0 -19.99,-10 -19.99,-10l-100 0c-50,0 -90,0 -140,10 -250,30 -450,80 -680,190 -130,60 -260,130 -370,210 -130,90 -320,250 -420,370 -10,20 -20,30 -30,40 -40,50 -90,110 -120,170 -120,160 -120,180 -210,370 -90,180 -160,480 -170,690 -10,50 -20,239.99 -10,279.99 10,0 20,0 30,0 10,20 10,20 20,40 0,10 10,30 10,50 10,20 20,60 30,90z"/>
   <path class="fil2" d="M1478.77 681.27l20 0c-10,20 -30,30 -40,40 -50,40 -110,90 -160,120 -10,10 -10,20 -20,20 -40,30 -90,90 -120,120 -50,50 -190,210 -220,260l-70 100c-10,-10 0,0 0,-10 -20,30 -60,100 -70,140 0,10 -10,30 -20,40l-50 140c-30,70 -50,120 -70,200l-40 150c-10,20 -10,30 -20,50 -10,20 -30,10 -40,30 30,-10 10,-10 20,0 0,20 -10,20 -10,40 -10,10 0,20 -10,40 -10,40 0,50 -10,90 0,30 0,10 0,80 0,30 0,60 0,90l10 -10 10 -60c20,-60 10,-70 20,-100 0,-10 10,-60 10,-70 0,-40 10,-30 10,-50l40 -180c10,-20 10,-40 20,-60l20 -50c0,-10 0,-10 10,-10 0,-20 0,-20 10,-40 20,-30 0,-30 30,-90 10,-10 10,-10 20,-30 10,-20 10,-30 20,-40 0,-10 0,-10 10,-20l30 -50c0,-20 0,-30 10,-40 10,-10 20,-20 20,-40 30,-40 50,-70 70,-110l90 -120c10,-20 0,-10 20,-30l80 -100c10,-10 10,-10 20,-30 30,-20 20,-10 60,-50 10,-10 10,-20 30,-30l140 -130 280 -200c10,0 10,0 20,-10 10,0 20,-10 30,-10 20,-10 20,-20 40,-20l50 -30c0,0 0,0 10,0 0,-10 10,-10 20,-10 10,0 20,-10 30,-20 40,-20 80,-30 120,-50 30,-10 60,-10 90,-20l70 -30c40,-10 150,-40 190,-50 20,0 30,0 50,0 20,-10 20,-10 50,-10 20,0 30,0 50,0 30,0 20,-10 40,-10 49.99,-10 249.99,-10 299.99,-10l0 -40c-90,0 -180,-20 -279.99,-10 -30,10 -60,10 -90,10 -10,-10 -10,0 0,-10 -20,-10 -210,30 -230,30 -20,10 -20,10 -30,10 -20,0 -10,0 -30,10l-120 40c-30,0 0,-10 -20,10 -20,0 -10,0 -20,0l-50 20c-30,10 -50,10 -70,20 -40,20 -40,20 -70,30 -30,10 -60,30 -80,40 0,0 0,0 -10,0l-20 10c-10,10 -10,10 -20,10 -20,20 -40,20 -60,30 -20,20 -110,60 -120,70z"/>
   <path class="fil3" d="M558.78 2411.26l-10 10c20,0 10,0 20,0 10,0 10,0 10,10 -10,20 -10,0 -10,20l-10 90c10,20 10,29.99 10,59.99 0,20 0,30 0,60 10,50 0,20 20,100 0,20 10,30 10,50l40 0c-10,-50 0,-30 -20,-90 -10,-40 0,-70 -10,-90 -10,-50 20,-169.99 10,-199.99 -10,-40 10,-110 20,-150 0,-20 -10,-40 0,-50 0,-20 10,-10 10,-40 0,-20 0,-30 10,-50 0,-30 20,-50 20,-80 0,-20 0,-40 10,-50 10,-30 10,-30 30,-80l10 -40c0,-20 -10,-10 0,-20 10,-10 10,-10 10,-20 20,-60 20,-30 30,-80 0,-10 10,-30 10,-40 10,-40 100,-180 120,-210 0,-20 0,-30 10,-40 10,-10 30,-20 30,-30 -10,-20 10,-30 20,-50 0,-10 30,-50 40,-50 40,-50 10,-20 40,-60l30 -50c20,-20 30,-30 50,-50 60,-30 40,-50 60,-70l60 -70c20,-10 40,-30 50,-40 10,-10 20,-10 30,-20 20,-20 0,0 20,-30 10,-20 90,-80 120,-100 10,0 10,-10 10,-10 30,-30 110,-70 130,-80l50 -40c10,-10 20,0 30,-10 40,-30 100,-50 110,-60 10,-10 -10,0 0,-10l20 -10c60,-20 30,-20 80,-40l60 -20c20,-10 30,-10 40,-10l160 -60c80,-20 50,-10 120,-20 20,0 20,-10 40,-10 20,-10 50,-10 70,-10 80,-20 100,-20 169.99,-30 100,-10 160,0 250,0l0 -10c-40,0 -289.99,-10 -319.99,0 -20,0 -30,10 -50,10 -40,0 -70,0 -110,10 -40,10 -80,20 -110,20 -20,10 -20,10 -30,10 -20,0 -10,0 -30,10 -10,0 -40,10 -90,20 -20,10 -30,10 -50,20 -20,10 -30,10 -50,20 -30,0 -100,40 -140,50 -70,30 -60,40 -120,70 -60,30 -110,60 -160,100 -40,20 -30,10 -80,50 -10,10 -20,20 -30,30 -50,30 -110,100 -140,110 -20,20 -170,170 -190,200 -10,10 -20,20 -30,30l-130 190c-20,30 -30,50 -50,80 -10,20 -20,30 -30,50 0,0 0,10 -10,20 0,0 -10,10 -10,20 -10,10 -20,20 -20,30 -10,20 -20,30 -30,50 -10,40 -20,60 -30,90 -10,10 -20,30 -20,40 -10,10 -20,40 -20,50 -10,10 0,10 -10,20 0,10 -10,20 -10,30 -10,30 -10,50 -30,90l-30 110c0,10 0,20 0,20 0,20 0,20 0,30 -10,10 -20,40 -20,50 0,20 0,40 -10,50 -10,40 -10,70 -10,120 -10,10 -20,10 -20,30l-10 40c-10,10 0,0 -10,10z"/>
   <path class="fil4" d="M1568.77 601.27c0,10 -80,50 -90,60 -60,30 -220,160 -280,200 -50,50 -100,110 -150,160 -80,100 -190,260 -250,380 -30,80 -60,150 -90,220 -50,120 -70,250 -120,360 0,20 -20,40 -20,50 -20,20 -40,10 -70,20 -10,10 -10,20 -10,40 10,0 10,-10 20,-20 10,-20 20,10 50,10 10,-20 30,-10 40,-30 10,-20 10,-30 20,-50l40 -150c20,-80 40,-130 70,-200l50 -140c10,-10 20,-30 20,-40 10,-40 50,-110 70,-140 0,-10 0,-20 10,-30 30,-60 40,-60 80,-120 50,-80 110,-150 180,-210l70 -80 180 -140c10,-10 90,-60 90,-70 10,-10 100,-50 120,-70 20,-10 40,-10 60,-30 10,0 10,0 20,-10l20 -10c10,0 10,0 10,0 20,-10 50,-30 80,-40 30,-10 30,-10 70,-30 20,-10 40,-10 70,-20l50 -20c10,0 0,0 20,0 20,-20 -10,-10 20,-10l120 -40c20,-10 10,-10 30,-10 10,0 10,0 30,-10 20,0 210,-40 230,-30 30,0 40,-10 70,-10 20,-10 49.99,-10 49.99,-20 -59.99,-10 -219.99,10 -289.99,20 -60,10 -130,30 -190,50 -20,0 -30,10 -60,20 -40,10 -180,70 -230,90l-210 100z"/>
   <path class="fil5" d="M558.78 2411.26c10,-10 0,0 10,-10l10 -40c0,-20 10,-20 20,-30 0,-50 0,-80 10,-120 10,-10 10,-30 10,-50 0,-10 10,-40 20,-50 0,-10 0,-10 0,-30 0,0 0,-10 0,-20l30 -110c20,-40 20,-60 30,-90 0,-10 10,-20 10,-30 10,-10 0,-10 10,-20 0,-10 10,-40 20,-50 0,-10 10,-30 20,-40 10,-30 20,-50 30,-90 10,-20 20,-30 30,-50 0,-10 10,-20 20,-30 0,-10 10,-20 10,-20 10,-10 10,-20 10,-20 10,-20 20,-30 30,-50 20,-30 30,-50 50,-80l130 -190c10,-10 20,-20 30,-30 20,-30 170,-180 190,-200 30,-10 90,-80 140,-110 10,-10 20,-20 30,-30 50,-40 40,-30 80,-50 50,-40 100,-70 160,-100 60,-30 50,-40 120,-70 40,-10 110,-50 140,-50 20,-10 30,-10 50,-20 20,-10 30,-10 50,-20 50,-10 80,-20 90,-20 20,-10 10,-10 30,-10 10,0 10,0 30,-10 30,0 70,-10 110,-20 40,-10 70,-10 110,-10 20,0 30,-10 50,-10 30,-10 279.99,0 319.99,0l0 -30c-50,0 -250,0 -299.99,10 -20,0 -10,10 -40,10 -20,0 -30,0 -50,0 -30,0 -30,0 -50,10 -20,0 -30,0 -50,0 -40,10 -150,40 -190,50l-70 30c-30,10 -60,10 -90,20 -40,20 -80,30 -120,50 -10,10 -20,20 -30,20 -10,0 -20,0 -20,10 -10,0 -10,0 -10,0l-50 30c-20,0 -20,10 -40,20 -10,0 -20,10 -30,10 -10,10 -10,10 -20,10l-280 200 -140 130c-20,10 -20,20 -30,30 -40,40 -30,30 -60,50 -10,20 -10,20 -20,30l-80 100c-20,20 -10,10 -20,30l-90 120c-20,40 -40,70 -70,110 0,20 -10,30 -20,40 -10,10 -10,20 -10,40l-30 50c-10,10 -10,10 -10,20 -10,10 -10,20 -20,40 -10,20 -10,20 -20,30 -30,60 -10,60 -30,90 -10,20 -10,20 -10,40 -10,0 -10,0 -10,10l-20 50c-10,20 -10,40 -20,60l-40 180c0,20 -10,10 -10,50 0,10 -10,60 -10,70 -10,30 0,40 -20,100l-10 60z"/>
   <path class="fil6" d="M468.78 2811.25l20 0 -20 -180c0,-40 -10,-60 -10,-89.99 0,-40 0,-170 0,-200l20 -90c0,-20 0,-20 0,-40 10,-20 10,-20 20,-40l10 -100c-10,10 -10,20 -20,20 0,-20 0,-30 10,-40 30,-10 50,0 70,-20 0,-10 20,-30 20,-50 50,-110 70,-240 120,-360 30,-70 60,-140 90,-220 60,-120 170,-280 250,-380 50,-50 100,-110 150,-160 60,-40 220,-170 280,-200 10,-10 90,-50 90,-60 -20,0 -120,70 -140,80 -20,10 -40,30 -60,40 -10,10 -20,10 -30,20l-120 100c-40,30 -120,120 -160,150l-180 250c-40,50 -100,190 -130,240 -20,50 -40,100 -60,150 -30,70 -30,110 -50,160 -20,50 -30,120 -50,170 0,20 -20,60 -30,70 -30,20 -60,-10 -80,30l-30 180c-40,290 0,300 20,569.99z"/>
   <path class="fil1" d="M548.78 2421.26c10,30 0,30 -10,50 0,10 0,30 -10,40 0,30 0,69.99 0,99.99 0,40 0,70 10,110 0,30 10,60 10,90l50 0c0,-20 -10,-30 -10,-50 -20,-80 -10,-50 -20,-100 0,-30 0,-40 0,-60 0,-30 0,-39.99 -10,-59.99l10 -90c0,-20 0,0 10,-20 0,-10 0,-10 -10,-10 -10,0 0,0 -20,0z"/>
   <path class="fil7" d="M3458.75 2171.26c-20,10 -30,0 -30,-20 -10,-70 10,-110 30,-170 30,-80 40,-140 50,-230 40,20 40,170 40,230 -10,70 -40,100 -60,150 -10,10 -20,30 -30,40zm-659.99 -1719.99l0 420c30,-10 50,-30 100,-50 40,-10 80,-20 110,-40 70,-10 210,20 270,40 70,30 130,90 160,150 100,160 50,320 -40,470 -90,150 0,140 40,190 30,40 0,230 -10,280 -20,40 -50,120 -70,160 -20,30 -20,30 -40,30 -10,-60 80,-200 110,-330 10,-50 0,-50 -20,-80 -40,-50 -100,-100 -160,-110 -10,0 -20,0 -30,-10l-20 -10c30,-10 80,-60 100,-90 90,-120 80,-340 20,-440 -40,-70 -130,-130 -240,-140 -70,0 -110,10 -170,30 -50,20 -70,40 -110,70l0 700c50,10 100,0 150,0 20,10 50,10 60,20 30,20 30,0 60,-10 -10,20 -20,40 -30,60 -30,60 -30,110 -30,190 0,40 0,90 0,140 0,80 -20,70 -30,120 20,0 20,0 30,10 -70,10 -30,0 -120,20 -20,0 -70,20 -90,30l0 160c80,-10 130,-30 200,-70 60,-40 90,-70 130,-130 30,-60 60,-110 90,-180 30,-120 20,-190 30,-220l0 -10c20,40 10,230 0,280 -10,90 -70,170 -110,250 -60,110 -220,170 -340,160l0 69.99 70 60c30,20 50,30 80,50 50,30 90,80 130,120l80 0c-10,-190 -80,-230 -80,-369.99 10,0 10,10 20,30 60,90 110,249.99 140,339.99l300 0c-30,-100 -120,-190 -110,-299.99 20,-120 140,-300 180,-390l30 -90c0,0 0,-10 0,-10l10 -10c0,0 0,0 0,0 0,190 -50,270 -110,410 -30,80 -50,110 -30,209.99 30,80 60,120 90,180l310 0c20,-20 120,-80 180,-170 50,-79.99 60,-189.99 20,-279.99 -40,-90 -100,-140 -170,-190 -50,-30 -180,-100 -210,-140 50,0 220,80 260,100 80,40 160,100 200,160 20,40 30,90 50,130 30,90 -50,259.99 -100,339.99 -20,20 -30,30 -40,50l300 0 20 -140c0,-10 10,-40 20,-50 0,-20 10,-40 10,-59.99 30,-130 20,-300 0,-430 -10,-80 -20,-190 -40,-260 -10,-40 -30,-100 -30,-130 0,0 0,0 10,0l0 10c10,0 40,90 40,110l30 90c0,10 0,20 0,30 0,40 0,0 10,70 0,40 20,130 20,210 0,40 10,280 0,300 0,19.99 0,9.99 -10,29.99 0,40 -10,70 -30,90 -20,20 -10,90 -20,130l280 0c-10,-80 0,-170 0,-259.99 0,-80 -20,-30 -20,-110l-10 -180 -30 -170c0,-20 0,-30 -10,-60 0,-10 -10,-30 -10,-50 -10,-40 -40,-150 -60,-200 0,-10 -10,-30 -10,-50 -20,-30 -50,-110 -60,-140 -10,-20 -70,-140 -90,-170 0,-10 -10,-20 -20,-40l-100 -160c-10,-10 -20,-20 -30,-30 -20,20 -10,10 -20,10 0,-10 -10,-20 -20,-30 -20,-30 -30,-40 -50,-70 -20,-20 -10,0 -40,-40l-40 -40c-20,-10 -20,-20 -30,-30 -20,-10 -10,0 -20,-10 0,-10 -10,-10 -10,-10 -40,-40 -30,-30 -40,-50 -10,0 -20,-10 -20,-10l-130 -90c-20,-20 -40,-30 -60,-50 -10,-10 -20,-10 -40,-20 -40,-30 -10,-30 -100,-60l-110 -60c-10,0 -20,-10 -20,-10 -30,-20 -70,-30 -100,-40 -40,-10 -20,-20 -80,-30 -30,-10 -50,-20 -90,-30 -60,-10 -60,-20 -80,-20 -30,-10 -60,-10 -90,-20 -50,0 -70,-10 -90,-20 -60,-10 -120,0 -180,-10zm270 899.99c20,-50 140,-80 140,40 0,40 -30,70 -50,90 -10,10 -60,40 -90,20 0,-10 0,-10 10,-10 10,0 20,0 20,-10 70,-20 80,-110 40,-140 -20,-20 -50,0 -70,10z"/>
   <path class="fil1" d="M1608.77 4221.24c20,0 50,20 70,30 20,10 50,10 70,30 80,40 190,70 280,100 110,40 240,40 320,80 50,20 90,40 160,40 59.99,0 119.99,-10 179.99,-20 30,0 50,-10 90,-10 20,0 70,-10 70,20 -10,10 -70,10 -90,10l-80 10c-70,10 -110,20 -189.99,10 -40,0 -90,-30 -140,-40 -40,-20 -180,-40 -250,-50l-230 -80c-50,-10 -90,-40 -130,-60 -30,-10 -40,-10 -70,-30l-40 -30c-20,-10 -10,0 -20,-10zm1339.99 -1419.99l-979.99 0c10,290 270,620 280,960 0,80 10,120 -10,190 0,30 -20,170 -30,180 -10,-10 -10,-170 -10,-200 0,-60 -10,-120 -20,-180 -90,-340 -280,-490 -270,-860l20 -90 -160 0 -30 100c-20,110 0,220 40,320 70,160 190,240 200,280 -40,0 -140,-80 -170,-100 -50,-30 -90,-80 -130,-140 -40,-60 -50,-120 -50,-210 0,-170 0,-110 20,-250l-370 0c0,120 10,250 40,370 0,10 0,10 0,20 0,10 0,20 0,30 50,280 100,450 290,650l80 80c40,30 70,50 110,70 20,20 50,30 70,50 -70,0 -280,-120 -340,-170 -30,-20 -50,-30 -70,-50 -70,-60 -120,-140 -170,-220 -130,-250 -150,-510 -190,-830l-460 0c0,80 50,260 80,320l20 30c10,20 0,30 10,60 10,10 20,40 20,50 0,0 0,0 0,0 -10,0 -10,-10 -10,-10 -10,-10 -20,-20 -20,-30l-10 -20c0,0 0,0 0,-10 -20,-20 -20,-50 -40,-80 -10,-10 -10,-10 -10,-30 0,-10 -10,-20 -10,-30l-40 -120c-10,-30 -30,-90 -30,-130l-50 0 10 30c0,40 10,60 20,100 10,10 20,60 20,70l10 70c10,40 30,90 40,130 0,10 10,50 20,60 0,10 0,20 10,30 20,80 0,40 50,120l40 80c20,30 20,30 20,60 -10,40 110,170 120,210l-20 -10 -10 20 -10 -10c-20,-20 -20,-30 -40,-50 -60,-80 -70,-110 -120,-200 -20,-50 -50,-90 -70,-140 -20,-40 -60,-110 -70,-150 -10,10 -10,-10 -10,10 -20,-20 -30,-60 -40,-90 -10,-20 -10,-40 -10,-60 0,-20 10,-30 10,-50 0,-30 -40,-180 -50,-230l-110 0 60 270c0,20 10,30 10,50 10,40 20,70 30,110 10,50 60,140 80,190 20,30 50,80 80,120l30 40c10,10 20,20 30,30 10,20 20,30 20,40 90,120 90,120 180,230 30,30 200,180 250,220 10,10 20,30 40,30 0,-20 -10,-20 -20,-40 -50,-70 -90,-100 -140,-160 -20,-20 -50,-50 -60,-70 40,10 150,130 200,170 10,10 20,30 30,40 20,10 30,20 40,30 20,20 30,20 40,40l150 110 180 120c20,20 0,30 0,30 -30,30 -360,-160 -390,-190 -90,-50 -90,-50 -170,-120 -40,-30 -130,-140 -150,-150 -10,10 0,0 0,10 0,0 0,0 0,10 -50,10 -140,-120 -170,-160l-60 -100c-20,-30 -60,-80 -80,-90 0,40 60,130 90,160l210 230c0,-10 0,0 0,-10l260 230c10,10 10,10 20,20 50,50 80,50 120,100l60 30c30,20 30,20 80,50 90,60 190,110 290,150 40,10 90,40 130,50 110,30 120,20 210,50 30,0 50,0 80,10 40,20 90,20 140,30 20,0 50,20 70,20 130,30 359.99,30 489.99,10l90 -10c30,-20 -120,0 -130,0 -70,10 -259.99,10 -319.99,0 -30,0 -130,-20 -140,-30l10 0 30 0c0,-20 -10,-10 0,-20 100,-10 199.99,0 299.99,-10 80,-10 130,-10 200,-30 10,-10 40,-20 50,-10 10,0 0,0 10,10 0,0 70,-20 90,-20 20,0 20,-10 40,-10 30,0 30,-10 50,-10l0 -90c-70,10 -70,30 -150,30 -20,0 -40,0 -40,-20 10,-10 70,-10 90,-10 30,0 70,-10 100,-20l0 -230c-30,0 -70,10 -100,20 -120,30 -190,40 -320,50 -70,10 -419.99,30 -469.99,10 100,-10 310,-10 359.99,-10 10,0 30,-10 50,-10 20,0 40,0 60,-10l110 -10c30,-10 70,-10 110,-20 30,0 70,-10 100,-20l50 -10c10,0 0,-10 50,-20l0 -100c-20,20 -20,50 -50,60 10,-50 30,-280 30,-320 -10,-40 -20,-70 -20,-100l40 -20 0 -240c-90,-20 -360,-170 -440,-230 -30,-20 -110,-60 -129.99,-100 199.99,-40 379.99,100 539.99,180 10,10 20,20 30,20l0 -440c-20,-10 -30,-20 -40,-30l-110 -110z"/>
   <path class="fil8" d="M868.77 4001.24c20,30 60,70 90,90l90 90c60,50 170,150 240,200l110 70c20,20 40,30 60,40 50,30 180,90 240,120 90,30 110,40 190,70 10,0 70,10 80,10 50,0 100,20 150,30 30,10 110,20 150,30 10,0 10,0 30,10l130 10c119.99,10 219.99,10 339.99,0 20,0 120,-10 140,-40l-90 10c-130,20 -359.99,20 -489.99,-10 -20,0 -50,-20 -70,-20 -50,-10 -100,-10 -140,-30 -30,-10 -50,-10 -80,-10 -90,-30 -100,-20 -210,-50 -40,-10 -90,-40 -130,-50 -100,-40 -200,-90 -290,-150 -50,-30 -50,-30 -80,-50l-60 -30c-40,-50 -70,-50 -120,-100 -10,-10 -10,-10 -20,-20l-260 -230c0,10 0,0 0,10z"/>
   <path class="fil2" d="M1608.77 4221.24c10,10 0,0 20,10l40 30c30,20 40,20 70,30 40,20 80,50 130,60l230 80c70,10 210,30 250,50 50,10 100,40 140,40 79.99,10 119.99,0 189.99,-10l80 -10c20,0 80,0 90,-10 0,-30 -50,-20 -70,-20 -40,0 -60,10 -90,10 -60,10 -120,20 -179.99,20 -70,0 -110,-20 -160,-40 -80,-40 -210,-40 -320,-80 -90,-30 -200,-60 -280,-100 -20,-20 -50,-20 -70,-30 -20,-10 -50,-30 -70,-30z"/>
   <path class="fil3" d="M598.78 2801.25c0,40 20,100 30,130l40 120c0,10 10,20 10,30 0,20 0,20 10,30 20,30 20,60 40,80 0,10 0,10 0,10l10 20c0,10 10,20 20,30 0,0 0,10 10,10 0,0 0,0 0,0 0,-10 -10,-40 -20,-50 -10,-30 0,-40 -10,-60l-20 -30c-30,-60 -80,-240 -80,-320l-40 0z"/>
   <path class="fil9" d="M568.78 3221.25c-10,-10 -50,-130 -30,-140 10,-10 -10,0 10,10 10,-20 -30,-140 -30,-180 -10,-10 -10,-10 -10,-30 -10,-40 -20,-40 -20,-80l-20 0c10,50 50,200 50,230 0,20 -10,30 -10,50 0,20 0,40 10,60 10,30 20,70 40,90 0,-20 0,0 10,-10z"/>
   <path class="fil1" d="M1768.77 2811.25l160 0c0,-40 20,-120 50,-140 -10,50 -20,90 -10,140l829.99 0 0 -120 -50 -30c-50,-30 -110,-60 -170,-80 -179.99,-39.99 -249.99,20 -299.99,20 20,-30 70,-59.99 110,-79.99 40,-20 80,-30 149.99,-30 150,0 200,70 260,99.99l0 -79.99c-40,-10 -240,-40 -260,-50 10,0 0,0 10,0 10,0 -10,0 10,0 0,0 10,0 20,0 10,0 20,0 30,0 90,-10 110,-20 190,-30l0 -160c-70,30 -120,90 -230,70 -39.99,-10 -69.99,-30 -129.99,-20 -40,10 -80,40 -110,50 30,-50 80,-70 100,-100 20,-20 20,-30 10,-60 -20,-170 -30,-160 109.99,-260 20,-20 50,-40 70,-60 70,-70 -10,-120 -60,-150 10,-40 40,-70 -39.99,-70 0,-30 39.99,-20 29.99,-70 -139.99,-40 -79.99,-50 -79.99,-150 -40,-10 -50,-10 -100,-10 -40,0 -80,-10 -90,30l30 10c-10,10 -20,10 -30,10 -10,0 -20,0 -30,10 -20,0 -40,10 -60,10 0,-20 40,-80 40,-100 10,-30 -130,-180 -230,-200l50 200c50,220 50,470 0,680 -30,90 -100,280 -140,370 -20,50 -90,199.99 -110,259.99 -10,30 -30,60 -30,90z"/>
   <path class="fil1" d="M2798.76 981.27c-40,30 -90,90 -110,140 -20,60 -10,150 0,220 20,0 60,-20 70,10 -10,10 -40,20 -50,20l10 -10 -40 -10c-10,30 -30,70 -40,100 10,20 30,40 40,50 0,10 -30,60 20,60 10,0 20,0 30,0 0,20 -20,20 -20,50 20,10 40,10 50,20 20,10 10,30 10,60l30 0 0 -710z"/>
   <path class="fil5" d="M2798.76 431.27l330 40 30 30c20,0 20,10 80,20 40,10 60,20 90,30 60,10 40,20 80,30 30,10 70,20 100,40 0,0 10,10 20,10l110 60c90,30 60,30 100,60 20,10 30,10 40,20 20,20 40,30 60,50l130 90c0,0 10,10 20,10 10,20 0,10 40,50 0,0 10,0 10,10 10,10 0,0 20,10 10,10 10,20 30,30l40 40c30,40 20,20 40,40 20,30 30,40 50,70 10,10 20,20 20,30 10,0 0,10 20,-10 -50,-70 -130,-160 -190,-220 -40,-40 -70,-70 -110,-100 -30,-30 -140,-120 -170,-140 -20,-20 -40,-30 -60,-40 -30,-20 -20,-10 -70,-40 -20,-10 -40,-30 -60,-40 -80,-50 -190,-110 -290,-140l10 20c20,0 20,10 50,10 0,10 0,20 -40,10 -20,0 -20,0 -30,-20l-120 -30c-40,-10 -80,-20 -120,-20 -40,0 10,0 -60,-10 -30,0 -50,-10 -70,-10 -70,0 -30,-10 -70,-10l-60 -10 0 30z"/>
   <path class="fil10" d="M2798.76 2191.26l70 -20c60,-60 50,-120 50,-220 -10,-170 60,-160 70,-210 -60,-10 -130,0 -190,-10l0 460z"/>
   <path class="fil11" d="M2798.76 401.27l60 10c40,0 0,10 70,10 20,0 40,10 70,10 70,10 20,10 60,10 40,0 80,10 120,20l120 30c10,20 10,20 30,20 40,10 40,0 40,-10 -30,0 -30,-10 -50,-10l-10 -20c-10,0 -90,-30 -110,-30l-160 -50c-10,0 -20,0 -30,0 -30,-10 -60,-10 -70,-20 -30,0 -50,0 -70,0 -40,-10 -40,-10 -70,-10l0 40z"/>
   <path class="fil10" d="M2798.76 2811.25l150 0c-20,-20 -120,-100 -150,-120l0 120z"/>
   <path class="fil12" d="M2798.76 451.27c60,10 120,0 180,10 20,10 40,20 90,20 30,10 60,10 90,20l-30 -30 -330 -40 0 20z"/>
   <circle class="fil7" cx="2638.77" cy="2471.26" r="1979.99"/>
   <path class="fil13" d="M1458.77 2251.26c-10,-220 10,-460 60,-660 30,-120 90,-290 180,-370 10,-20 80,-70 90,-80 -80,10 -130,30 -180,60 -50,40 -90,80 -120,130 -70,90 -120,260 -120,400l0 120c0,80 40,360 90,400z"/>
   <path class="fil13" d="M2798.76 1691.26l-30 0c0,-30 10,-50 -10,-60 -10,-10 -30,-10 -50,-20 0,-30 20,-30 20,-50 -10,0 -20,0 -30,0 -50,0 -20,-50 -20,-60 -10,-10 -30,-30 -40,-50 10,-30 30,-70 40,-100l40 10 -10 10c10,0 40,-10 50,-20 -10,-30 -50,-10 -70,-10 -10,-70 -20,-160 0,-220 20,-50 70,-110 110,-140l0 0c40,-20 70,-40 110,-60 60,-20 100,-30 170,-30 110,10 190,70 240,140 60,100 70,320 -20,440 -20,30 -70,80 -100,90l20 10c10,10 20,10 30,10 60,10 120,60 160,110 20,30 30,30 20,80 -30,130 -120,270 -110,330 20,0 20,0 40,-30 20,-40 50,-120 70,-160 10,-50 40,-240 10,-280 -40,-50 -130,-40 -40,-190 90,-150 140,-310 40,-470 0,-10 -20,-30 -30,-50 0,0 -10,-10 -20,-10 0,0 0,-10 0,-10 -40,-30 -50,-50 -110,-80 -150,-60 -240,-40 -380,0 -50,20 -70,40 -100,50l0 10c-80,40 -160,140 -190,240 0,30 0,70 0,100 0,40 20,60 20,90 20,60 -60,90 -40,160 10,20 30,10 40,30 10,30 -10,30 -10,60 10,20 40,20 60,20 -10,30 -10,-10 -20,20 0,10 10,20 20,30 0,10 30,10 40,20 0,40 -10,50 20,70 20,10 40,10 60,20l0 0c60,0 130,-10 190,0 -10,50 -80,40 -70,210 0,100 10,160 -50,220l-70 20 0 0 0 0 0 0 0 0c-40,20 -80,50 -120,70 -50,20 -100,20 -159.99,10 0,-40 0,-60 0,-110 -10,-30 -10,-70 0,-100 49.99,-130 389.99,-210 109.99,-340 0,-30 20,-20 10,-60 0,-10 -30,-10 -40,-20 10,-20 20,-20 20,-40 0,-70 -70,-30 -89.99,-50 -20,-40 49.99,-120 -10,-140 -40,-20 -110,-20 -150,-30 -10,-20 0,-40 0,-60 -10,0 -30,20 -50,30 -20,0 -50,-40 -70,-60 -100,-130 -150,-100 -270,-120 -20,-30 -40,-60 -90,-50 -130,10 -30,250 -10,310 30,130 40,360 20,510 -50,290 -100,410 -180,649.99 -20,70 -50,150 -60,210l-10 0c-20,160 -60,320 30,460 40,60 80,110 130,140 30,20 130,100 170,100 -10,-40 -130,-120 -200,-280 -40,-100 -60,-210 -40,-320l30 -90 0 0c0,-30 20,-60 30,-90 20,-60 90,-209.99 110,-259.99 40,-90 110,-280 140,-370 50,-210 50,-460 0,-680l-50 -200c100,20 240,170 230,200 0,20 -40,80 -40,100 20,0 40,-10 60,-10 10,-10 20,-10 30,-10 10,0 20,0 30,-10l-30 -10c10,-40 50,-30 90,-30 50,0 60,0 100,10 0,100 -60,110 79.99,150 10,50 -29.99,40 -29.99,70 79.99,0 49.99,30 39.99,70 50,30 130,80 60,150 -20,20 -50,40 -70,60 -139.99,100 -129.99,90 -109.99,260 10,30 10,40 -10,60 -20,30 -70,50 -100,100 30,-10 70,-40 110,-50 60,-10 90,10 129.99,20 110,20 160,-40 230,-70l0 0c30,-10 70,-30 90,-30 90,-20 50,-10 120,-20 -10,-10 -10,-10 -30,-10 10,-50 30,-40 30,-120 0,-50 0,-100 0,-140 0,-80 0,-130 30,-190 10,-20 20,-40 30,-60 -30,10 -30,30 -60,10 -10,-10 -40,-10 -60,-20 -50,0 -100,10 -150,0l0 0zm270 -340c20,-10 50,-30 70,-10 40,30 30,120 -40,140 0,10 -10,10 -20,10 -10,0 -10,0 -10,10 30,20 80,-10 90,-20 20,-20 50,-50 50,-90 0,-120 -120,-90 -140,-40z"/>
   <path class="fil13" d="M2798.76 2431.26c-80,10 -100,20 -190,30 -10,0 -20,0 -30,0 -10,0 -20,0 -20,0 -20,0 0,0 -10,0 -10,0 0,0 -10,0 20,10 200,40 260,50l0 0 0 0 0 0 0 0c130,10 280,-50 340,-160 40,-80 100,-160 110,-250 10,-50 20,-240 0,-280l0 10c-10,30 0,100 -30,220 -30,70 -60,120 -90,180 -40,60 -70,90 -130,130 -70,40 -120,60 -200,70l0 0z"/>
   <path class="fil13" d="M3458.75 2171.26c10,-10 20,-30 30,-40 20,-50 50,-80 60,-150 0,-60 0,-210 -40,-230 -10,90 -20,150 -50,230 -20,60 -40,100 -30,170 0,20 10,30 30,20z"/>
   <path class="fil13" d="M1098.77 2801.25c40,320 60,580 190,830 50,80 100,160 170,220 20,20 40,30 70,50 60,50 270,170 340,170 -20,-20 -50,-30 -70,-50 -40,-20 -70,-40 -110,-70l-80 -80c-250,-260 -330,-710 -330,-1060l0 0c0,-200 -20,-379.99 -50,-569.99 -40,-260 -150,-510 0,-790 90,-170 260,-280 440,-340 50,-10 120,-20 130,-20 0,0 0,0 0,0 -20,-10 -150,-10 -160,-10 -140,0 -280,50 -400,120 -110,70 -250,230 -280,410 -10,40 -30,110 -30,150 -10,140 50,310 80,450 50,250 60,340 90,589.99l0 0z"/>
   <path class="fil13" d="M1928.77 2801.25l-20 90c-10,370 180,520 270,860 10,60 20,120 20,180 0,30 0,190 10,200 10,-10 30,-150 30,-180 20,-70 10,-110 10,-190 -10,-330 -270,-660 -280,-950l0 0c-10,-50 0,-90 10,-140 -20,20 -40,90 -50,130l0 0z"/>
   <path class="fil13" d="M2538.76 2491.26c-69.99,0 -109.99,10 -149.99,30 -40,20 -90,49.99 -110,79.99 50,0 120,-59.99 299.99,-20 60,20 120,50 170,80 90,50 300,220 340,280 20,0 30,30 50,50 80,70 300,300 370,320 -10,-40 -110,-160 -160,-230 -110,-200 -140,-430 -250,-609.99 -10,-20 -10,-30 -20,-30 0,90 80,319.99 100,469.99 -10,-10 -40,-30 -50,-50 -60,-60 -120,-130 -180,-170 -30,-20 -50,-30 -80,-50 -110,-79.99 -180,-149.99 -330,-149.99z"/>
   <path class="fil13" d="M3538.75 2811.25l0 0 40 80c20,30 30,50 40,80 60,130 220,460 160,580 -50,130 -260,50 -370,10 -60,-30 -110,-60 -160,-90l-150 -90 0 0c-10,0 -20,-10 -30,-20 -160,-80 -340,-220 -539.99,-180 19.99,40 99.99,80 129.99,100 80,50 330,200 430,230l0 0c20,10 50,30 60,40 20,20 20,40 20,80 0,50 -40,100 -80,120l0 0 -30 20c0,30 10,60 20,100 0,40 -20,270 -30,320 30,-10 30,-40 50,-60l0 -10c20,-50 60,-160 60,-200 10,-40 0,-70 10,-110 90,-50 130,-70 150,-190 40,10 130,60 170,70 60,20 140,40 200,40 120,10 130,10 170,-70 30,-60 50,-130 50,-200 -10,-220 -230,-490 -320,-660l0 0c-20,-50 -60,-100 -80,-170 -20,-99.99 0,-129.99 30,-209.99 60,-140 110,-220 110,-410 0,0 0,0 0,0l-10 10c0,0 0,10 0,10l-30 90c-40,90 -160,270 -180,390 -10,109.99 80,199.99 110,299.99z"/>
   <path class="fil13" d="M4138.75 2761.25c100,-140 140,-309.99 50,-469.99 -40,-60 -120,-120 -200,-160 -40,-20 -210,-100 -260,-100 30,40 160,110 210,140 70,50 130,100 170,190 40,90 30,200 -20,279.99 -20,20 -290,260 -290,270l90 130c60,90 120,190 130,300 10,70 -10,120 -10,190 10,-10 10,-20 20,-30 0,-10 10,-20 10,-30 70,-150 70,-270 0,-410 -50,-120 -70,-100 -80,-120 10,-20 0,-10 20,-20 10,0 10,-10 20,-10 10,-10 20,-20 30,-30 40,-40 80,-80 110,-120z"/>
   <path class="fil14" d="M3098.76 4261.24l0 -10c100,-20 180,-30 280,-40 80,-10 180,-50 240,-90l210 -130c60,-40 220,-170 280,-230 10,-20 20,-30 30,-40 50,-60 180,-270 210,-300 40,-50 100,-130 140,-190 10,-20 20,-40 30,-60 10,-20 60,-100 50,-110 -10,0 -10,10 -20,20 0,20 0,20 -10,30 -30,50 -60,110 -100,150l-70 90c-10,20 -20,30 -30,50 -70,90 -110,170 -170,250 -30,40 -110,110 -140,150 -10,10 -10,10 -20,20 -10,10 -10,10 -20,20l-70 60c-80,60 -110,80 -200,140 -30,20 -70,40 -100,60 -60,30 -150,70 -210,80 -10,0 -20,0 -30,10l-110 10c-50,10 -40,0 -110,20l-70 20 0 0c-40,0 -30,10 -40,10l-50 10c-30,10 -70,20 -100,20 -40,10 -80,10 -110,20l-110 10c-20,10 -40,10 -60,10 -20,0 -40,10 -50,10 -49.99,0 -259.99,0 -359.99,10 50,20 399.99,0 469.99,-10 130,-10 200,-20 320,-50 30,-10 70,-20 100,-20z"/>
   <path class="fil15" d="M2328.77 4701.24c40,-10 120,0 160,0 69.99,0 239.99,0 299.99,-20 20,0 20,0 40,0 20,-10 70,-20 90,-40 -10,-10 0,-10 -10,-10 -10,-10 -40,0 -50,10 -70,20 -120,20 -200,30 -100,10 -199.99,0 -299.99,10 -10,10 0,0 0,20l-30 0z"/>
   <path class="fil16" d="M3098.76 4511.24l0 -20c-30,10 -70,20 -100,20 -20,0 -80,0 -90,10 0,20 20,20 40,20 80,0 80,-20 150,-30z"/>
   <path class="fil7" d="M3088.76 4241.24l70 -20c70,-20 60,-10 110,-20l110 -10c10,-10 20,-10 30,-10 60,-10 150,-50 210,-80 30,-20 70,-40 100,-60 90,-60 120,-80 200,-140l70 -60c10,-10 10,-10 20,-20 10,-10 10,-10 20,-20 30,-40 110,-110 140,-150 60,-80 100,-160 170,-250 10,-20 20,-30 30,-50l70 -90c40,-40 70,-100 100,-150 10,-10 10,-10 10,-30 10,-10 10,-20 20,-20 10,10 -40,90 -50,110 -10,20 -20,40 -30,60 -40,60 -100,140 -140,190 -30,30 -160,240 -210,300 -10,10 -20,20 -30,40 -60,60 -220,190 -280,230l-210 130c-60,40 -160,80 -240,90 -110,10 -190,20 -290,50l0 230c70,-10 220,-80 310,-110 60,-20 110,-20 170,-30 80,-20 170,-50 230,-90 20,-20 40,-30 60,-40 30,-20 100,-80 130,-90 40,-10 40,-10 70,-30 50,-40 210,-240 250,-280 50,-80 120,-170 170,-250 10,-10 10,-20 20,-30 10,-30 80,-150 90,-170l60 -150c50,-110 100,-300 120,-420l-50 0c0,10 0,10 -10,10 -10,0 0,0 -10,-10l-270 0 -20 100c-20,60 -10,80 -40,80 -10,-20 0,-20 0,-40 20,-30 30,-110 30,-140l-300 0c-20,20 -50,60 -70,80 -10,10 -20,20 -30,30 -10,0 -10,10 -20,10 -20,10 -10,0 -20,20 10,20 30,0 80,120 70,140 70,260 0,410 0,10 -10,20 -10,30 -10,10 -10,20 -20,30 0,-70 20,-120 10,-190 -10,-110 -70,-210 -130,-300l-90 -130c0,-20 90,-90 110,-110l-320 0c90,170 310,440 320,660 0,70 -20,140 -50,200 -40,80 -50,80 -170,70 -60,0 -140,-20 -200,-40 -40,-10 -130,-60 -170,-70 -20,120 -60,140 -150,190 -10,40 0,70 -10,110 0,40 -40,180 -70,220l0 100z"/>
   <path class="fil17" d="M3088.76 4511.24c40,0 50,-10 90,-20 70,-20 200,-80 250,-100 110,-30 150,0 290,-60 20,-10 50,-40 80,-40 0,0 0,0 0,-10 10,-10 40,-20 60,-30 10,-10 10,-10 20,-20 10,-10 10,-10 30,-20 10,-10 30,-20 40,-30 20,-10 30,-20 50,-40 20,0 10,10 30,10 20,-10 60,-50 70,-50l10 0c0,-20 120,-140 140,-160l100 -130c30,-50 100,-150 120,-170 0,-20 10,-40 20,-50 40,-50 100,-180 110,-190 40,-20 120,-300 140,-360 10,-20 20,-40 20,-80 0,-10 20,-60 20,-70 10,-20 0,-30 10,-40 10,-20 10,-20 10,-50l-30 0c-20,120 -70,310 -120,420l-60 150c-10,20 -80,140 -90,170 -10,10 -10,20 -20,30 -50,80 -120,170 -170,250 -40,40 -200,240 -250,280 -30,20 -30,20 -70,30 -30,10 -100,70 -130,90 -20,10 -40,20 -60,40 -60,40 -150,70 -230,90 -60,10 -110,10 -170,30 -90,30 -240,100 -310,110l0 20z"/>
   <path class="fil7" d="M3088.76 4601.24c70,0 210,-60 290,-90 30,-10 60,-20 90,-40 70,-30 180,-90 240,-130l80 -40c0,-10 0,-10 10,-10 -30,0 -60,30 -80,40 -140,60 -180,30 -290,60 -50,20 -180,80 -250,100 -40,10 -50,20 -90,20l0 90z"/>
   <path class="fil18" d="M4108.75 4101.24c20,-20 180,-210 210,-240l90 -130c10,-10 20,-20 30,-40l60 -90c20,-30 100,-180 100,-200 -10,10 -70,140 -110,190 -10,10 -20,30 -20,50 -20,20 -90,120 -120,170l-100 130c-20,20 -140,140 -140,160z"/>
   <path class="fil19" d="M3798.75 4281.24c30,-10 110,-60 130,-80l60 -40c30,-20 40,40 110,-60 -10,0 -50,40 -70,50 -20,0 -10,-10 -30,-10 -20,20 -30,30 -50,40 -10,10 -30,20 -40,30 -20,10 -20,10 -30,20 -10,10 -10,10 -20,20 -20,10 -50,20 -60,30z"/>
   <path class="fil1" d="M3098.76 2821.25l0 -20 -20 0c0,10 10,20 20,20z"/>
   <path class="fil7" d="M3088.76 3381.25l160 90c50,30 100,60 160,90 110,40 320,120 370,-10 60,-120 -100,-450 -160,-580 -10,-30 -20,-50 -40,-80l-40 -90 -310 0c20,70 90,220 120,280 50,70 150,190 160,230 -70,-20 -290,-250 -370,-320 -20,-20 -30,-40 -50,-50l0 440z"/>
   <path class="fil10" d="M3088.76 3751.25c40,-20 80,-70 80,-120 0,-40 0,-60 -20,-80 -10,-10 -40,-30 -60,-40l0 240z"/>
   <path class="fil10" d="M3088.76 2821.25l40 40c10,20 40,40 50,50l-20 -110 -70 0 0 20z"/>
   <path class="fil7" d="M4718.75 2811.25l50 0c50,-130 30,-419.99 40,-429.99 0,0 0,10 0,10 0,10 0,0 0,10l10 10c0,-150 -50,-360 -90,-500 -10,-20 -40,-130 -50,-150 0,10 10,50 10,70 20,50 30,120 50,170 0,30 0,50 10,70 0,20 0,40 0,70 0,20 10,40 10,60l10 220c10,50 0,90 0,140 -10,139.99 -10,129.99 -50,249.99z"/>
   <path class="fil20" d="M4398.75 2811.25l30 0c10,-40 0,-110 20,-130 20,-20 30,-50 30,-90 10,-20 10,-10 10,-29.99 10,-20 0,-260 0,-300 0,-80 -20,-170 -20,-210 -10,-70 -10,-30 -10,-70 0,-10 0,-20 0,-30l-30 -90c0,-20 -30,-110 -40,-110l0 -10c-10,0 -10,0 -10,0 0,30 20,90 30,130 20,70 30,180 40,260 20,130 30,300 0,430 0,19.99 -10,39.99 -10,59.99 -10,10 -20,40 -20,50l-20 140z"/>
   <path class="fil21" d="M4768.75 2811.25l30 0c0,-20 10,-30 10,-50 10,-60 20,-319.99 10,-349.99l-10 -10c0,-10 0,0 0,-10 0,0 0,-10 0,-10 -10,10 10,299.99 -40,429.99z"/>
   <path class="fil22" d="M4398.75 2801.25c0,30 -10,110 -30,140 0,20 -10,20 0,40 30,0 20,-20 40,-80l20 -100 -30 0z"/>
   <path class="fil23" d="M4698.75 2801.25c10,10 0,10 10,10 10,0 10,0 10,-10l-20 0z"/>
   <polygon class="fil24" points="11758.71,821.27 11968.71,821.27 11968.71,4201.24 11758.71,4201.24 "/>
   <polygon id="_1" class="fil24" points="13068.71,821.27 13268.71,821.27 12858.71,4201.24 12628.71,4201.24 12178.71,821.27 12388.71,821.27 12738.71,3591.25 12748.71,3591.25 "/>
   <polygon id="_2" class="fil24" points="13448.71,821.27 14128.7,821.27 14128.7,1041.27 13668.7,1041.27 13668.7,2271.26 14098.7,2271.26 14098.7,2501.26 13668.7,2501.26 13668.7,4201.24 13448.71,4201.24 "/>
   <line class="fil25 str0" x1="11238.72" y1="841.27" x2="11238.72" y2= "4251.24" />
   <path class="fil1 str1" d="M5588.75 841.27l4929.97 0c130,0 250,120 250,260l0 1989.98 -5429.97 0 0 -1989.98c0,-140 110,-260 250,-260z"/>
   <path class="fil0 str1" d="M5448.75 1981.26l5209.97 0c60.74,0.01 110,111.96 110,250.01l0 1749.97c0,138.04 -49.26,249.99 -110,249.99l-5209.97 0.01c-60.73,-0.01 -109.99,-111.96 -109.99,-250.01l-0.01 -1749.97c0.01,-138.04 49.27,-249.99 110.01,-249.99z"/>
   <path class="fil26" d="M5938.74 3281.25c-150,0 -260,160 -260,390 0,220 100,370 250,370 150,0 270,-130 270,-380 0,-210 -100,-380 -260,-380zm0 80c120,0 180,150 180,300 0,160 -60,300 -180,300 -120,0 -180,-130 -180,-300 0,-160 60,-300 180,-300z"/>
   <polygon id="_1_0" class="fil26" points="6288.74,4031.24 6358.74,4031.24 6358.74,3701.25 6568.74,3701.25 6568.74,3621.25 6358.74,3621.25 6358.74,3371.25 6588.74,3371.25 6588.74,3291.25 6288.74,3291.25 "/>
   <polygon id="_2_1" class="fil26" points="6868.74,3291.25 6868.74,4031.24 6948.74,4031.24 6948.74,3291.25 "/>
   <path id="_3" class="fil26" d="M7138.73 4031.24l0 -320c0,-120 0,-210 -10,-300l10 0c30,80 60,160 100,250l180 370 70 0 0 -740 -60 0 0 310c0,120 0,210 0,300l0 10c-20,-80 -60,-160 -100,-250l-180 -370 -80 0 0 740 70 0z"/>
   <path id="_4" class="fil26" d="M7688.74 4031.24l0 -320c0,-120 0,-210 -10,-300l10 0c20,80 60,160 100,250l180 370 70 0 0 -740 -70 0 0 310c0,120 10,210 10,300l0 10c-30,-80 -60,-160 -100,-250l-180 -370 -80 0 0 740 70 0z"/>
   <path id="_5" class="fil26" d="M8398.74 3281.25c-160,0 -260,160 -260,390 0,220 100,370 250,370 140,0 260,-130 260,-380 0,-210 -90,-380 -250,-380zm-10 80c130,0 180,150 180,300 0,160 -60,300 -180,300 -110,0 -180,-130 -180,-300 0,-160 70,-300 180,-300z"/>
   <path id="_6" class="fil26" d="M9118.73 3931.24c-30,20 -70,30 -120,30 -130,0 -210,-110 -210,-300 0,-190 90,-300 220,-300 40,0 80,10 110,30l20 -80c-20,-10 -70,-30 -140,-30 -170,0 -290,160 -290,390 0,240 120,370 280,370 70,0 120,-20 150,-30l-20 -80z"/>
   <polygon id="_7" class="fil26" points="9518.73,3601.25 9298.73,3601.25 9298.73,3371.25 9528.73,3371.25 9528.73,3291.25 9228.73,3291.25 9228.73,4031.24 9538.73,4031.24 9538.73,3951.24 9298.73,3951.24 9298.73,3681.25 9518.73,3681.25 "/>
   <path id="_8" class="fil26" d="M9708.73 4031.24l0 -320c0,-120 -10,-210 -10,-300l0 0c30,80 70,160 110,250l180 370 70 0 0 -740 -70 0 0 310c0,120 0,210 10,300l0 10c-30,-80 -60,-160 -100,-250l-180 -370 -80 0 0 740 70 0z"/>
   <path id="_9" class="fil26" d="M10158.73 3991.24c30,30 90,50 140,50 130,0 200,-100 200,-210 0,-110 -50,-170 -140,-220 -80,-40 -120,-70 -120,-140 0,-50 30,-110 110,-110 50,0 90,20 110,30l20 -70c-30,-20 -70,-40 -130,-40 -110,0 -180,90 -180,200 0,100 60,170 150,210 70,40 100,80 100,150 0,70 -40,120 -110,120 -50,0 -100,-20 -130,-50l-20 80z"/>
   <path class="fil27" d="M5738.75 2721.25c70,60 200,110 320,110 290,0 430,-220 430,-469.99 0,-240 -110,-370 -320,-470 -160,-90 -240,-160 -240,-310 0,-110 60,-250 230,-250 110,0 190,50 230,80l50 -170c-60,-40 -150,-80 -270,-80 -240,0 -400,190 -400,440 0,220 120,370 320,460 170,80 240,170 240,320 0,160 -100,269.99 -260,269.99 -110,0 -210,-50 -280,-99.99l-50 169.99z"/>
   <polygon id="_1_2" class="fil27" points="7338.74,1871.26 6858.74,1871.26 6858.74,1361.26 7368.74,1361.26 7368.74,1191.27 6698.74,1191.27 6698.74,2801.25 7388.74,2801.25 7388.74,2631.25 6858.74,2631.25 6858.74,2041.26 7338.74,2041.26 "/>
   <polygon id="_2_3" class="fil27" points="8228.74,1871.26 7748.74,1871.26 7748.74,1361.26 8258.74,1361.26 8258.74,1191.27 7588.74,1191.27 7588.74,2801.25 8288.74,2801.25 8288.74,2631.25 7748.74,2631.25 7748.74,2041.26 8228.74,2041.26 "/>
   <path id="_3_4" class="fil27" d="M8488.73 2801.25c80,10 170,10 290,10 230,0 420,-80 540,-230 110,-149.99 170,-359.99 170,-619.99 0,-260 -60,-450 -170,-580 -110,-130 -270,-200 -500,-200 -120,0 -230,10 -330,30l0 1589.98 0 0.01zm160 -1439.99c40,-10 100,-20 180,-20 340,0 500,240 500,620 0,440 -190,689.99 -520,689.99 -70,0 -120,-10 -160,-20l0 -1269.99z"/>
   <path id="_4_5" class="fil27" d="M9638.73 2721.25c60,60 190,110 310,110 290,0 430,-220 430,-469.99 0,-240 -110,-370 -310,-470 -170,-90 -250,-160 -250,-310 0,-110 70,-250 230,-250 110,0 200,50 240,80l40 -170c-50,-40 -150,-80 -270,-80 -240,0 -400,190 -400,440 0,220 130,370 320,460 170,80 240,170 240,320 0,160 -100,269.99 -260,269.99 -110,0 -210,-50 -280,-99.99l-40 169.99z"/>
  </g>
 </g>
</svg>
