<?xml version="1.0" encoding="UTF-8"?>
<!DOCTYPE svg PUBLIC "-//W3C//DTD SVG 1.1//EN" "http://www.w3.org/Graphics/SVG/1.1/DTD/svg11.dtd">
<!-- Creator: CorelDRAW X7 -->
<svg xmlns="http://www.w3.org/2000/svg" xml:space="preserve" width="297mm" height="210mm" version="1.1" style="shape-rendering:geometricPrecision; text-rendering:geometricPrecision; image-rendering:optimizeQuality; fill-rule:evenodd; clip-rule:evenodd"
viewBox="0 0 2970 2100"
 xmlns:xlink="http://www.w3.org/1999/xlink">
 <defs>
  <style type="text/css">
   <![CDATA[
    .str0 {stroke:#CD2527;stroke-width:5}
    .str1 {stroke:#CC2627;stroke-width:5}
    .fil23 {fill:none}
    .fil11 {fill:#FEFEFE}
    .fil21 {fill:#FDF5F6}
    .fil12 {fill:#E03E4D}
    .fil6 {fill:#CD2527}
    .fil0 {fill:#CC2627}
    .fil17 {fill:#C62B2B}
    .fil16 {fill:#C32728}
    .fil10 {fill:#B92829}
    .fil2 {fill:#B62829}
    .fil7 {fill:#A42B26}
    .fil5 {fill:#A42A26}
    .fil8 {fill:#A62828}
    .fil18 {fill:#A42827}
    .fil20 {fill:#A42826}
    .fil4 {fill:#9F2826}
    .fil9 {fill:#8D2A24}
    .fil1 {fill:#8A2724}
    .fil19 {fill:#7C2C22}
    .fil3 {fill:#782E23}
    .fil14 {fill:#752D23}
    .fil15 {fill:#742B24}
    .fil13 {fill:#61372F}
    .fil25 {fill:#FEFEFE;fill-rule:nonzero}
    .fil22 {fill:#CD2527;fill-rule:nonzero}
    .fil24 {fill:#CC2627;fill-rule:nonzero}
   ]]>
  </style>
 </defs>
 <g id="Layer_x0020_1">
  <metadata id="CorelCorpID_0Corel-Layer"/>
  <path class="fil0" d="M911 1021c-5,-4 -8,-32 -8,-40l0 -12c0,-14 5,-31 11,-40 3,-5 7,-9 12,-13 6,-3 11,-5 19,-6 -1,1 -8,6 -10,8 -9,8 -15,25 -18,37 -5,20 -6,44 -6,66zm135 -6l0 -45c-3,-1 -5,-1 -7,-2 -2,-2 -2,-3 -2,-7 -1,-1 -3,-1 -4,-2 -1,-1 -1,-2 -1,-3 0,-3 1,1 1,-2 -2,0 -5,0 -5,-2 -1,-3 1,-3 1,-6 -2,-2 -3,-1 -5,-3 -2,-7 6,-10 5,-16 -1,-3 -3,-5 -3,-9 0,-3 0,-7 1,-10 2,-10 11,-21 19,-25l0 -43c-10,0 -16,-1 -26,0 -7,1 -9,1 -16,3 -3,0 -6,0 -8,1 -2,0 -1,1 -3,1 -8,1 -5,0 -12,2l-17 6c-1,0 -2,0 -3,1l-7 2c-4,2 -1,2 -7,4l-3 1c-1,1 1,0 0,1 -1,1 -6,3 -10,6 -2,1 -2,0 -4,1l-5 4c-2,1 -9,5 -12,8 -1,0 -1,1 -1,1 -4,2 -11,8 -13,10 -2,3 1,1 -2,3 -1,1 -1,1 -2,2 -2,1 -4,3 -5,4l-7 7c-2,2 0,4 -5,7 -2,2 -4,3 -5,5l-4 5c-3,4 0,1 -4,6 -1,0 -3,4 -4,5 -1,2 -2,3 -2,5 1,1 -2,2 -2,3 -1,1 -1,2 -2,4 -1,3 -11,17 -12,21 0,1 0,3 -1,4 -1,5 0,2 -2,8 -1,1 -1,1 -1,2 -1,1 -1,0 -1,2l-1 4c-1,5 -2,5 -3,8 -1,1 -1,3 -1,5 0,3 -1,5 -2,8 0,2 0,3 0,5 -1,3 -1,2 -2,4 0,1 0,3 0,5 0,4 -2,11 -2,15 1,3 -2,15 0,20 1,2 -1,5 0,9 2,6 1,4 2,9l46 0c-3,-26 -4,-35 -9,-60 -2,-14 -9,-31 -8,-45 1,-4 2,-11 3,-15 3,-18 18,-34 29,-41 11,-7 25,-12 39,-12 2,0 14,0 16,1 0,0 0,0 1,0 -1,0 -9,1 -13,2 -18,6 -36,17 -45,34 -14,28 -4,53 0,79 3,19 5,37 5,57l38 0c1,-7 4,-15 6,-22 8,-24 14,-36 18,-65 2,-15 2,-38 -2,-51 -2,-6 -11,-30 1,-31 6,-1 7,2 9,5 13,2 17,-1 28,12 1,2 5,6 7,6 2,-1 3,-3 4,-3 0,2 0,4 0,6 4,1 12,1 15,3 6,2 -1,10 1,14 2,2 9,-2 9,5 0,2 -1,2 -1,4 1,1 3,1 3,2 1,4 0,3 -1,6 28,13 -5,21 -11,34 -1,3 0,7 0,10 1,5 0,7 0,11 6,1 11,1 16,-1 4,-2 9,-6 13,-7z"/>
  <path class="fil0" d="M801 1077l12 0c-3,-27 -7,-28 -3,-57l4 -18c1,-4 5,-1 7,-3 1,-1 3,-5 4,-7 1,-5 3,-12 4,-17 2,-5 2,-9 5,-16 3,-5 5,-10 7,-15 2,-5 9,-19 12,-24l18 -25c5,-3 12,-12 16,-15l12 -10c1,-1 2,-1 3,-2 3,-1 5,-3 7,-4 1,-1 11,-8 14,-8l21 -10c4,-2 18,-8 22,-9 4,-1 4,-2 6,-2 7,-2 13,-4 20,-5 7,-1 22,-3 29,-2 -1,-2 0,0 -1,-1 -1,-1 0,0 -1,0 0,0 -1,-1 -1,-1l-11 0c-4,0 -9,0 -13,1 -25,3 -46,8 -69,19 -13,6 -25,13 -37,21 -13,9 -31,25 -41,37 -2,2 -3,3 -4,4 -4,5 -8,11 -12,17 -11,16 -11,18 -21,37 -9,18 -15,48 -17,69 -1,5 -2,24 0,28 0,0 1,0 2,0 1,2 1,2 2,4 1,1 1,3 2,5 1,2 1,6 2,9z"/>
  <path class="fil1" d="M914 864l2 0c-1,2 -4,3 -5,4 -4,4 -11,9 -16,12 -1,1 -1,2 -2,2 -3,3 -9,9 -12,12 -5,5 -19,21 -22,26l-6 10c-1,-1 -1,0 -1,-1 -2,3 -5,10 -6,14 -1,1 -2,3 -2,4l-6 14c-3,7 -5,12 -7,20l-4 15c-1,2 -1,3 -2,5 -1,2 -3,1 -4,3 3,-1 1,-1 2,0 0,2 -1,2 -1,4 0,1 0,2 0,4 -1,4 -1,5 -1,9 -1,3 -1,1 -1,8 0,3 0,6 0,9l2 -1 1 -6c1,-6 0,-7 1,-10 1,-1 1,-6 1,-7 1,-4 1,-3 2,-5l3 -18c1,-2 2,-4 3,-6l1 -5c0,-1 1,-1 1,-1 0,-2 0,-2 1,-4 2,-3 1,-3 4,-9 1,-1 0,-1 1,-3 1,-2 1,-3 2,-4 0,-1 1,-1 1,-2l3 -5c1,-2 1,-3 1,-4 1,-1 2,-2 3,-4 2,-4 5,-7 7,-11l8 -12c1,-2 0,-1 2,-3l8 -10c1,-1 2,-1 3,-3 2,-2 2,-1 5,-5 1,-1 2,-2 3,-3l14 -13 28 -20c1,0 1,0 2,-1 2,0 2,-1 4,-1 1,-1 2,-2 3,-2l5 -3c0,0 1,0 1,0 1,-1 1,-1 2,-1 1,0 2,-1 4,-2 4,-2 7,-3 11,-5 3,-1 6,-1 9,-2l7 -3c4,-1 16,-4 19,-5 2,0 4,0 5,0 3,-1 2,-1 5,-1 2,0 3,0 5,0 3,0 2,-1 4,-1 5,-1 26,-1 31,-1l0 -4c-9,0 -18,-2 -29,-1 -3,1 -6,1 -9,1 0,-1 0,0 0,-1 -2,-1 -20,3 -23,3 -2,1 -1,1 -3,1 -1,0 -1,0 -2,1l-13 4c-2,0 0,-1 -2,1 -1,0 -1,0 -2,0l-5 2c-2,1 -5,1 -7,2 -3,2 -4,2 -7,3 -2,1 -6,3 -8,4 0,0 0,0 0,0l-3 1c0,1 -1,1 -1,1 -2,2 -4,2 -7,3 -2,2 -10,6 -11,7z"/>
  <path class="fil2" d="M822 1037l-2 1c2,0 1,0 2,0 1,0 1,0 1,1 0,2 -1,0 -1,2l0 9c0,2 0,3 0,6 0,2 0,3 1,6 1,5 0,2 1,10 1,2 1,3 1,5l4 0c-1,-5 0,-3 -2,-9 -1,-4 1,-7 0,-9 -2,-5 1,-17 0,-20 0,-4 2,-11 2,-15 0,-2 0,-4 0,-5 1,-2 1,-1 2,-4 0,-2 0,-3 0,-5 1,-3 2,-5 2,-8 0,-2 0,-4 1,-5 1,-3 2,-3 3,-8l1 -4c0,-2 0,-1 1,-2 0,-1 0,-1 1,-2 2,-6 1,-3 2,-8 1,-1 1,-3 1,-4 1,-4 11,-18 12,-21 1,-2 1,-3 2,-4 0,-1 3,-2 2,-3 0,-2 1,-3 2,-5 1,-1 3,-5 4,-5 4,-5 1,-2 4,-6l4 -5c1,-2 3,-3 5,-5 5,-3 3,-5 5,-7l7 -7c1,-1 3,-3 5,-4 1,-1 1,-1 2,-2 3,-2 0,0 2,-3 2,-2 9,-8 13,-10 0,0 0,-1 1,-1 3,-3 10,-7 12,-8l5 -4c2,-1 2,0 4,-1 4,-3 9,-5 10,-6 1,-1 -1,0 0,-1l3 -1c6,-2 3,-2 7,-4l7 -2c1,-1 2,-1 3,-1l17 -6c7,-2 4,-1 12,-2 2,0 1,-1 3,-1 2,-1 5,-1 8,-1 7,-2 9,-2 16,-3 10,-1 16,0 26,0l0 -1c-4,0 -30,-1 -32,0 -3,0 -3,1 -6,1 -4,0 -7,0 -11,1 -3,1 -7,2 -11,2 -1,1 -1,1 -3,1 -2,0 -1,0 -2,1 -1,0 -5,1 -10,2 -2,1 -3,1 -5,2 -2,1 -3,1 -5,2 -2,0 -10,4 -13,5 -8,3 -7,4 -13,7 -6,3 -10,6 -16,10 -3,2 -3,1 -7,5 -1,1 -3,2 -4,3 -5,3 -11,10 -14,11 -2,2 -17,17 -19,20 -1,1 -2,2 -3,3l-13 19c-2,3 -3,5 -5,8 -1,2 -2,3 -2,5 -1,0 -1,1 -2,2 0,0 0,1 -1,2 0,1 -1,2 -2,3 -1,2 -1,3 -2,5 -2,4 -3,6 -4,9 -1,1 -1,3 -2,4 -1,1 -2,4 -2,5 0,1 0,1 -1,2 0,1 0,2 -1,3 -1,3 -1,5 -3,9l-2 11c-1,1 -1,2 -1,2 0,2 0,2 0,3 0,1 -1,4 -2,5 0,2 0,4 -1,5 -1,4 0,7 -1,12 -1,1 -1,1 -2,3l-1 4c0,1 0,0 0,1z"/>
  <path class="fil3" d="M923 856c-1,1 -8,5 -10,6 -6,3 -22,16 -27,20 -6,5 -11,11 -16,16 -8,10 -19,26 -25,38 -3,8 -6,15 -9,22 -5,12 -7,25 -11,36 -1,2 -2,4 -3,5 -2,2 -4,1 -7,2 0,1 -1,2 0,4 1,0 0,-1 1,-2 2,-2 2,1 5,1 1,-2 3,-1 4,-3 1,-2 1,-3 2,-5l4 -15c2,-8 4,-13 7,-20l6 -14c0,-1 1,-3 2,-4 1,-4 4,-11 6,-14 1,-1 1,-2 1,-3 4,-6 4,-6 8,-12 6,-8 11,-15 18,-21l8 -8 17 -14c2,-1 9,-6 10,-7 1,-1 9,-5 11,-7 3,-1 5,-1 7,-3 0,0 1,0 1,-1l3 -1c0,0 0,0 0,0 2,-1 6,-3 8,-4 3,-1 4,-1 7,-3 2,-1 5,-1 7,-2l5 -2c1,0 1,0 2,0 2,-2 0,-1 2,-1l13 -4c1,-1 1,-1 2,-1 2,0 1,0 3,-1 3,0 21,-4 23,-3 3,0 5,-1 7,-1 2,-1 5,-1 6,-2 -7,-1 -22,1 -29,2 -7,1 -13,3 -20,5 -2,0 -2,1 -6,2 -4,1 -18,7 -22,9l-21 10z"/>
  <path class="fil4" d="M822 1037c0,-1 0,0 0,-1l1 -4c1,-2 1,-2 2,-3 1,-5 0,-8 1,-12 1,-1 1,-3 1,-5 1,-1 2,-4 2,-5 0,-1 0,-1 0,-3 0,0 0,-1 1,-2l2 -11c2,-4 2,-6 3,-9 1,-1 1,-2 1,-3 1,-1 1,-1 1,-2 0,-1 1,-4 2,-5 1,-1 1,-3 2,-4 1,-3 2,-5 4,-9 1,-2 1,-3 2,-5 1,-1 2,-2 2,-3 1,-1 1,-2 1,-2 1,-1 1,-2 2,-2 0,-2 1,-3 2,-5 2,-3 3,-5 5,-8l13 -19c1,-1 2,-2 3,-3 2,-3 17,-18 19,-20 3,-1 9,-8 14,-11 1,-1 3,-2 4,-3 4,-4 4,-3 7,-5 6,-4 10,-7 16,-10 6,-3 5,-4 13,-7 3,-1 11,-5 13,-5 2,-1 3,-1 5,-2 2,-1 3,-1 5,-2 5,-1 9,-2 10,-2 1,-1 0,-1 2,-1 2,0 2,0 3,-1 4,0 8,-1 11,-2 4,-1 7,-1 11,-1 3,0 3,-1 6,-1 2,-1 28,0 32,0l0 -3c-5,0 -26,0 -31,1 -2,0 -1,1 -4,1 -2,0 -3,0 -5,0 -3,0 -2,0 -5,1 -1,0 -3,0 -5,0 -3,1 -15,4 -19,5l-7 3c-3,1 -6,1 -9,2 -4,2 -7,3 -11,5 -2,1 -3,2 -4,2 -1,0 -1,0 -2,1 0,0 -1,0 -1,0l-5 3c-1,0 -2,1 -3,2 -2,0 -2,1 -4,1 -1,1 -1,1 -2,1l-28 20 -14 13c-1,1 -2,2 -3,3 -3,4 -3,3 -5,5 -1,2 -2,2 -3,3l-8 10c-2,2 -1,1 -2,3l-8 12c-2,4 -5,7 -7,11 -1,2 -2,3 -3,4 0,1 0,2 -1,4l-3 5c0,1 -1,1 -1,2 -1,1 -1,2 -2,4 -1,2 0,2 -1,3 -3,6 -2,6 -4,9 -1,2 -1,2 -1,4 0,0 -1,0 -1,1l-1 5c-1,2 -2,4 -3,6l-3 18c-1,2 -1,1 -2,5 0,1 0,6 -1,7 -1,3 0,4 -1,10l-1 6z"/>
  <path class="fil5" d="M813 1077l2 0 -3 -18c0,-4 -1,-6 -1,-9 0,-4 0,-17 1,-20l1 -9c1,-2 1,-2 1,-4 0,-2 0,-2 1,-4l1 -10c-1,1 0,2 -1,2 -1,-2 0,-3 0,-4 3,-1 5,0 7,-2 1,-1 2,-3 3,-5 4,-11 6,-24 11,-36 3,-7 6,-14 9,-22 6,-12 17,-28 25,-38 5,-5 10,-11 16,-16 5,-4 21,-17 27,-20 2,-1 9,-5 10,-6 -3,0 -13,7 -14,8 -2,1 -4,3 -7,4 -1,1 -2,1 -3,2l-12 10c-4,3 -11,12 -16,15l-18 25c-3,5 -10,19 -12,24 -2,5 -4,10 -7,15 -3,7 -3,11 -5,16 -1,5 -3,12 -4,17 -1,2 -3,6 -4,7 -2,2 -6,-1 -7,3l-4 18c-4,29 0,30 3,57z"/>
  <path class="fil0" d="M820 1038c1,3 0,3 0,5 -1,1 -1,3 -1,4 -1,3 -1,7 -1,10 1,4 1,7 1,11 0,3 1,6 1,9l5 0c0,-2 0,-3 -1,-5 -1,-8 0,-5 -1,-10 -1,-3 -1,-4 -1,-6 0,-3 0,-4 0,-6l0 -9c0,-2 1,0 1,-2 0,-1 0,-1 -1,-1 -1,0 0,0 -2,0z"/>
  <path class="fil6" d="M1112 1013c-3,1 -4,0 -4,-2 0,-7 1,-11 4,-17 3,-8 4,-14 4,-23 4,2 5,17 4,23 -1,7 -4,10 -6,15 -1,1 -1,3 -2,4zm-67 -172l0 42c3,-1 6,-3 10,-5 4,-1 8,-2 12,-4 6,-1 21,2 26,4 7,3 13,9 17,15 9,16 4,32 -5,47 -8,15 1,14 5,19 2,4 -1,23 -2,28 -1,4 -5,12 -7,16 -2,3 -2,3 -4,3 -1,-6 9,-20 11,-33 1,-5 1,-5 -2,-8 -4,-5 -9,-10 -16,-11 -1,0 -2,0 -2,-1l-2 -1c2,-1 7,-6 9,-9 10,-12 8,-34 2,-44 -4,-7 -12,-13 -24,-14 -6,0 -11,1 -16,3 -6,2 -8,4 -12,7l0 70c5,1 11,0 15,0 3,1 5,1 7,2 3,2 2,0 5,-1 0,2 -2,4 -2,6 -3,6 -4,11 -4,19 0,4 0,9 0,14 0,8 -2,7 -3,12 2,0 2,0 4,1 -8,1 -3,0 -12,2 -3,0 -8,2 -10,3l0 16c8,-1 13,-3 20,-7 6,-4 9,-7 13,-13 4,-6 7,-11 9,-18 4,-12 3,-19 3,-22l1 -1c1,4 1,23 0,28 -2,9 -7,17 -12,25 -6,11 -21,17 -34,16l0 7 8 6c2,2 4,3 7,5 5,3 10,8 13,12l9 0c-2,-19 -9,-23 -9,-37 1,0 1,1 3,3 5,9 10,25 13,34l31 0c-4,-10 -13,-19 -11,-30 1,-12 14,-30 17,-39l3 -9c0,0 0,-1 1,-1l0 -1c0,0 0,0 0,0 0,19 -4,27 -11,41 -3,8 -5,11 -2,21 2,8 5,12 8,18l31 0c2,-2 12,-8 18,-17 6,-8 6,-19 2,-28 -3,-9 -10,-14 -17,-19 -5,-3 -17,-10 -21,-14 5,0 22,8 26,10 8,4 16,10 20,16 2,4 3,9 5,13 3,9 -4,26 -10,34 -1,2 -3,3 -4,5l30 0 2 -14c0,-1 2,-4 2,-5 1,-2 1,-4 2,-6 2,-13 1,-30 -1,-43 -1,-8 -2,-19 -4,-26 0,-4 -3,-10 -2,-13 0,0 0,0 0,0l0 1c1,0 4,9 4,11l3 9c0,1 0,2 0,3 1,4 1,0 1,7 0,4 3,13 3,21 0,4 0,28 0,30 -1,2 -1,1 -1,3 -1,4 -1,7 -4,9 -2,2 -1,9 -2,13l28 0c-1,-8 0,-17 0,-26 0,-8 -1,-3 -1,-11l-2 -18 -2 -17c-1,-2 -1,-3 -1,-6 -1,-1 -1,-3 -2,-5 0,-4 -4,-15 -6,-20 0,-1 -1,-3 -1,-5 -1,-3 -5,-11 -6,-14 -1,-2 -7,-14 -8,-17 -1,-1 -2,-2 -3,-4l-10 -16c-1,-1 -2,-2 -3,-3 -1,2 -1,1 -1,1 -1,-1 -1,-2 -3,-3 -2,-3 -3,-4 -5,-7 -2,-2 -1,0 -4,-4l-4 -4c-2,-1 -2,-2 -3,-3 -2,-1 -1,0 -1,-1 -1,-1 -1,-1 -2,-1 -4,-4 -3,-3 -4,-5 0,0 -1,-1 -2,-1l-12 -9c-2,-2 -4,-3 -7,-5 -1,-1 -2,-1 -3,-2 -5,-3 -2,-3 -11,-6l-11 -6c-1,0 -2,-1 -2,-1 -2,-2 -7,-3 -10,-4 -4,-1 -2,-2 -8,-3 -2,-1 -5,-2 -8,-3 -6,-1 -7,-2 -8,-2 -4,-1 -7,-1 -10,-2 -5,0 -7,-1 -8,-2 -6,-1 -13,0 -19,-1zm28 90c1,-5 14,-8 13,4 0,4 -3,7 -4,9 -2,1 -7,4 -10,2 1,-1 0,-1 2,-1 0,0 1,0 1,-1 8,-2 8,-11 5,-14 -3,-2 -5,0 -7,1z"/>
  <path class="fil0" d="M927 1218c1,0 4,2 6,3 2,1 5,1 7,3 8,4 19,7 28,10 11,4 24,4 32,8 5,2 10,4 16,4 7,0 12,-1 18,-2 3,0 6,-1 9,-1 2,0 8,-1 8,2 -2,1 -7,1 -9,1l-9 1c-7,1 -11,2 -18,1 -4,0 -10,-3 -15,-4 -3,-2 -18,-4 -25,-5l-22 -8c-5,-1 -10,-4 -14,-6 -3,-1 -4,-1 -6,-3l-5 -3c-2,-1 -1,0 -1,-1zm133 -142l-98 0c1,29 27,62 28,96 0,8 1,12 0,19 -1,3 -3,17 -4,18 0,-1 0,-17 -1,-20 0,-6 -1,-12 -2,-18 -9,-34 -28,-49 -26,-86l1 -9 -16 0 -2 10c-2,11 -1,22 3,32 7,16 19,24 20,28 -4,0 -14,-8 -17,-10 -5,-3 -9,-8 -13,-14 -4,-6 -5,-12 -5,-21 0,-17 1,-11 3,-25l-38 0c0,12 2,25 4,37 0,1 0,1 0,2 1,1 1,2 1,3 5,28 9,45 28,65l9 8c3,3 6,5 10,7 3,2 5,3 7,5 -7,0 -28,-12 -34,-17 -2,-2 -5,-3 -7,-5 -7,-6 -12,-14 -16,-22 -14,-25 -16,-51 -20,-83l-46 0c1,8 5,26 8,32l2 3c1,2 1,3 2,6 0,1 2,4 2,5 -1,0 -1,0 -1,0 0,0 -1,-1 -1,-1 -1,-1 -1,-2 -2,-3l-1 -2c0,0 0,0 0,-1 -1,-2 -2,-5 -4,-8 0,-1 0,-1 -1,-3 0,-1 -1,-2 -1,-3l-4 -12c-1,-3 -3,-9 -3,-13l-5 0 1 3c1,4 1,6 3,10 0,1 1,6 1,7l2 7c1,4 2,9 3,13 0,1 1,5 2,6 0,1 1,2 1,3 3,8 1,4 5,12l4 8c2,3 2,3 2,6 0,4 12,17 13,21l-3 -1 -1 2 -1 -1c-2,-2 -2,-3 -3,-5 -6,-8 -7,-11 -12,-20 -3,-5 -5,-9 -8,-14 -2,-4 -6,-11 -7,-15 -1,1 0,-1 -1,1 -2,-2 -2,-6 -4,-9 -1,-2 -1,-4 -1,-6 0,-2 1,-3 1,-5 0,-3 -4,-18 -5,-23l-11 0 6 27c1,2 1,3 2,5 1,4 2,7 3,11 1,5 5,14 7,19 2,3 6,8 8,12l3 4c1,1 2,2 3,3 1,2 2,3 3,4 8,12 9,12 18,23 3,3 19,18 24,22 2,1 2,3 4,3 0,-2 -1,-2 -2,-4 -5,-7 -9,-10 -14,-16 -2,-2 -5,-5 -5,-7 3,1 15,13 19,17 1,1 2,3 4,4 1,1 2,2 3,3 2,2 3,2 5,4l14 11 18 12c2,2 0,3 0,3 -3,3 -35,-16 -39,-19 -9,-5 -9,-5 -17,-12 -3,-3 -13,-14 -15,-15 0,1 0,0 0,1 0,0 0,0 0,1 -5,1 -13,-12 -16,-16l-7 -10c-2,-3 -6,-8 -8,-9 0,4 7,13 10,16l20 23c0,-1 0,0 1,-1l25 23c1,1 1,1 3,2 5,5 7,5 12,10l6 3c2,2 2,2 7,5 9,6 20,11 30,15 3,1 8,4 12,5 12,3 12,2 22,5 2,0 5,0 7,1 5,2 10,2 15,3 2,0 4,2 6,2 13,3 36,3 50,1l8 -1c3,-2 -12,0 -13,0 -6,1 -26,1 -32,0 -3,0 -13,-2 -14,-3l1 0 3 0c0,-2 -1,-1 0,-2 10,-1 21,0 30,-1 8,-1 13,-1 20,-3 1,-1 4,-2 5,-1 1,0 1,0 1,1 1,0 8,-2 9,-2 3,0 2,-1 4,-1 3,0 3,-1 5,-1l0 -9c-6,1 -6,3 -15,3 -2,0 -3,0 -4,-2 1,-1 7,-1 10,-1 3,0 6,-1 9,-2l0 -23c-3,0 -6,1 -9,2 -13,3 -20,4 -32,5 -8,1 -42,3 -48,1 10,-1 32,-1 36,-1 2,0 3,-1 5,-1 2,0 4,0 6,-1l11 -1c3,-1 8,-1 11,-2 3,0 7,-1 10,-2l5 -1c2,0 1,-1 5,-2l0 -10c-1,2 -2,5 -4,6 0,-5 3,-28 2,-32 0,-4 -1,-7 -2,-10l4 -2 0 -24c-9,-2 -35,-17 -44,-23 -3,-2 -11,-6 -12,-10 19,-4 37,10 53,18 1,1 2,2 3,2l0 -44c-1,-1 -2,-2 -4,-3l-11 -11z"/>
  <path class="fil7" d="M852 1196c2,3 6,7 9,9l9 9c7,5 17,15 25,20l10 7c2,2 4,3 6,4 5,3 19,9 24,12 9,3 11,4 20,7 1,0 6,1 7,1 6,0 10,2 15,3 3,1 11,2 15,3 2,0 2,0 4,1l12 1c12,1 22,1 34,0 3,0 13,-1 14,-4l-8 1c-14,2 -37,2 -50,-1 -2,0 -4,-2 -6,-2 -5,-1 -10,-1 -15,-3 -2,-1 -5,-1 -7,-1 -10,-3 -10,-2 -22,-5 -4,-1 -9,-4 -12,-5 -10,-4 -21,-9 -30,-15 -5,-3 -5,-3 -7,-5l-6 -3c-5,-5 -7,-5 -12,-10 -2,-1 -2,-1 -3,-2l-25 -23c-1,1 -1,0 -1,1z"/>
  <path class="fil1" d="M927 1218c0,1 -1,0 1,1l5 3c2,2 3,2 6,3 4,2 9,5 14,6l22 8c7,1 22,3 25,5 5,1 11,4 15,4 7,1 11,0 18,-1l9 -1c2,0 7,0 9,-1 0,-3 -6,-2 -8,-2 -3,0 -6,1 -9,1 -6,1 -11,2 -18,2 -6,0 -11,-2 -16,-4 -8,-4 -21,-4 -32,-8 -9,-3 -20,-6 -28,-10 -2,-2 -5,-2 -7,-3 -2,-1 -5,-3 -6,-3z"/>
  <path class="fil2" d="M825 1076c0,4 2,10 3,13l4 12c0,1 1,2 1,3 1,2 1,2 1,3 2,3 3,6 4,8 0,1 0,1 0,1l1 2c1,1 1,2 2,3 0,0 1,1 1,1 0,0 0,0 1,0 0,-1 -2,-4 -2,-5 -1,-3 -1,-4 -2,-6l-2 -3c-3,-6 -7,-24 -8,-32l-4 0z"/>
  <path class="fil8" d="M822 1118c-1,-1 -5,-13 -3,-14 1,-1 0,0 2,1 0,-2 -3,-14 -4,-18 0,-1 -1,-1 -1,-3 0,-4 -1,-4 -1,-8l-3 0c1,5 5,20 5,23 0,2 -1,3 -1,5 0,2 0,4 1,6 2,3 2,7 4,9 1,-2 0,0 1,-1z"/>
  <path class="fil0" d="M942 1077l16 0c1,-4 3,-12 5,-14 0,5 -1,9 -1,14l84 0 0 -12 -5 -3c-6,-3 -11,-6 -18,-8 -18,-4 -24,2 -29,2 1,-3 6,-6 10,-8 5,-2 9,-3 15,-3 15,0 21,7 27,10l0 -8c-4,-1 -25,-4 -27,-5 1,0 0,0 1,0 1,0 0,0 1,0 0,0 2,0 2,0 1,0 2,0 3,0 9,-1 11,-2 20,-3l0 -16c-8,3 -12,9 -24,7 -4,-1 -7,-3 -13,-2 -3,1 -7,4 -11,5 3,-5 8,-7 11,-10 1,-2 1,-3 1,-6 -2,-17 -4,-16 10,-26 3,-2 6,-4 8,-6 6,-7 -2,-12 -6,-15 0,-4 4,-7 -5,-7 1,-3 4,-2 4,-7 -15,-4 -8,-5 -9,-15 -4,-1 -5,-1 -10,-1 -4,0 -8,-1 -9,3l3 1c-1,1 -2,1 -3,1 -1,0 -2,0 -3,1 -2,0 -4,1 -6,1 0,-2 4,-8 5,-10 0,-3 -14,-18 -24,-20l5 20c5,22 5,47 0,68 -3,9 -9,28 -14,37 -2,5 -9,20 -11,26 -1,3 -2,6 -3,9z"/>
  <path class="fil0" d="M1046 894c-5,3 -9,9 -11,14 -3,6 -2,15 -1,22 2,0 6,-2 7,1 -1,1 -3,2 -4,2l1 -1 -4 -1c-2,3 -3,7 -5,10 1,2 3,4 5,5 0,1 -4,6 1,6 2,0 2,0 3,0 0,2 -1,2 -1,5 1,1 3,1 4,2 2,1 2,3 2,6l3 0 0 -71z"/>
  <path class="fil4" d="M1045 839l33 4 4 3c1,0 2,1 8,2 3,1 6,2 8,3 6,1 4,2 8,3 3,1 8,2 10,4 0,0 1,1 2,1l11 6c9,3 6,3 11,6 1,1 2,1 3,2 3,2 5,3 7,5l12 9c1,0 2,1 2,1 1,2 0,1 4,5 1,0 1,0 2,1 0,1 -1,0 1,1 1,1 1,2 3,3l4 4c3,4 2,2 4,4 2,3 3,4 5,7 2,1 2,2 3,3 0,0 0,1 1,-1 -5,-7 -13,-16 -19,-22 -3,-4 -6,-7 -10,-10 -4,-3 -14,-12 -18,-14 -2,-2 -4,-3 -6,-4 -3,-2 -1,-1 -6,-4 -2,-1 -4,-3 -7,-4 -8,-5 -19,-11 -28,-14l0 2c3,0 3,1 5,1 0,1 0,2 -4,1 -2,0 -2,0 -2,-2l-12 -3c-5,-1 -8,-2 -13,-2 -4,0 1,0 -6,-1 -2,0 -4,-1 -7,-1 -6,0 -3,-1 -6,-1l-7 -1 0 3z"/>
  <path class="fil6" d="M1045 1015l8 -2c5,-6 5,-12 4,-22 0,-17 6,-16 7,-21 -6,-1 -13,0 -19,-1l0 46z"/>
  <path class="fil9" d="M1045 836l7 1c3,0 0,1 6,1 3,0 5,1 7,1 7,1 2,1 6,1 5,0 8,1 13,2l12 3c0,2 0,2 2,2 4,1 4,0 4,-1 -2,0 -2,-1 -5,-1l0 -2c-2,0 -10,-3 -12,-3l-15 -5c-2,0 -3,0 -4,0 -2,-1 -5,-1 -7,-2 -3,0 -4,0 -7,0 -3,-1 -3,-1 -7,-1l0 4z"/>
  <path class="fil6" d="M1045 1077l15 0c-1,-2 -12,-10 -15,-12l0 12z"/>
  <path class="fil10" d="M1045 841c6,1 13,0 19,1 1,1 3,2 8,2 3,1 6,1 10,2l-4 -3 -33 -4 0 2z"/>
  <circle class="fil6" cx="1029" cy="1043" r="198"/>
  <path class="fil11" d="M911 1021c0,-22 1,-46 6,-66 3,-12 9,-29 18,-37 2,-2 9,-7 10,-8 -8,1 -13,3 -19,6 -5,4 -9,8 -12,13 -6,9 -11,26 -11,40l0 12c0,8 3,36 8,40z"/>
  <path class="fil11" d="M1046 965l-3 0c0,-3 0,-5 -2,-6 -1,-1 -3,-1 -4,-2 0,-3 1,-3 1,-5 -1,0 -1,0 -3,0 -5,0 -1,-5 -1,-6 -2,-1 -4,-3 -5,-5 2,-3 3,-7 5,-10l4 1 -1 1c1,0 3,-1 4,-2 -1,-3 -5,-1 -7,-1 -1,-7 -2,-16 1,-22 2,-5 6,-11 11,-14l0 0c3,-2 6,-4 11,-6 5,-2 10,-3 16,-3 12,1 20,7 24,14 6,10 8,32 -2,44 -2,3 -7,8 -9,9l2 1c0,1 1,1 2,1 7,1 12,6 16,11 3,3 3,3 2,8 -2,13 -12,27 -11,33 2,0 2,0 4,-3 2,-4 6,-12 7,-16 1,-5 4,-24 2,-28 -4,-5 -13,-4 -5,-19 9,-15 14,-31 5,-47 -1,-1 -2,-3 -3,-5 -1,0 -2,-1 -2,-1 0,0 -1,-1 -1,-1 -3,-3 -5,-5 -11,-8 -15,-6 -24,-4 -38,0 -4,2 -7,4 -10,5l0 1c-8,4 -16,14 -18,24 -1,3 -1,7 -1,10 0,4 2,6 3,9 1,6 -7,9 -5,16 2,2 3,1 5,3 0,3 -2,3 -1,6 0,2 3,2 5,2 0,3 -1,-1 -1,2 0,1 0,2 1,3 1,1 3,1 4,2 0,4 0,5 2,7 2,1 4,1 7,2l0 0c6,0 12,-1 18,0 -1,5 -7,4 -7,21 1,10 1,16 -4,22l-7 2 0 0 0 0 -1 0 0 0c-4,2 -8,5 -12,7 -5,2 -10,2 -16,1 0,-4 1,-6 0,-11 0,-3 -1,-7 0,-10 6,-13 39,-21 11,-34 1,-3 2,-2 1,-6 0,-1 -2,-1 -3,-2 0,-2 1,-2 1,-4 0,-7 -7,-3 -9,-5 -2,-4 5,-12 -1,-14 -3,-2 -11,-2 -15,-3 0,-2 0,-4 0,-6 -1,0 -2,2 -4,3 -2,0 -6,-4 -7,-6 -11,-13 -15,-10 -28,-12 -2,-3 -3,-6 -9,-5 -12,1 -3,25 -1,31 4,13 4,36 2,51 -4,29 -10,41 -18,65 -2,7 -5,15 -6,21l0 0c-3,16 -7,32 2,46 4,6 8,11 13,14 3,2 13,10 17,10 -1,-4 -13,-12 -20,-28 -4,-10 -5,-21 -3,-32l2 -9 0 0c1,-3 2,-6 3,-9 2,-6 9,-21 11,-26 5,-9 11,-28 14,-37 5,-21 5,-46 0,-68l-5 -20c10,2 24,17 24,20 -1,2 -5,8 -5,10 2,0 4,-1 6,-1 1,-1 2,-1 3,-1 1,0 2,0 3,-1l-3 -1c1,-4 5,-3 9,-3 5,0 6,0 10,1 1,10 -6,11 9,15 0,5 -3,4 -4,7 9,0 5,3 5,7 4,3 12,8 6,15 -2,2 -5,4 -8,6 -14,10 -12,9 -10,26 0,3 0,4 -1,6 -3,3 -8,5 -11,10 4,-1 8,-4 11,-5 6,-1 9,1 13,2 12,2 16,-4 24,-7l0 0c2,-1 6,-3 9,-3 9,-2 4,-1 12,-2 -2,-1 -2,-1 -4,-1 1,-5 3,-4 3,-12 0,-5 0,-10 0,-14 0,-8 1,-13 4,-19 0,-2 2,-4 2,-6 -3,1 -2,3 -5,1 -2,-1 -4,-1 -7,-2 -4,0 -9,1 -14,0l0 0zm27 -34c2,-1 4,-3 7,-1 3,3 3,12 -5,14 0,1 -1,1 -1,1 -2,0 -1,0 -2,1 3,2 8,-1 10,-2 1,-2 4,-5 4,-9 1,-12 -12,-9 -13,-4z"/>
  <path class="fil11" d="M1045 1039c-8,1 -10,2 -19,3 -1,0 -2,0 -3,0 0,0 -2,0 -2,0 -1,0 0,0 -1,0 -1,0 0,0 -1,0 2,1 21,4 26,5l0 0 0 0 1 0 0 0c12,1 27,-5 33,-16 5,-8 10,-16 12,-25 1,-5 1,-24 0,-28l-1 1c0,3 1,10 -3,22 -2,7 -5,12 -9,18 -4,6 -7,9 -13,13 -7,4 -12,6 -20,7l0 0z"/>
  <path class="fil11" d="M1112 1013c1,-1 1,-3 2,-4 2,-5 5,-8 6,-15 1,-6 0,-21 -4,-23 0,9 -1,15 -4,23 -3,6 -4,10 -4,17 0,2 1,3 4,2z"/>
  <path class="fil11" d="M875 1076c4,32 6,58 20,83 4,8 9,16 16,22 2,2 5,3 7,5 6,5 27,17 34,17 -2,-2 -4,-3 -7,-5 -4,-2 -7,-4 -10,-7l-9 -8c-24,-26 -32,-70 -33,-106l0 0c0,-20 -2,-38 -5,-57 -4,-26 -14,-51 0,-79 9,-17 27,-28 45,-34 4,-1 12,-2 13,-2 -1,0 -1,0 -1,0 -2,-1 -14,-1 -16,-1 -14,0 -28,5 -39,12 -11,7 -26,23 -29,41 -1,4 -2,11 -3,15 -1,14 6,31 8,45 5,25 6,34 9,59l0 0z"/>
  <path class="fil11" d="M958 1076l-1 9c-2,37 17,52 26,86 1,6 2,12 2,18 1,3 1,19 1,20 1,-1 3,-15 4,-18 1,-7 0,-11 0,-19 -1,-33 -26,-66 -28,-95l0 0c0,-5 1,-9 1,-14 -2,2 -4,9 -5,13l0 0z"/>
  <path class="fil11" d="M1019 1045c-6,0 -10,1 -15,3 -4,2 -9,5 -10,8 5,0 11,-6 29,-2 7,2 12,5 18,8 9,5 29,22 33,28 2,0 4,3 5,5 9,7 31,30 37,32 -1,-4 -11,-16 -15,-23 -11,-20 -15,-43 -25,-61 -2,-2 -2,-3 -3,-3 0,9 8,32 10,47 -1,-1 -3,-3 -4,-5 -6,-6 -12,-13 -19,-17 -3,-2 -5,-3 -7,-5 -11,-8 -19,-15 -34,-15z"/>
  <path class="fil11" d="M1120 1077l0 0 3 8c2,3 3,5 5,8 6,13 21,46 15,58 -5,13 -26,5 -36,1 -6,-3 -12,-6 -17,-9l-15 -8 0 -1c-1,0 -2,-1 -3,-2 -16,-8 -34,-22 -53,-18 1,4 9,8 12,10 8,5 34,20 43,23l0 0c3,1 5,3 7,4 1,2 2,4 2,8 -1,5 -5,10 -9,12l0 0 -3 2c1,3 2,6 2,10 1,4 -2,27 -2,32 2,-1 3,-4 4,-6l0 -1c3,-5 6,-16 7,-20 0,-4 0,-7 0,-11 10,-5 14,-7 15,-19 4,1 13,6 17,7 6,2 14,4 21,4 11,1 12,1 17,-7 2,-6 4,-13 4,-20 0,-22 -23,-49 -31,-66l0 0c-3,-5 -6,-10 -8,-17 -3,-10 -1,-13 2,-21 7,-14 11,-22 11,-41 0,0 0,0 0,0l0 1c-1,0 -1,1 -1,1l-3 9c-3,9 -16,27 -17,39 -2,11 7,20 11,30z"/>
  <path class="fil11" d="M1179 1072c11,-14 14,-31 5,-47 -4,-6 -12,-12 -20,-16 -4,-2 -21,-10 -26,-10 4,4 16,11 21,14 7,5 14,10 17,19 4,9 4,20 -2,28 -1,2 -29,26 -29,27l9 13c7,9 12,19 14,30 0,8 -2,12 -2,19 1,-1 2,-2 2,-3 1,-1 1,-2 2,-3 6,-15 6,-27 0,-41 -5,-12 -8,-10 -9,-12 1,-2 1,-1 2,-2 1,0 1,-1 2,-1 1,-1 2,-2 4,-3 3,-4 7,-8 10,-12z"/>
  <path class="fil12" d="M1075 1222l0 -1c10,-2 18,-3 28,-4 8,-1 18,-5 25,-9l21 -13c6,-4 22,-17 27,-23 1,-2 2,-3 4,-4 4,-6 17,-27 20,-30 4,-5 11,-13 15,-19 1,-2 2,-4 3,-6 1,-2 5,-10 4,-11 0,0 -1,1 -1,2 -1,2 0,2 -1,3 -4,5 -6,11 -10,15l-7 9c-1,2 -3,3 -4,5 -7,9 -11,17 -17,25 -3,4 -10,11 -14,15 0,1 -1,1 -2,2 -1,1 -1,1 -2,2l-7 6c-8,6 -11,8 -19,14 -4,2 -7,4 -11,6 -5,3 -14,7 -20,8 -2,0 -3,0 -4,1l-10 1c-5,1 -5,0 -12,2l-7 2 0 0c-3,0 -2,1 -4,1l-5 1c-3,1 -7,2 -10,2 -3,1 -8,1 -11,2l-11 1c-2,1 -4,1 -6,1 -2,0 -3,1 -5,1 -4,0 -26,0 -36,1 6,2 40,0 48,-1 12,-1 19,-2 32,-5 3,-1 6,-2 9,-2z"/>
  <path class="fil13" d="M998 1266c4,-1 12,0 16,0 7,0 24,0 31,-2 1,0 2,0 3,0 2,-1 7,-2 9,-4 0,-1 0,-1 -1,-1 -1,-1 -4,0 -5,1 -7,2 -12,2 -20,3 -9,1 -20,0 -30,1 -1,1 0,0 0,2l-3 0z"/>
  <path class="fil14" d="M1075 1247l0 -2c-3,1 -6,2 -9,2 -3,0 -9,0 -10,1 1,2 2,2 4,2 9,0 9,-2 15,-3z"/>
  <path class="fil6" d="M1074 1220l7 -2c7,-2 7,-1 12,-2l10 -1c1,-1 2,-1 4,-1 6,-1 15,-5 20,-8 4,-2 7,-4 11,-6 8,-6 11,-8 19,-14l7 -6c1,-1 1,-1 2,-2 1,-1 2,-1 2,-2 4,-4 11,-11 14,-15 6,-8 10,-16 17,-25 1,-2 3,-3 4,-5l7 -9c4,-4 6,-10 10,-15 1,-1 0,-1 1,-3 0,-1 1,-2 1,-2 1,1 -3,9 -4,11 -1,2 -2,4 -3,6 -4,6 -11,14 -15,19 -3,3 -16,24 -20,30 -2,1 -3,2 -4,4 -5,6 -21,19 -27,23l-21 13c-7,4 -17,8 -25,9 -10,1 -19,2 -29,5l0 23c7,-1 23,-8 31,-11 6,-2 11,-2 18,-3 7,-2 16,-5 22,-9 2,-2 4,-3 7,-4 2,-2 10,-8 12,-9 4,-1 5,-1 7,-3 5,-4 21,-24 25,-28 6,-8 12,-17 17,-25 1,-1 1,-2 2,-3 2,-3 8,-15 9,-17l6 -15c5,-11 10,-30 12,-42l-4 0c-1,1 0,1 -1,1 -1,0 -1,0 -1,-1l-28 0 -1 10c-2,6 -2,8 -4,8 -1,-2 -1,-2 0,-4 1,-3 2,-11 2,-14l-30 0c-1,2 -5,6 -6,8 -2,1 -3,2 -4,3 -1,0 -1,1 -2,1 -1,1 -1,0 -2,2 1,2 4,0 9,12 6,14 6,26 0,41 -1,1 -1,2 -2,3 0,1 -1,2 -2,3 0,-7 2,-11 2,-19 -2,-11 -7,-21 -14,-30l-9 -13c0,-2 10,-9 12,-11l-32 0c8,17 31,44 31,66 0,7 -2,14 -4,20 -5,8 -6,8 -17,7 -7,0 -15,-2 -21,-4 -4,-1 -13,-6 -17,-7 -1,12 -5,14 -15,19 0,4 0,7 0,11 -1,4 -5,18 -8,22l0 10z"/>
  <path class="fil15" d="M1074 1247c4,0 6,-1 9,-2 7,-2 21,-8 26,-10 10,-3 14,0 28,-6 3,-1 5,-4 8,-4 0,0 0,0 1,-1 0,-1 3,-2 5,-3 1,-1 1,-1 2,-2 2,-1 2,-1 3,-2 2,-1 3,-2 5,-3 2,-1 3,-2 4,-4 2,0 1,1 3,1 2,-1 6,-5 8,-5l0 0c0,-2 12,-14 14,-16l10 -13c3,-5 10,-15 12,-17 1,-2 2,-4 3,-5 3,-5 9,-18 11,-19 3,-2 12,-30 13,-36 1,-2 2,-4 2,-8 1,-1 2,-6 3,-7 0,-2 0,-3 0,-4 1,-2 1,-2 1,-5l-3 0c-2,12 -7,31 -12,42l-6 15c-1,2 -7,14 -9,17 -1,1 -1,2 -2,3 -5,8 -11,17 -17,25 -4,4 -20,24 -25,28 -2,2 -3,2 -7,3 -2,1 -10,7 -12,9 -3,1 -5,2 -7,4 -6,4 -15,7 -22,9 -7,1 -12,1 -18,3 -8,3 -24,10 -31,11l0 2z"/>
  <path class="fil6" d="M1074 1256c8,0 22,-6 29,-9 3,-1 6,-2 9,-4 7,-3 18,-9 25,-13l7 -4c1,-1 1,-1 1,-1 -3,0 -5,3 -8,4 -14,6 -18,3 -28,6 -5,2 -19,8 -26,10 -3,1 -5,2 -9,2l0 9z"/>
  <path class="fil16" d="M1176 1206c3,-2 19,-21 21,-24l9 -13c1,-1 3,-2 4,-4l5 -9c2,-3 10,-18 11,-20 -2,1 -8,14 -11,19 -1,1 -2,3 -3,5 -2,2 -9,12 -12,17l-10 13c-2,2 -14,14 -14,16z"/>
  <path class="fil17" d="M1146 1224c3,-1 10,-6 13,-8l5 -4c3,-2 4,4 12,-6 -2,0 -6,4 -8,5 -2,0 -1,-1 -3,-1 -1,2 -2,3 -4,4 -2,1 -3,2 -5,3 -1,1 -1,1 -3,2 -1,1 -1,1 -2,2 -2,1 -5,2 -5,3z"/>
  <path class="fil0" d="M1075 1078l0 -2 -2 0c1,1 1,2 2,2z"/>
  <path class="fil6" d="M1074 1134l16 9c5,3 11,6 17,9 10,4 31,12 36,-1 6,-12 -9,-45 -15,-58 -2,-3 -3,-5 -5,-8l-4 -9 -30 0c2,7 8,22 12,28 4,7 14,19 15,23 -6,-2 -28,-25 -37,-32 -1,-2 -3,-4 -5,-5l0 44z"/>
  <path class="fil6" d="M1074 1171c4,-2 8,-7 9,-12 0,-4 -1,-6 -2,-8 -2,-1 -4,-3 -7,-4l0 24z"/>
  <path class="fil6" d="M1074 1078l5 4c1,2 3,4 4,5l-1 -11 -8 0 0 2z"/>
  <path class="fil6" d="M1238 1077l4 0c5,-13 3,-42 4,-43 0,0 1,1 1,1 0,1 0,0 0,1l0 1c0,-15 -4,-36 -9,-50 0,-2 -3,-13 -5,-15 0,1 1,5 2,7 2,5 2,12 4,17 0,3 0,5 1,7 1,2 0,4 0,7 1,2 1,4 1,6l2 22c0,5 -1,9 -1,14 -1,14 -1,13 -4,25z"/>
  <path class="fil18" d="M1205 1077l3 0c1,-4 0,-11 2,-13 3,-2 3,-5 4,-9 0,-2 0,-1 1,-3 0,-2 0,-26 0,-30 0,-8 -3,-17 -3,-21 0,-7 0,-3 -1,-7 0,-1 0,-2 0,-3l-3 -9c0,-2 -3,-11 -4,-11l0 -1c0,0 0,0 0,0 -1,3 2,9 2,13 2,7 3,18 4,26 2,13 3,30 1,43 -1,2 -1,4 -2,6 0,1 -2,4 -2,5l-2 14z"/>
  <path class="fil19" d="M1242 1077l3 0c0,-2 1,-3 1,-5 1,-6 2,-32 1,-35l0 -1c0,-1 0,0 0,-1 0,0 -1,-1 -1,-1 -1,1 1,30 -4,43z"/>
  <path class="fil20" d="M1205 1076c0,3 -1,11 -2,14 -1,2 -1,2 0,4 2,0 2,-2 4,-8l1 -10 -3 0z"/>
  <path class="fil21" d="M1236 1076c0,1 0,1 1,1 1,0 0,0 1,-1l-2 0z"/>
  <polygon class="fil22" points="1941,878 1963,878 1963,1216 1941,1216 "/>
  <polygon id="1" class="fil22" points="2072,878 2093,878 2051,1216 2029,1216 1983,878 2004,878 2040,1155 2040,1155 "/>
  <polygon id="2" class="fil22" points="2111,878 2178,878 2178,900 2132,900 2132,1023 2175,1023 2175,1046 2132,1046 2132,1216 2111,1216 "/>
  <line class="fil23 str0" x1="1889" y1="880" x2="1889" y2= "1221" />
  <path class="fil0 str1" d="M1325 880l492 0c14,0 25,12 25,26l0 199 -543 0 0 -199c0,-14 12,-26 26,-26z"/>
  <rect class="fil23 str1" x="1299" y="994" width="543" height="225" rx="11" ry="25"/>
  <path class="fil24" d="M1360 1125c-15,0 -26,16 -26,38 0,22 10,37 25,37 14,0 25,-13 25,-37 0,-21 -8,-38 -24,-38zm-1 8c12,0 18,15 18,30 0,16 -6,30 -18,30 -11,0 -17,-14 -17,-30 0,-17 6,-30 17,-30z"/>
  <polygon id="1" class="fil24" points="1394,1199 1401,1199 1401,1166 1422,1166 1422,1158 1401,1158 1401,1134 1423,1134 1423,1126 1394,1126 "/>
  <polygon id="2" class="fil24" points="1451,1126 1451,1199 1458,1199 1458,1126 "/>
  <path id="3" class="fil24" d="M1774 1196c3,2 9,4 14,4 13,0 19,-10 19,-21 0,-10 -4,-16 -14,-21 -7,-4 -11,-7 -11,-14 0,-5 3,-11 11,-11 5,0 8,2 10,3l2 -7c-2,-2 -6,-4 -12,-4 -11,0 -18,9 -18,20 0,10 6,16 15,21 7,3 10,7 10,14 0,7 -4,12 -11,12 -5,0 -10,-2 -13,-4l-2 8z"/>
  <path id="4" class="fil24" d="M1477 1199l0 -31c0,-12 0,-21 0,-30l0 0c3,8 7,16 10,24l18 37 7 0 0 -73 -7 0 0 31c0,11 1,20 1,30l0 0c-3,-8 -6,-15 -10,-24l-17 -37 -8 0 0 73 6 0z"/>
  <path id="5" class="fil24" d="M1531 1199l0 -31c0,-12 0,-21 0,-30l0 0c3,8 6,16 10,24l18 37 7 0 0 -73 -7 0 0 31c0,11 1,20 1,30l0 0c-3,-8 -6,-15 -10,-24l-18 -37 -7 0 0 73 6 0z"/>
  <path id="6" class="fil24" d="M1601 1125c-15,0 -26,16 -26,38 0,22 10,37 25,37 14,0 26,-13 26,-37 0,-21 -9,-38 -25,-38zm0 8c12,0 17,15 17,30 0,16 -6,30 -17,30 -12,0 -18,-14 -18,-30 0,-17 6,-30 18,-30z"/>
  <path id="7" class="fil24" d="M1672 1189c-3,2 -7,3 -11,3 -14,0 -22,-11 -22,-29 0,-19 9,-30 22,-30 4,0 8,1 11,3l2 -8c-2,-1 -7,-3 -13,-3 -18,0 -29,16 -29,38 0,24 11,37 27,37 7,0 12,-2 15,-3l-2 -8z"/>
  <polygon id="8" class="fil24" points="1711,1157 1690,1157 1690,1134 1712,1134 1712,1126 1683,1126 1683,1199 1714,1199 1714,1191 1690,1191 1690,1165 1711,1165 "/>
  <path id="9" class="fil24" d="M1730 1199l0 -31c0,-12 -1,-21 -1,-30l0 0c3,8 7,16 11,24l17 37 7 0 0 -73 -6 0 0 31c0,11 0,20 0,30l0 0c-2,-8 -6,-15 -10,-24l-17 -37 -8 0 0 73 7 0z"/>
  <path class="fil25" d="M1340 1068c6,6 19,11 31,11 29,0 43,-22 43,-47 0,-24 -10,-37 -31,-47 -17,-9 -25,-16 -25,-31 0,-11 7,-25 24,-25 11,0 19,5 23,8l4 -17c-5,-4 -15,-8 -27,-8 -24,0 -40,19 -40,44 0,22 13,37 33,46 16,8 23,17 23,32 0,16 -10,27 -26,27 -11,0 -21,-5 -28,-10l-4 17z"/>
  <polygon id="1" class="fil25" points="1499,983 1452,983 1452,932 1502,932 1502,915 1436,915 1436,1076 1505,1076 1505,1059 1452,1059 1452,1000 1499,1000 "/>
  <polygon id="2" class="fil25" points="1588,983 1541,983 1541,932 1591,932 1591,915 1525,915 1525,1076 1594,1076 1594,1059 1541,1059 1541,1000 1588,1000 "/>
  <path id="3" class="fil25" d="M1614 1076c8,1 18,1 29,1 24,0 42,-8 54,-23 12,-15 18,-36 18,-62 0,-26 -7,-45 -18,-58 -10,-13 -26,-20 -49,-20 -13,0 -24,1 -34,3l0 159zm16 -144c4,-1 10,-2 19,-2 33,0 49,24 49,62 0,44 -18,69 -52,69 -6,0 -12,-1 -16,-2l0 -127z"/>
  <path id="4" class="fil25" d="M1729 1068c6,6 19,11 31,11 29,0 43,-22 43,-47 0,-24 -10,-37 -31,-47 -17,-9 -24,-16 -24,-31 0,-11 6,-25 23,-25 11,0 19,5 23,8l4 -17c-5,-4 -14,-8 -27,-8 -24,0 -39,19 -39,44 0,22 12,37 32,46 17,8 23,17 23,32 0,16 -9,27 -26,27 -10,0 -21,-5 -28,-10l-4 17z"/>
 </g>
</svg>
