<svg width="120" height="120" viewBox="0 0 120 120" fill="none" xmlns="http://www.w3.org/2000/svg">
<path fill-rule="evenodd" clip-rule="evenodd" d="M38.5512 86.1732C39.685 86.1732 41.1968 86.9291 42.3307 86.9291C42.7087 90.7087 43.4646 91.4646 43.4646 96.378C43.4646 102.047 43.0866 105.449 40.8189 110.74C37.4173 118.299 34.3937 116.409 34.3937 114.52C34.3937 113.008 42.3307 108.85 38.9291 88.8189C38.9291 88.063 38.5512 86.9291 38.5512 86.1732ZM82.7717 0H84.2835C85.7953 0 87.3071 1.13386 88.4409 2.64567C89.1969 4.15748 88.4409 6.4252 89.1969 7.55906C90.7087 9.07087 106.961 25.3228 110.74 28.7244C112.63 30.9921 111.874 30.9921 114.142 30.9921C116.031 30.6142 117.543 31.3701 118.677 32.5039C119.055 33.2598 119.811 34.0157 119.811 34.7717V36.6614C119.055 39.685 116.409 41.9528 113.764 43.4646C106.583 46.8661 98.2677 47.622 90.3307 46.4882C89.5748 46.4882 88.4409 46.1102 87.685 46.1102C88.4409 47.622 88.4409 52.1575 88.8189 53.6693C89.1969 57.4488 87.3071 65.0079 86.1732 68.0315C83.9055 74.0787 80.126 78.6142 75.2126 82.3937C73.3228 83.5276 66.1417 87.685 63.874 87.3071C62.7402 87.3071 61.9843 86.1732 62.3622 84.6614C62.7402 83.9055 64.252 83.5276 65.0079 83.1496C71.0551 81.2598 76.3465 77.8583 79.3701 72.5669C83.5276 66.8976 85.0394 60.0945 85.0394 52.9134C85.0394 50.2677 84.2835 48 83.9055 45.7323C82.7717 45.3543 81.6378 44.9764 80.126 44.9764C80.5039 47.622 82.0157 51.7795 81.2598 57.0709C80.8819 60.4724 80.126 64.252 78.6142 67.2756C76.3465 71.811 73.3228 75.2126 69.1654 77.8583C68.0315 78.6142 66.1417 79.3701 65.0079 79.748C49.1339 85.4173 40.063 75.9685 19.2756 76.3465C15.874 76.7244 10.9606 77.8583 8.31496 78.9921C1.51181 82.7717 3.40157 85.4173 5.29134 85.4173C6.4252 85.4173 8.31496 83.1496 9.44882 82.7717C10.9606 82.0157 12.0945 81.2598 13.9843 80.8819C27.2126 77.1024 41.1968 84.2835 53.6693 85.0394C54.0472 85.0394 58.9606 84.6614 57.8268 87.685C56.6929 89.5748 48.378 88.4409 46.4882 88.063C46.4882 89.5748 46.8661 91.0866 46.8661 92.5984C47.2441 102.047 46.8661 109.606 40.8189 117.165C38.1732 120.567 33.2598 120.567 31.3701 116.787C30.6142 115.276 31.3701 113.764 30.2362 112.63C29.1024 111.496 25.7008 108.472 25.3228 107.339C24.9449 105.449 26.4567 104.693 27.9685 105.071C29.1024 105.827 31.748 109.228 32.8819 109.984C33.2598 109.228 34.7717 107.339 35.1496 105.071C35.9055 102.803 36.6614 102.047 35.1496 100.913C34.7717 100.535 34.7717 100.535 34.3937 100.157L19.6535 85.4173C18.8976 85.0394 18.5197 83.9055 17.3858 83.9055C14.3622 83.5276 10.5827 86.5512 9.44882 86.9291C10.5827 88.4409 18.5197 95.622 20.4094 97.5118C21.5433 98.6457 23.811 100.157 23.0551 102.047C22.2992 102.803 21.5433 103.181 20.4094 102.803C19.2756 102.047 8.69291 91.0866 7.93701 90.3307C6.80315 89.1969 6.80315 88.8189 5.29134 88.8189C3.77953 88.8189 3.40157 88.8189 2.64567 88.063C1.13386 87.3071 0 86.1732 0 84.2835V83.1496C0.755906 76.7244 12.4724 73.3228 18.5197 72.9449C26.0787 72.5669 27.2126 73.3228 31.748 73.3228C30.2362 67.2756 30.9921 59.3386 32.8819 54.0472C34.3937 48.7559 37.0394 44.2205 40.8189 40.4409C44.5984 37.0394 48.7559 34.3937 54.4252 32.5039C55.937 32.126 57.4488 31.748 58.9606 31.748C61.9843 30.9921 71.0551 30.9921 73.3228 32.126L72.9449 27.2126C72.5669 25.3228 72.189 18.8976 73.3228 17.3858C74.0787 16.252 75.9685 16.6299 76.3465 18.1417C76.7244 19.2756 76.3465 21.1654 76.3465 23.0551C76.3465 24.189 76.3465 24.189 76.3465 25.3228C76.7244 26.0787 76.3465 26.8346 76.7244 27.5906C77.4803 32.5039 76.3465 32.5039 78.9921 33.2598C79.3701 33.2598 80.126 33.6378 80.8819 33.6378C80.8819 31.3701 80.126 27.5906 80.126 22.2992C80.126 6.04724 87.685 6.80315 84.6614 4.15748C83.1496 2.64567 82.0157 4.15748 81.2598 5.29134C80.5039 6.4252 79.3701 7.55906 78.9921 9.07087C78.6142 9.82677 78.2362 10.5827 77.8583 11.3386C77.4803 12.0945 77.1024 12.4724 75.9685 12.4724C71.4331 11.7165 78.9921 2.26772 80.126 1.13386C80.8819 0.377953 82.0157 0 82.7717 0ZM23.0551 83.9055C27.2126 83.5276 31.3701 84.2835 34.7717 85.0394C35.5276 88.4409 35.9055 92.5984 35.9055 96.7559L23.0551 83.9055ZM41.9528 65.3858V61.2283C43.0866 61.6063 43.4646 62.3622 44.2205 63.1181L56.6929 75.2126C57.0709 75.9685 58.2047 76.7244 58.5827 77.4803C53.6693 77.4803 52.9134 78.6142 46.1102 76.7244C44.9764 76.7244 44.5984 76.3465 43.4646 76.3465C43.4646 74.8346 41.9528 71.4331 41.9528 65.3858ZM49.8898 46.8661C50.2677 46.4882 51.0236 46.1102 51.4016 45.7323C52.9134 44.9764 55.937 43.0866 57.4488 43.0866L76.3465 62.3622C76.3465 63.1181 75.5906 65.7638 74.8346 66.5197L72.9449 69.9213C70.6772 68.4094 58.5827 55.1811 57.4488 55.1811C55.5591 55.1811 55.1811 56.315 55.5591 57.4488C55.5591 58.2047 56.6929 58.9606 57.4488 59.7165C58.9606 61.6063 69.5433 71.811 70.2992 72.5669C69.1654 73.3228 65.0079 76.3465 63.1181 76.3465C62.3622 76.3465 62.3622 76.3465 61.6063 75.5906L45.7323 59.3386H45.3543L44.9764 58.9606C43.0866 57.0709 42.7087 57.4488 44.9764 52.9134C45.7323 51.4016 46.4882 50.6457 46.8661 49.5118C48.7559 50.6457 49.8898 53.2913 51.7795 52.9134C52.9134 52.5354 53.2913 51.7795 53.2913 50.6457C53.2913 49.8898 50.2677 47.622 49.8898 46.8661ZM62.3622 41.9528C65.3858 41.9528 74.4567 42.3307 75.9685 43.8425C77.4803 45.3543 77.8583 54.4252 77.8583 57.4488C77.8583 58.9606 76.3465 57.0709 75.9685 56.6929L65.3858 46.1102C64.6299 45.3543 64.252 44.5984 63.4961 43.8425C62.7402 43.4646 60.8504 41.9528 62.3622 41.9528ZM65.0079 38.1732C58.5827 38.1732 51.4016 40.8189 46.8661 44.5984C45.7323 45.7323 44.2205 47.622 43.0866 48.7559C37.4173 57.0709 37.4173 65.7638 39.685 75.2126C34.7717 74.0787 35.9055 75.2126 35.1496 70.2992C33.6378 62.7402 35.9055 53.2913 39.685 47.622C42.3307 43.4646 45.3543 40.8189 49.5118 38.5512C54.0472 35.9055 60.0945 34.7717 65.7638 34.7717C70.6772 34.7717 74.4567 35.9055 78.6142 37.0394C88.063 39.3071 100.535 41.9528 109.606 37.4173L114.142 34.3937C115.654 34.3937 116.409 35.1496 116.031 36.2835C116.031 38.1732 110.74 40.8189 108.85 41.5748C100.157 44.9764 88.4409 43.0866 79.748 40.8189C75.2126 39.685 70.6772 38.1732 65.0079 38.1732ZM83.5276 23.4331L96.378 36.2835C95.2441 36.2835 94.8661 35.9055 93.7323 35.9055C91.0866 35.9055 86.1732 34.7717 85.0394 34.7717C85.0394 33.6378 83.5276 26.8346 83.5276 23.4331ZM86.9291 9.82677C87.3071 11.3386 97.1339 20.4094 98.2677 21.5433C100.157 23.4331 108.85 32.126 109.606 33.2598C107.717 34.3937 102.803 36.6614 101.291 35.9055C100.535 35.5276 96 30.2362 94.8661 29.4803C94.4882 29.1024 94.4882 29.1024 94.1102 28.7244L92.5984 27.2126L90.7087 25.3228L88.4409 23.0551C88.063 22.6772 88.063 22.6772 87.685 22.2992C87.3071 21.9213 87.3071 22.2992 87.3071 21.9213L85.7953 20.4094C85.0394 19.6535 84.6614 19.2756 83.9055 18.5197C83.9055 17.0079 85.0394 10.5827 86.9291 9.82677Z" fill="#df3655"/>
</svg>
