<?xml version="1.0" encoding="UTF-8"?>
<!DOCTYPE svg PUBLIC "-//W3C//DTD SVG 1.1//EN" "http://www.w3.org/Graphics/SVG/1.1/DTD/svg11.dtd">
<!-- Creator: CorelDRAW -->
<svg xmlns="http://www.w3.org/2000/svg" xml:space="preserve" width="87.0394mm" height="79.2852mm" version="1.1" style="shape-rendering:geometricPrecision; text-rendering:geometricPrecision; image-rendering:optimizeQuality; fill-rule:evenodd; clip-rule:evenodd"
viewBox="0 0 8670.63 7898.18"
 xmlns:xlink="http://www.w3.org/1999/xlink"
 xmlns:xodm="http://www.corel.com/coreldraw/odm/2003">
 <defs>
  <style type="text/css">
   <![CDATA[
    .fil0 {fill:#DF3655}
   ]]>
  </style>
 </defs>
 <g id="Layer_x0020_1">
  <metadata id="CorelCorpID_0Corel-Layer"/>
  <g>
   <path class="fil0" d="M2433.02 2097.5c7.04,-10.13 23.99,-32.89 41.17,-55.99 46.29,-62.2 97.05,-130.37 112.39,-219.35 6.93,-40.24 6.63,-79.74 0.03,-118.17 -26.93,-156.64 -157.16,-305.22 -335.5,-426.74 -193.97,-132.17 -440.05,-228.05 -678.23,-269.12 -144.68,-24.94 -284.38,-29.27 -404.65,-8.6 -63.24,10.87 -124.98,26.6 -182.63,45.86 -59.54,19.91 -116.08,43.93 -166.68,70.59 -29.19,15.38 -57.64,31.18 -83.02,46.41 -25.34,15.21 -47.58,29.37 -64.72,41.51 -224.99,159.29 -373.35,364.58 -447.36,581.35 -51.52,150.9 -67.07,306.94 -47.4,456.26 19.57,148.53 73.72,290.79 161.63,414.97 114.26,161.37 287.23,293.97 517.69,372.66 153.29,52.34 286.51,76.89 420.91,82.56 138.89,5.86 284.28,-7.85 455.97,-31.85 92.07,-12.73 177.04,51.58 189.77,143.65 2.33,16.85 2.07,33.44 -0.46,49.41l-3.01 21.7c-9.68,69.5 -20.87,149.86 -18.56,215.17 47.78,7.87 96.59,16.78 146.45,37.43 0.19,0.08 0.37,0.16 0.56,0.24l0.1 -0.24c96.71,40.08 166.67,87.11 225.81,144.81 56.89,55.5 98.25,115.11 142.34,185.87 55.75,89.49 150.44,187.78 260.1,282.44 138.36,119.45 298.82,231.1 437.76,313.52 96.69,57.36 175.39,100.94 249.51,141.98 278.23,154.06 498.68,276.13 775.08,575.78 52.88,57.32 88.87,101.14 116.25,138.15 50.88,-66.71 117.25,-138.86 187.99,-207.64 90.45,-87.97 188.78,-171.38 270.69,-230.89 194.44,-141.28 364.15,-234.55 526.92,-324.02 265.75,-146.08 511.66,-281.25 810.59,-614.47 24.21,-26.99 41.96,-55.01 59.35,-82.47 49.06,-77.47 96.3,-152.05 246.08,-255.42 89.64,-61.87 187.21,-99.43 292.97,-116.01 38.8,-6.08 78.47,-9.22 119.02,-9.62 -4.14,-66.45 -13.9,-128.09 -30.29,-185.98 -28.52,-100.65 -78.58,-193.08 -156.23,-284.11 -0.3,-0.36 -0.57,-0.67 -0.82,-0.94l-0.36 2.55c1.01,2.75 1.79,5.84 -0.78,5.47 -40.72,-5.92 -93.85,-13.65 -174.93,-43.07 -197.38,-71.63 -368.98,-189.31 -493.73,-343.04 -121.14,-149.32 -197.84,-331.33 -211.55,-537.33 -5.82,-92.79 64.69,-172.75 157.48,-178.56 37.31,-2.34 72.52,7.66 101.69,26.49 23.64,14.25 47,28.98 64.26,65.03l138.01 183.77c22.61,27.29 45.34,50.88 69.58,72.79 25.68,23.2 54.74,45.98 88.32,70.23 69.52,50.19 130.46,82.91 198.04,106.03 72.69,24.86 155.9,40.35 265.24,54.71 337.18,44.27 504.44,208.54 654.22,355.64 88.97,87.37 169.04,166.01 272.57,172.9 95.72,6.37 170.67,-77.1 244.18,-158.99 110.72,-123.35 219.64,-244.65 421.37,-258.51 46.08,-3.16 81,-7.9 103.49,-17.05 6.4,-2.6 11.22,-6.48 14.69,-12.37 6.98,-11.83 10.18,-18.64 10.18,-21.13 0,-4.3 -2.77,4.01 -7.4,0.3 -24.16,-19.38 -63.6,-35.42 -112.36,-47.41 -112.66,-27.68 -256.02,-27.29 -381.74,4.86 -47.55,12.16 -89.77,32.55 -130.04,52.01 -39.06,18.86 -76.81,37.12 -123.93,52.98 -82.67,27.67 -171.71,-12.49 -206.69,-90.37l-0.22 0.1c-30.31,-67.12 -115.71,-173.79 -219.33,-289.18 -170.79,-190.18 -383.46,-393.31 -501.49,-502.73 -17.49,-16.21 -35.97,-32.31 -54.3,-47.19 -16.85,-13.68 -35.86,-28.11 -56.42,-42.65 -2.12,-1.49 -4.19,-3.04 -6.24,-4.61l-50.78 -35.99c-342.03,-242.69 -696.81,-494.43 -1125.33,-496.46 -229.2,-1.09 -411.1,71.95 -535.8,200 -130.59,134.1 -203.84,331.98 -208.47,572.11 -3.15,162.95 24.6,335.11 75.07,499.5 52.43,170.72 129.38,331.9 221.72,464.65 62.57,89.95 100.75,128.94 132.3,161.15 26.85,27.41 50.25,51.31 78.21,88.89 55.31,74.59 39.67,179.93 -34.93,235.24 -45.4,33.66 -102.18,41.04 -152.15,24.84l-0.06 0.19c-86.4,-28.12 -178.92,-84.26 -261.58,-147.33 -100.3,-76.54 -191.63,-168.22 -237.67,-230.26 -21.34,-28.76 -36.03,-46.56 -49.29,-62.62l-0.33 0.27c-31.61,-38.25 -57.08,-69.07 -113.38,-161.9 -5.99,-9.86 -11.13,-18.66 -15.58,-26.52 -61.07,-15.9 -146.08,-29.37 -224.89,-32.9 -56.05,-2.5 -101.43,-1.61 -114.36,5.34 -26.73,14.38 -18.25,47.12 -52.36,93.77 -25.87,35.37 -47.29,64.68 -55.21,74.16 -54.38,65.01 -139.25,153.27 -227.81,228.86 -73.62,62.86 -152.13,118.55 -223.73,149.84 -85.15,37.12 -184.28,-1.82 -221.4,-86.98 -22.4,-51.41 -17.08,-107.91 9.38,-152.78l-0.16 -0.09c20.87,-35.24 48.5,-73.04 75.56,-110.07 14.65,-20.05 29.13,-39.85 36.89,-51.11 57.5,-83.47 107.63,-159.43 151.52,-237.94 43.06,-77.03 81.36,-158.61 116.75,-255.73 49.95,-137.05 87.11,-276.06 109.49,-419.79 22.4,-143.87 30.4,-294.56 22.13,-455.15 -0.97,-18.97 -2.95,-51.43 -4.98,-84.99 -21.49,-355.13 -50.01,-826.32 318.78,-950.39 109.3,-36.77 200.23,-18.77 287.65,-1.48 42.29,8.37 82.24,16.28 87.01,10.28 9.6,-12.08 11.57,-28.22 7.51,-45.7 -7.68,-33.15 -31.34,-69.85 -67.14,-105.17 -42.49,-41.9 -99.42,-78.59 -166.28,-103.89 -133.33,-50.48 -303.7,-53.66 -476.58,38.18 -94.02,49.95 -161.66,113.22 -215.55,193.95 -59.02,88.43 -105.82,203.17 -153.12,345.99 -37.52,113.26 -87.08,229.1 -137.15,346.18 -89.81,209.95 -181.58,424.48 -195.22,625.59 -2.45,36.19 -2.25,55.94 -2.11,70.44 0.4,42.05 0.65,66.85 -14.5,106.89 -21.32,56.24 -46.46,77.64 -107.75,129.79l-10.09 8.59 0.28 0.33c-14.46,12.33 -37.09,30.93 -59.12,49.03 -29.62,24.34 -57.41,47.18 -86.82,74.06 -1.37,1.26 -2.78,2.48 -4.18,3.69l0.23 0.27 -146.29 124.84c-70.59,60.41 -176.8,52.14 -237.21,-18.45 -50.85,-59.43 -53.04,-144.1 -10.33,-205.44l-0.21 -0.14zm1025.81 1003.01c26.79,-45.23 72.69,-103.16 105.85,-151.3 120.19,-174.45 210.7,-319.66 288.04,-531.88 106.66,-292.62 159.2,-597.53 141.51,-940.84 -15.66,-303.96 -71.77,-776.21 199.14,-867.36 160.36,-53.95 335.78,101.75 453.07,-45.89 213.45,-268.7 -347.11,-771.13 -913.34,-470.26 -239.79,127.42 -346.78,325.34 -449.72,636.15 -108.25,326.81 -316.87,668.14 -340.28,1013.29 -10.09,148.91 23.56,114.88 -75.53,199.4 -55.83,47.62 -94.56,76.48 -149.89,127.04l-146.29 124.84c64.92,-93.41 154.09,-185.84 181.23,-343.21 107.69,-624.48 -964.38,-1128.43 -1612.72,-1016.99 -143.5,24.67 -285.06,73.34 -399.39,133.58 -57.6,30.35 -117.31,65.17 -166.19,99.79 -849.13,601.2 -742.93,1790.42 227.39,2121.74 337.66,115.3 593.32,108.4 953.97,57.97 -17.21,125.67 -44.22,288.7 1.32,403.8 64.02,24.11 157.93,24.2 225.89,52.35 151.15,62.64 213.87,142.34 289.75,264.14 143.94,231 488.45,493.74 755.18,651.97 397.82,235.99 651.27,323.5 986.38,686.79 156.59,169.76 146.82,204.81 238.61,323.79 20.87,-20.59 95.87,-142.54 115.44,-170.36 99.52,-141.51 298.61,-326.08 443.6,-431.41 514.86,-374.06 863.83,-405.47 1363.85,-962.86 99.09,-110.47 90.09,-183.38 275.79,-311.54 136.5,-94.21 297.2,-114.39 483.94,-80.91 17.95,-309.63 -37.72,-541.62 -226.18,-762.56 -58.91,-69.06 -96.17,-29.88 -247.38,-84.75 -329.03,-119.41 -571.4,-384.48 -594.59,-732.76 2.34,2.18 5.62,2.46 6.66,6.89 1.04,4.35 5.06,5.21 6.44,6.89l148.75 198.08c56.71,68.93 115.46,120.07 191.3,174.82 167.94,121.25 297.98,159.32 539.72,191.06 522.94,68.67 578.52,505.94 938,529.85 331.49,22.06 401.57,-397.85 687.29,-417.5 126.46,-8.69 204.34,-31.16 251.95,-111.79 165.08,-279.59 -319.96,-403.97 -677.8,-312.45 -107.47,27.48 -179.87,79.98 -265.84,108.94 -97.14,-215.04 -560.37,-661.16 -759.7,-845.94 -37.41,-34.68 -83.02,-72.16 -128.52,-104.33 -380.89,-269.31 -771.48,-564.97 -1278.55,-567.38 -562.47,-2.68 -902.11,376.26 -912.95,937.5 -7.15,369.67 126.98,776.22 326.45,1063 112.29,161.43 159.11,180.51 213.8,253.99 -151.89,-49.45 -348.24,-226.03 -416.21,-317.63 -66.07,-89.05 -81.03,-90.06 -154.44,-211.07 -54.91,-90.51 -25.11,-74.89 -84.82,-93.26 -130.57,-40.17 -398.19,-73.3 -493.37,-22.11 -10.61,5.71 -142,190.21 -156.99,208.12 -88.35,105.61 -263.88,277.62 -389.61,332.58zm2926.82 2118.15c38.06,-28.45 89,-77.71 125.21,-109.83 193.78,-171.93 413,-453.01 553.24,-676.73 158.55,-252.91 -95.24,-564.78 -377.63,-476.94 -157.61,49.03 -168.42,133.46 -255.38,243.01 -141,177.62 -318.77,347.86 -509.77,487.3 -734.6,536.26 -1482.28,612.62 -1630.76,1828.21 -9.57,78.36 -24.4,419.55 -37.74,455.54 -65.56,-200.59 76.69,-871.22 -472.81,-1485.06 -150.72,-168.36 -357.27,-300.02 -560.26,-414.89 -201.55,-114.06 -719.66,-406.98 -878.84,-594.64 -73.31,-86.43 -127.9,-118.39 -233.57,-253.77 -74.23,-95.09 -116.14,-204.42 -234.98,-252.82 -152.14,-61.96 -296.58,-10.21 -379.8,77.99 -210.85,223.5 31.46,501.09 144.76,655.76 67.22,91.75 150.8,193.99 221.89,265.6l255.2 243.8c-143.65,-59.76 -309.78,-180.92 -432.98,-265.44 -138.44,-94.99 -220.99,-174.8 -331,-289.7 -247.99,-259 -416.03,-588.51 -433.75,-1062.9 -4.22,-113.25 1.18,-198.8 -57.63,-284.61 -55.03,-80.3 -129,-124.41 -228.75,-129.94 -220.98,-12.27 -346.46,136.4 -348.19,370.18 -6.15,826.43 329.47,1416.14 907.74,1910.63 918.02,785.02 1839.09,654.78 1785.92,2437.9l2546.08 0.85c-9.46,-421.96 29.38,-879 218.77,-1199.81 190.34,-322.42 407.73,-476.41 741.57,-676.34 398.67,-238.76 478.76,-280.59 853.53,-564.7l275.56 -256.12c418.56,-479.28 644.36,-963.87 636.66,-1663.89 -1.41,-128.2 -18.52,-184.92 -90.84,-258.65 -156.49,-159.55 -391.24,-110.95 -485.62,32.7 -114.49,174.27 24.96,610.29 -307.22,1110.86 -123.64,186.31 -261.38,314.43 -433.69,452.47 -101.01,80.92 -450.14,318.39 -544.92,343.95zm194.96 -2200.47c-2.9,-3.25 -1.49,-0.57 -0.36,2.55l0.36 -2.55zm-3434.57 4711.17l2206.75 0.73c1.88,-165.49 12.66,-333.55 37.83,-495.46 35.3,-227.16 98.82,-442.01 205.03,-621.93 104.95,-177.78 218.19,-309.84 351.9,-425.61 129.11,-111.79 273.88,-204.9 448.32,-309.37l101.22 -60.52c304.96,-182.19 400.53,-239.3 731.04,-489.66l263.44 -244.85c193.77,-223.06 342.65,-446.43 441.73,-693.25 99.76,-248.52 150.21,-523.94 146.62,-850.81 -0.5,-45.36 -3.05,-75.95 -10.26,-97.04 -4.51,-13.18 -14.7,-26.87 -32.48,-44.98 -10.21,-10.41 -20.1,-18.65 -29.57,-24.86 -30.63,-20.12 -65.48,-26.78 -98.43,-22.96 -32.48,3.76 -62.03,17.33 -82.89,37.79 -6.05,5.93 -10.94,11.67 -14.46,17.03 -17.89,27.23 -24.08,108.63 -31.85,210.98 -17.73,233.41 -41.66,548.35 -275.37,900.54 -68.03,102.54 -140.13,189.23 -219.02,269.39 -77.09,78.32 -159.11,148.83 -249.6,221.31 -61.89,49.58 -209.85,153.46 -342.08,236.93 -105.57,66.63 -207.12,123.11 -264.77,138.65 -89.88,24.02 -182.23,-29.38 -206.25,-119.26 -18.32,-68.55 8.4,-138.52 61.97,-178.53l-0.03 -0.04c25.51,-19.07 53.36,-44.57 78.34,-67.46 16.11,-14.75 31.55,-28.91 36.33,-33.14 82.72,-73.4 173.72,-172.65 261.7,-280.28 100.53,-122.97 192.13,-250.37 260.57,-359.55 24.6,-39.24 27.84,-81.24 16.39,-118.09 -5.67,-18.24 -15.1,-35.82 -27.48,-51.76 -13.33,-17.17 -28.4,-31.27 -44.35,-41.26 -35.96,-22.54 -81.8,-31.02 -129.78,-16.1 -59.08,18.38 -80.65,51.46 -108.09,93.57 -18.98,29.11 -39.4,60.46 -65.58,93.43 -75.03,94.51 -160.23,187.43 -252.43,275.55 -89.68,85.73 -187.48,167.67 -290.28,242.72 -185.74,135.59 -364.7,238.98 -535.88,337.86 -497.56,287.44 -923.57,533.54 -1026.36,1375.03 -3.69,30.21 -7.95,96.49 -12.57,168.58 -8.47,131.82 -17.98,280.27 -34.39,324.52 -32.02,87.33 -128.8,132.17 -216.13,100.16 -52.63,-19.3 -89.8,-62.1 -104.06,-112.19 -21.39,-69.65 -25.26,-156.87 -30.11,-266.35 -12.38,-279.05 -32.67,-735.78 -405.84,-1152.65 -65.79,-73.48 -145.88,-140.48 -232.86,-202.47 -90.32,-64.37 -188.03,-123.15 -285.23,-178.16l-1.86 -1.06c-210.23,-118.97 -744.46,-421.32 -922.45,-631.14 -25.22,-29.74 -48.79,-52.84 -73.69,-77.23 -44.83,-43.93 -93.32,-91.45 -163.84,-181.8 -25.5,-32.65 -43.72,-60.05 -61.65,-87.01 -32.93,-49.5 -64.52,-96.98 -104.14,-113.11 -38.35,-15.62 -74.4,-18.16 -105.73,-11.72 -35.44,7.27 -66.23,25.51 -88.25,48.86 -96.64,102.44 39.93,284.12 126.67,399.5 17.92,23.84 27.69,36.58 31.27,41.46 32.55,44.44 69.81,92.2 107.97,137.87 33.55,40.17 66.18,76.89 94.81,105.95l254.54 243.18c67.32,64.04 69.98,170.54 5.94,237.87 -49.38,51.91 -123.99,65.36 -186.43,39.45l-0.04 0.09c-140.52,-58.47 -290.86,-162.68 -413.63,-247.81 -2.78,-1.92 1.52,1.01 -49.66,-34.11 -74.3,-50.97 -135.1,-99.22 -193.3,-151.22 -57.6,-51.46 -107.83,-102.13 -164.06,-160.87 -136.9,-142.99 -252.15,-306.35 -336.17,-500.76 -83.31,-192.75 -134.7,-413.79 -144.37,-672.84 -0.37,-10.1 -0.82,-25.69 -1.25,-41.32 -1.83,-66.21 -3.32,-119.2 -27.38,-154.33 -13.4,-19.56 -27.42,-33.75 -42.26,-42.28 -14.51,-8.34 -33.28,-13.23 -56.69,-14.52 -8.33,-0.46 -12.93,-0.7 -13.95,-0.7 -0.04,0 -0.07,0 -0.11,0 -48.77,-0.21 -85.05,13.52 -107.95,38.1 -27.94,30.01 -44.43,79.35 -48,143.64 -0.61,10.86 -0.93,18.04 -0.95,21.77 -2.87,385.57 73.5,714.93 217.58,1004.68 144.52,290.65 359.03,544.47 631.51,777.46 236.92,202.6 477.53,343.54 699.72,473.7 639.83,374.8 1142.25,669.32 1147.08,1924.07z"/>
  </g>
 </g>
</svg>
