<?xml version="1.0" encoding="UTF-8"?>
<!DOCTYPE svg PUBLIC "-//W3C//DTD SVG 1.1//EN" "http://www.w3.org/Graphics/SVG/1.1/DTD/svg11.dtd">
<!-- Creator: CorelDRAW -->
<svg xmlns="http://www.w3.org/2000/svg" xml:space="preserve" width="87.0394mm" height="79.2852mm" version="1.1" style="shape-rendering:geometricPrecision; text-rendering:geometricPrecision; image-rendering:optimizeQuality; fill-rule:evenodd; clip-rule:evenodd"
viewBox="0 0 8670.63 7898.18"
 xmlns:xlink="http://www.w3.org/1999/xlink"
 xmlns:xodm="http://www.corel.com/coreldraw/odm/2003">
 <defs>
  <style type="text/css">
   <![CDATA[
    .fil0 {fill:#DF3655}
   ]]>
  </style>
 </defs>
 <g id="Layer_x0020_1">
  <metadata id="CorelCorpID_0Corel-Layer"/>
  <path class="fil0" d="M2571.39 2193.7c64.92,-93.41 154.09,-185.84 181.23,-343.21 107.69,-624.48 -964.38,-1128.43 -1612.72,-1016.99 -143.5,24.67 -285.06,73.34 -399.39,133.58 -57.6,30.35 -117.31,65.17 -166.19,99.79 -849.13,601.2 -742.93,1790.42 227.39,2121.74 337.66,115.3 593.32,108.4 953.97,57.97 -17.21,125.67 -44.22,288.7 1.32,403.8 64.02,24.11 157.93,24.2 225.89,52.35 151.15,62.64 213.87,142.34 289.75,264.14 143.94,231 488.45,493.74 755.18,651.97 397.82,235.99 651.27,323.5 986.38,686.79 156.59,169.76 146.82,204.81 238.61,323.79 20.87,-20.59 95.87,-142.54 115.44,-170.36 99.52,-141.51 298.61,-326.08 443.6,-431.41 514.86,-374.06 863.83,-405.47 1363.85,-962.86 99.09,-110.47 90.09,-183.38 275.79,-311.54 136.5,-94.21 297.2,-114.39 483.94,-80.91 17.95,-309.63 -37.72,-541.62 -226.18,-762.56 -58.91,-69.06 -96.17,-29.88 -247.38,-84.75 -329.03,-119.41 -571.4,-384.48 -594.59,-732.76 2.34,2.18 5.62,2.46 6.66,6.89 1.04,4.35 5.06,5.21 6.44,6.89l148.75 198.08c56.71,68.93 115.46,120.07 191.3,174.82 167.94,121.25 297.98,159.32 539.72,191.06 522.94,68.67 578.52,505.94 938,529.85 331.49,22.06 401.57,-397.85 687.29,-417.5 126.46,-8.69 204.34,-31.16 251.95,-111.79 165.08,-279.59 -319.96,-403.97 -677.8,-312.45 -107.47,27.48 -179.87,79.98 -265.84,108.94 -97.14,-215.04 -560.37,-661.16 -759.7,-845.94 -37.41,-34.68 -83.02,-72.16 -128.52,-104.33 -380.89,-269.31 -771.48,-564.97 -1278.55,-567.38 -562.47,-2.68 -902.11,376.26 -912.95,937.5 -7.15,369.67 126.98,776.22 326.45,1063 112.29,161.43 159.11,180.51 213.8,253.99 -151.89,-49.45 -348.24,-226.03 -416.21,-317.63 -66.07,-89.05 -81.03,-90.06 -154.44,-211.07 -54.91,-90.51 -25.11,-74.89 -84.82,-93.26 -130.57,-40.17 -398.19,-73.3 -493.37,-22.11 -10.61,5.71 -142,190.21 -156.99,208.12 -88.35,105.61 -263.88,277.62 -389.61,332.58 26.79,-45.23 72.69,-103.16 105.85,-151.3 120.19,-174.45 210.7,-319.66 288.04,-531.88 106.66,-292.62 159.2,-597.53 141.51,-940.84 -15.66,-303.96 -71.77,-776.21 199.14,-867.36 160.36,-53.95 335.78,101.75 453.07,-45.89 213.45,-268.7 -347.11,-771.13 -913.34,-470.26 -239.79,127.42 -346.78,325.34 -449.72,636.15 -108.25,326.81 -316.87,668.14 -340.28,1013.29 -10.09,148.91 23.56,114.88 -75.53,199.4 -55.83,47.62 -94.56,76.48 -149.89,127.04l-146.29 124.84zm404.38 5703.63l2546.08 0.85c-9.46,-421.96 29.38,-879 218.77,-1199.81 190.34,-322.42 407.73,-476.41 741.57,-676.34 398.67,-238.76 478.76,-280.59 853.53,-564.7l275.56 -256.12c418.56,-479.28 644.36,-963.87 636.66,-1663.89 -1.41,-128.2 -18.52,-184.92 -90.84,-258.65 -156.49,-159.55 -391.24,-110.95 -485.62,32.7 -114.49,174.27 24.96,610.29 -307.22,1110.86 -123.64,186.31 -261.38,314.43 -433.69,452.47 -101.01,80.92 -450.14,318.39 -544.92,343.95 38.06,-28.45 89,-77.71 125.21,-109.83 193.78,-171.93 413,-453.01 553.24,-676.73 158.55,-252.91 -95.24,-564.78 -377.63,-476.94 -157.61,49.03 -168.42,133.46 -255.38,243.01 -141,177.62 -318.77,347.86 -509.77,487.3 -734.6,536.26 -1482.28,612.62 -1630.76,1828.21 -9.57,78.36 -24.4,419.55 -37.74,455.54 -65.56,-200.59 76.69,-871.22 -472.81,-1485.06 -150.72,-168.36 -357.27,-300.02 -560.26,-414.89 -201.55,-114.06 -719.66,-406.98 -878.84,-594.64 -73.31,-86.43 -127.9,-118.39 -233.57,-253.77 -74.23,-95.09 -116.14,-204.42 -234.98,-252.82 -152.14,-61.96 -296.58,-10.21 -379.8,77.99 -210.85,223.5 31.46,501.09 144.76,655.76 67.22,91.75 150.8,193.99 221.89,265.6l255.2 243.8c-143.65,-59.76 -309.78,-180.92 -432.98,-265.44 -138.44,-94.99 -220.99,-174.8 -331,-289.7 -247.99,-259 -416.03,-588.51 -433.75,-1062.9 -4.22,-113.25 1.18,-198.8 -57.63,-284.61 -55.03,-80.3 -129,-124.41 -228.75,-129.94 -220.98,-12.27 -346.46,136.4 -348.19,370.18 -6.15,826.43 329.47,1416.14 907.74,1910.63 918.02,785.02 1839.09,654.78 1785.92,2437.9z"/>
 </g>
</svg>
