<?xml version="1.0" encoding="UTF-8"?>
<!DOCTYPE svg PUBLIC "-//W3C//DTD SVG 1.1//EN" "http://www.w3.org/Graphics/SVG/1.1/DTD/svg11.dtd">
<!-- Creator: CorelDRAW -->
<svg xmlns="http://www.w3.org/2000/svg" xml:space="preserve" width="83.919mm" height="82.2326mm" version="1.1" style="shape-rendering:geometricPrecision; text-rendering:geometricPrecision; image-rendering:optimizeQuality; fill-rule:evenodd; clip-rule:evenodd"
viewBox="0 0 8385.07 8216.56"
 xmlns:xlink="http://www.w3.org/1999/xlink"
 xmlns:xodm="http://www.corel.com/coreldraw/odm/2003">
 <defs>
  <style type="text/css">
   <![CDATA[
    .fil0 {fill:#DF3655}
   ]]>
  </style>
 </defs>
 <g id="Layer_x0020_1">
  <metadata id="CorelCorpID_0Corel-Layer"/>
  <g>
   <path class="fil0" d="M7286.02 1052.85l-1117.96 8.11 22.44 4234.01c19,-57.87 75.63,-97.49 139.05,-92.52 11.03,0.87 21.65,3.04 31.72,6.34 0.05,0.01 0.1,0.04 0.15,0.05 6.12,2.02 12.03,4.46 17.71,7.27 82.1,37.2 352.83,189.1 630.52,349.36 345.83,199.59 710.53,417.84 739.34,446.75 52.03,52.32 52.31,136.59 1.04,189.27l0.02 0.02c-140.57,144.73 -363.58,274.48 -547.78,381.62 -42.69,24.83 -83.43,48.53 -110.38,64.72 -6.49,3.9 -31.2,18.99 -59.32,36.17 -186.01,113.61 -527.29,322.07 -713.38,334.32 -74.46,4.67 -138.63,-51.91 -143.29,-126.37 -0.17,-2.76 -0.25,-5.5 -0.26,-8.22l-13.08 -282.45c-32.85,184.23 -32.96,397.9 6.97,602.35 37.87,193.85 111.07,377.1 225.5,514.67 97.85,117.64 250.72,211.36 423.29,258.13 150.37,40.75 313.75,44.95 466.31,-2.8 150.54,-47.11 292.34,-146.02 402.69,-312.08 129.75,-195.26 217.3,-481.54 229.44,-882.69 4.56,-151.02 12.81,-722.89 7.76,-1162.82 -2.4,-209.21 -7.05,-384.82 -15.26,-460.1 -17.75,4.44 -37.58,40.99 -63.55,43.37l0 0.05c-4.81,0.35 -9.26,0.69 -25.98,1.58 -10.15,0.54 -29.35,1.65 -51.38,2.93 -224.11,12.95 -625.49,36.16 -783.9,-86.53 -58.98,-45.55 -69.87,-130.3 -24.32,-189.29 3.33,-4.31 6.86,-8.35 10.59,-12.14l-0.02 -0.02c182.73,-186.6 538.45,-159.78 842,-136.89 31.02,2.34 61.46,4.64 90.48,6.64l-1.58 -231.99 -0.96 0.06c-288.35,16.75 -725.03,42.1 -907.56,-84.42 -61.32,-42.34 -76.71,-126.39 -34.37,-187.71 8.15,-11.81 17.86,-21.9 28.65,-30.23 156.97,-129.67 521.95,-117.03 809.78,-107.08 32.6,1.13 64.11,2.22 93.8,3.06l-7.87 -238.09c-20.79,0.72 -42.32,1.53 -64.32,2.35 -288.52,10.79 -652.96,24.43 -844.88,-106.25 -61.61,-42.05 -77.48,-126.1 -35.43,-187.71 11.91,-17.46 27.2,-31.23 44.39,-41.07 147.01,-89.29 566.46,-81.88 850.78,-76.88 22.04,0.39 43.19,0.76 63.2,1.08l4.72 -232.93c-10.53,0.88 -21.25,1.78 -32.09,2.69 -321.41,26.93 -741.76,62.13 -914.12,-156.47 -46.13,-58.69 -35.95,-143.69 22.74,-189.83 18.91,-14.87 40.58,-23.88 62.78,-27.31 282.08,-65.93 530.62,-55.54 805.19,-44.06 18.69,0.78 37.51,1.56 56.29,2.33l-0.91 -233.23c-36.37,1.38 -73.41,3.05 -110.48,4.72 -263.75,11.88 -529.06,23.83 -773.04,-62.49 -70.37,-24.82 -107.3,-102 -82.48,-172.37 11.28,-31.99 33.38,-57.06 60.75,-72.57 172.22,-110.61 522.66,-114.75 807.1,-118.07 0.18,0 0.35,0 0.53,0 31.51,-0.36 62.13,-0.72 91.68,-1.24l2.09 -207.67c-88.48,-5.22 -177.93,-6.68 -264.52,-8.1 -259.44,-4.26 -496.03,-8.15 -645.13,-104.29 -62.78,-40.3 -81,-123.87 -40.71,-186.65 6.09,-9.48 13.16,-17.94 21,-25.34 18.11,-21.51 26.51,-30.13 78.26,-52.12 93.96,-39.94 594.61,-43.93 852.81,-45.59l-0.1 -5.35c-0.01,-0.28 0,-0.55 -0.01,-0.82 -4.72,-242.69 -12.23,-630.13 40.61,-748.91 65.37,-146.95 146.8,-164.96 231.31,-183.62 17.97,-3.97 36.52,-8.06 46.26,-21.23 21.04,-28.42 31.77,-61.36 32.75,-92.57 0.84,-26.51 -5.21,-50.01 -17.72,-65 -100.43,-120.29 -327.28,-116 -547.23,-111.85 -16.15,0.3 -32.26,0.62 -52.57,0.93 -90.85,1.41 -249.72,0.34 -436.12,-0.93 -472.11,-3.22 -1124.38,-7.66 -1259.86,22.8 -50.04,11.24 -94.08,34.77 -126.1,64.97 -20.9,19.72 -35.46,41.3 -41.14,62.35 -3.87,14.34 -2.88,29.36 4.4,43.62 9.71,19.05 29.12,39.05 60.21,59.05 133.66,85.96 495.72,72.78 822.76,60.88 213.85,-7.78 414.05,-15.06 554.13,6.84 205.11,32.09 205.69,45.38 214.44,240.54l0.46 10.27c3.21,74.46 -54.56,137.44 -129.01,140.65 -3.6,0.16 -7.16,0.16 -10.7,0.04zm-219.08 3957.69c182.05,-185.91 679.49,-86.15 972.05,-83.48l-3.51 -515.56c-238.06,8.61 -792.46,66.86 -965.72,-53.24 150.31,-134.49 714.33,-67.34 960.65,-75.05l-16.91 -511.62c-268.99,-0.55 -765.68,56.87 -963.48,-77.81 125.15,-92.49 777.24,-52.9 978.94,-57.67l10.4 -513.51c-284.37,12.77 -821.5,106.1 -977.76,-92.07 331.64,-79.5 624.8,-45 976.1,-35.61l-2 -511.03c-328.3,1.6 -679.41,56.7 -972.87,-47.11 175.11,-122.34 695.36,-91.56 966.15,-106.03l4.66 -462.76c-368.68,-40.25 -791.25,15.28 -972.78,-101.78 15.99,-14.22 4.54,-11.75 38.46,-26.17 88.26,-37.51 831.84,-33.55 936.76,-36.29 0.05,-169.6 -24,-719.28 26.88,-833.65 69.42,-156.04 175.73,-61.9 262.77,-179.46 77.12,-104.14 77.49,-244.15 10.28,-324.67 -151.41,-181.35 -437.69,-163.21 -705.03,-159.03 -322.83,5.06 -1515.77,-21.78 -1724,25.04 -243.31,54.69 -398.92,312.68 -145.99,475.33 269.94,173.59 1089.56,34.15 1429.24,87.29 99.29,15.54 96.01,21.68 100.69,123.39l-1258.38 9.13 25.63 4836.54c42,5.16 75.87,7.91 119.62,6.17 71.96,-2.89 60.16,2.64 107.98,-20.85l33.22 -411.69c90.13,29.73 1294.26,729.94 1334.3,770.11 -156.16,160.79 -442.15,311.48 -630.67,424.65 -149.75,89.89 -539.43,340.1 -711.9,351.45l-20.6 -444.79 -218.59 -2.09c-3.11,6.02 -6.79,8.18 -7.91,17.17l-23 67.24c-87.37,399.16 -26.91,949.67 250.78,1283.47 427.84,514.39 1710.18,630.83 1760.21,-1021.93 7.33,-242.43 24.09,-1567.9 -19.51,-1702.01 -25.89,-33.52 -176.9,-16.7 -219.21,-14.44 -188.88,10.03 -616.64,44.55 -745.92,-55.57zm-7066.93 1412.96l39.68 1776.8c1149.71,34.1 2812.2,4.61 4008.73,0.4l1007.8 -4.16 -23.82 -1754.16 -752.22 -2.49c-72.53,106.13 -89.49,161.42 -136.33,269.04 -72.25,166.04 -101.48,133.19 -168.5,231.19 -129.93,189.99 -96.7,256.71 -371.8,450.88 -670.54,473.24 -1787.03,350.88 -2377.03,-336.45 -255.75,-297.91 -397.53,-749.72 -356.06,-1283.59 38.78,-499.5 428.91,-1063.05 751.72,-1266.91 64.72,-40.89 225.01,-113.03 270.31,-151.91 118.4,-101.63 -4.31,-79 300.75,-100.75 359.39,-25.64 723.66,-96.63 1065.73,95.3 175.73,98.59 -67.9,11.72 253.9,146.73 106.36,44.62 182.23,112.55 248.34,173.29 254.58,233.87 451.66,648.14 531.99,1104.91l831.01 -2.24c2.34,-1002.76 -233.72,-1757.15 -1046.7,-2240.81 -188.79,-112.34 -538.45,-287.89 -769.16,-347.4 -51.27,83.85 -204.2,288.87 -269.14,357.87 -271.38,288.33 -776.66,223.87 -992.93,18.57l-287.86 -442.88c-194.67,55.8 -271.61,122.84 -410.7,228.24 -322.03,243.98 -769.38,382.47 -1061.6,835.83 -201.19,312.18 -243.85,566.08 -262.55,1000.99 -17.85,415.12 -23.82,825.92 -23.57,1243.68zm1869.85 -961.05c-112.38,-24.74 -320.49,-32.93 -398.93,-86.35 -58.32,-39.72 -121,-228.09 -183.17,-309.26l-87.2 153.1c-23.84,55.7 -49.33,116.37 -71.4,180.53 -147.63,428.89 -137.8,872.46 44.15,1263.44 335.3,720.63 1214.68,1092.24 2011.42,771.4 310.46,-125 376.22,-243.27 593.47,-417.38 121.31,-97.2 154.24,-98.47 200.82,-283.96 158.72,-632.11 465.67,-1185.48 -245.47,-1871.36 -82.69,-79.75 -161.84,-150.89 -255.92,-228.56 -116.99,-96.53 -141.53,-135.83 -334.78,-171.97 -668.83,-125.15 -1215.81,-116.07 -1586.95,291.27 -107.05,117.5 -143.51,128.87 -51.13,419.95 37.56,118.25 -12.04,40.47 51.95,75.74 63.38,34.92 747.89,93.69 973.85,289.77 342.86,297.57 -179.14,1014.34 -660.7,-76.36zm112.81 -4536.41c-251.99,317.13 -658.37,556.15 -237.53,1309.86 198.95,356.25 654.72,892.37 1184.6,455.74 294.58,-242.73 636.98,-791.02 502.67,-1363.37 -89.31,-380.68 -339.11,-180.21 -690.57,-194.92 -287.49,-12.05 -488.54,-153.69 -759.18,-207.31zm-35.32 -206.59c188.78,64.74 371.84,208.85 597.59,253.7 225.47,44.8 589.19,-24.16 831.39,-30.86 100.99,264.98 88.59,61.63 211.45,549.91 233.47,-335.93 78.68,-807.9 -120.09,-1042.61 -358.03,-422.82 -1205.28,-688.35 -1678.02,-140.94l-339.82 355.01c-154.42,216.52 -134.44,527.01 -67.83,776.61 17.16,64.35 5.63,35.37 32.06,79.82 142.52,-481.93 210.2,-336.07 396.76,-600.65 50.45,-71.56 87.06,-128.39 136.52,-200zm4443.1 5193.9l-2067.82 2.21 -39.15 378.21c489.14,38.98 1762.34,-16.15 2021.15,22.68 177.12,26.61 118.7,107.6 140.88,365.51 38.39,-2.07 887.33,-506.57 968.57,-574.57 -127.55,-156.58 -705.01,-478.42 -964.36,-578.06l-59.26 384.02zm-4389.48 -3110.69c-202.39,864.43 711.24,992.83 1042.81,551.1 112.98,-150.54 144.04,-429.48 17.33,-574.19 -168.01,6.76 -256.45,211.97 -509.58,232.1 -215.4,17.15 -383.17,-147.9 -550.55,-209.01zm1002.54 2477.83c67.92,253.15 223.04,587.68 518.42,600.3 191.35,8.16 287.88,-98.96 257.89,-299.61 -50.31,-336.62 -627.77,-393.64 -947.64,-449.89 -137.87,-24.27 -130.62,1.99 -178.98,-114.62 -134.13,-323.46 -103.45,-602.58 -560.45,-422.55 39.25,35.27 73.45,63.5 138.09,85.48 360.72,122.61 92.54,1.37 325.69,475.1 69.36,140.96 169.08,107.45 446.99,125.78zm-1573.13 803.34c93.46,149.57 300.74,35.09 366.36,231.13 41.54,124.18 134.06,325.37 215.59,392.9l419.16 1.44c120.82,580.63 856.56,759.24 772.05,243.73 -55.4,-337.86 -700.27,-370.77 -989.36,-383.86 -125.85,-5.71 -132.07,6.61 -180.83,-89.24 -50.11,-98.52 -123.16,-302.96 -175.98,-373.16 -87.44,-116.22 -303.94,-86.6 -426.99,-22.95zm1770.23 -740.3c20.46,126.65 64.7,203.85 125.75,284.95 48.14,63.92 218.41,158.55 278.08,98.59 90.05,-90.43 -19.76,-230.28 -86.85,-269.43 -80.96,-47.27 -208.53,-92.37 -316.98,-114.11zm-1156.46 153.11c32.23,123.83 290.87,511.45 435.83,369.85 91.85,-89.73 -56.67,-219.56 -108.45,-253.71 -82.13,-54.16 -206.34,-98.26 -327.38,-116.14zm573.42 1244.45c32.43,234.4 193.08,364.25 455.38,351.28 -22.55,-257.79 -205.85,-319 -455.38,-351.28zm-2482.73 -320.22l36.8 1648.11c826.79,20.59 1885.15,11.85 2843.2,3.94 364.17,-3 713.88,-5.91 1033.05,-7.02l871.65 -3.6 -20.17 -1485.5 -545.09 -1.8c-26.53,45.54 -42.44,83.23 -62.55,130.94 -9.71,23.05 -19.85,47.07 -24.15,56.95 -56.48,129.81 -94.75,165.17 -136.88,204.07 -13.28,12.27 -27.32,25.24 -43.78,49.32 -33.33,48.74 -55.47,89.98 -75.5,127.26 -62.1,115.67 -108.07,201.25 -330.14,358 -368.93,260.38 -859.46,354.82 -1334.86,287.54 -460.47,-65.17 -909.43,-282.03 -1222.47,-646.72 -143.38,-167.01 -253.82,-377.18 -321.15,-619.9 -63.36,-228.36 -88.62,-485.27 -67.17,-761.5 19.94,-256.9 123.01,-526.25 262.55,-761.43 157.06,-264.7 363.76,-490.72 552.09,-609.64 31.89,-20.14 76.72,-43.31 123.16,-67.33 56.75,-29.33 116.42,-60.18 131.29,-72.95 22.42,-19.24 31.65,-30.94 38.02,-39 25.97,-32.92 40.45,-51.23 91.9,-68.46 34.24,-11.46 69.15,-13.7 147.69,-18.69 22.81,-1.45 50.39,-3.22 101.4,-6.84 71.74,-5.12 113.95,-8.92 156.45,-12.72 328.22,-29.44 657.17,-58.94 984.9,124.94 160.7,90.17 148.32,153.09 139,200.43 -11.93,61.01 18.63,-95.19 101.16,-60.57 63.46,26.62 118.29,60.54 167.29,97 47.07,35.01 85.06,69.4 120.17,101.67 139.39,128.04 262.14,303.24 360.32,507.18 82.08,170.49 147.47,361.54 191.36,562.01l583.79 -1.57c-8.94,-427.96 -67.55,-804.88 -205.81,-1127.73 -149.07,-348.07 -393.73,-636.32 -773.57,-862.3 -3.25,-1.92 -6.37,-3.96 -9.39,-6.1 -99.84,-58.8 -245.63,-135.49 -395.78,-203.3 -82.92,-37.45 -165.21,-71.28 -238.62,-96.37 -24.79,35.22 -53.36,74.39 -82.22,112.77 -54.81,72.87 -110.99,143.33 -145.21,179.68l-1.66 1.76c-0.91,0.97 -1.84,1.92 -2.77,2.85 -164.64,171.87 -394.52,238.83 -614.71,232.09 -218.8,-6.7 -432.18,-87.59 -563.31,-211.01 -0.57,-0.54 -1.13,-1.09 -1.69,-1.63l-0.21 -0.2c-0.1,-0.1 -0.2,-0.2 -0.31,-0.3 -0.13,-0.13 -0.26,-0.25 -0.38,-0.38 -8.97,-8.65 -16.5,-18.25 -22.54,-28.49l-227.41 -349.88c-95.35,38.51 -156.81,85.41 -239.71,148.68l-33.17 25.25c-0.2,0.15 -0.4,0.29 -0.6,0.44l0.07 0.09c-102.67,77.79 -217.49,145.23 -336.14,214.92 -244.84,143.8 -507.73,298.23 -693.21,586.01 -92.21,143.08 -147.84,271.73 -182.25,413.22 -35.66,146.65 -50.17,311.13 -59.14,520.09 -8.98,209.12 -14.95,414.35 -18.57,617.69 -3.66,205.86 -5.11,411.37 -5,618.06zm1641.65 -837.67c-17.56,-2.63 -35.81,-5.12 -54.47,-7.64 -117.55,-15.99 -247.67,-33.69 -327.24,-87.87 -41.67,-28.38 -74.49,-76.75 -104.59,-132.1 -0.23,0.57 -0.45,1.13 -0.68,1.69 -10.21,25.43 -20.99,53.91 -32.4,87.1 -69.31,201.37 -101.38,405.15 -94.46,603.31 6.72,192.57 50.64,381.45 133.33,559.14 1,2.15 1.94,4.31 2.82,6.48 155.26,329.46 436.54,578.36 770.61,706.46 257.25,98.65 545.49,125.58 831.41,62.58 -33.16,-6.58 -66.82,-16.46 -100.39,-29.51 -187.23,-72.75 -383.13,-250.45 -471.79,-509.07l-306.8 -1.06c-33.45,2.37 -67.83,-7.63 -95.7,-30.69 -50.13,-41.53 -98.75,-110.98 -140.95,-187.89 -48.03,-87.53 -90.86,-189.94 -116.42,-266.35 -10.49,-31.35 -49.33,-38.97 -88.63,-46.66 -94.68,-18.53 -190.39,-37.3 -264.51,-155.91l0.09 -0.05c-1.9,-3.06 -3.7,-6.21 -5.38,-9.47 -34.16,-66.29 -8.12,-147.72 58.16,-181.88 86.55,-44.76 209.89,-76.24 321.79,-70.23 107.49,5.78 208.63,44.2 274.93,132.31 43.34,57.6 87.43,161.38 128.65,258.43 21.41,50.41 41.96,98.77 60.02,134.29 6.95,13.68 8.78,13.76 24.92,14.27 14.3,0.46 30.49,0.99 41.18,1.47 150.65,6.81 394.1,18.83 609.81,73.84 251.37,64.09 468.19,186.68 506.98,423.17 20.77,126.71 2.91,227.08 -41.8,302.22 99.84,-56.88 165.04,-115.82 240,-183.57 47.97,-43.34 99.41,-89.84 158.6,-137.28 15.21,-12.19 32.28,-25.32 47.72,-37.2 57.53,-44.26 77.84,-59.89 106.56,-174.32 20.68,-82.39 47.18,-174.14 73.4,-264.9 140.95,-488.13 272.18,-942.55 -281.32,-1476.39 -42.63,-41.11 -82.06,-77.97 -119.99,-111.89 -39.78,-35.58 -81.7,-71.57 -128.01,-109.8 -27.87,-22.99 -34.86,-28.95 -42.06,-35.04 -66.95,-56.77 -98.37,-83.41 -231.91,-108.38 -182.02,-34.05 -354.05,-57.83 -514.53,-65.65 27.15,40.37 49.93,88.48 71.2,142.49 15.54,39.44 29.17,81.23 43.67,125.76 17.31,53.09 36.03,110.5 59.64,167.45 9.64,23.26 6.94,22.92 8.27,23.09 22.19,2.97 49.35,6.61 69.18,10.1 52.41,9.21 76.87,13.2 102.71,17.41 367.08,59.77 895.62,145.82 955.44,546.16 5.61,37.56 7.59,73.95 6.12,108.93 -3.97,92.99 -33.35,169.95 -85.78,229.16 -53.32,60.22 -126.13,97.87 -216.09,111.32 -30.73,4.59 -64.54,6.14 -101.19,4.59 -169.25,-7.22 -301.25,-90.09 -403.07,-207.98 -98.44,-113.99 -166.89,-260.69 -212.21,-397.25 -19.43,-0.77 -37.04,-1.32 -53.63,-1.83 -222.68,-6.94 -321.73,-10.06 -412.29,-194.1 -103.03,-209.33 -118.35,-319.55 -124.48,-381.77 -6.41,2.61 -17.28,10.04 -51.6,-1.37 -44.48,-14.81 -47.35,-15.43 -71.89,-23.76 -44.39,-15.09 -79.04,-32.8 -109.76,-53.09l0.16 -0.24c-30.87,-20.41 -52.88,-39.27 -75.55,-59.65l0.02 -0.02c-15.19,-13.65 -27.51,-30.95 -35.44,-51.27 -2.54,-6.5 -4.55,-13.09 -6.03,-19.7 -113.23,50.24 -215.27,122.18 -305.05,220.71 -3.53,3.87 -12.43,13.47 -21.54,23.3 -48.99,52.86 -63.01,68.01 -0.5,264.98 0.04,0.11 0.07,0.23 0.1,0.34 20.24,3.4 64.37,10.27 122.36,20.42 248.71,43.53 671.49,117.57 862.62,283.42 147.53,128.05 182.55,310.96 140.7,460.99 -25.27,90.63 -78.99,170.71 -153.77,222.38 -79.28,54.79 -178.73,77.72 -289.87,49.32 -164.86,-42.13 -360.11,-208.8 -539.41,-586.27zm256.49 -4506.49c-22.8,26.32 -45.85,51.95 -68.95,77.63 -203.4,226.1 -412.35,458.36 -100.98,1016.01 43.73,78.34 100.74,165.88 168.61,248.25 93.64,113.64 207.3,216.85 332.66,268.3 112.56,46.19 239.1,48.99 374.44,-26.6 34.35,-19.17 69.48,-43.28 105.31,-72.81 149.47,-123.15 313.01,-334.52 407.01,-589.48 72.17,-195.77 101.97,-416.14 49.66,-639.06 -34.66,-147.77 -127.35,-133.88 -258.42,-114.23 -89.1,13.37 -189.04,28.36 -305.77,23.47 -190.13,-7.97 -339.16,-63.43 -490.08,-119.56 -69.51,-25.87 -139.5,-51.91 -213.5,-71.92zm-565.59 0.39c30.18,-35.17 61.16,-60.64 95.06,-88.51 38.1,-31.3 81.58,-67.06 137.86,-146.86 25.38,-36.01 50.84,-73.79 76.81,-112.36 1.64,-2.44 3.36,-4.8 5.13,-7.08 17.5,-25.98 35.3,-52.33 54.06,-79.5 35.15,-50.91 99.05,-70.15 154.82,-51l0.1 -0.29c84.22,28.88 164.53,70.58 247.22,113.51 105.97,55.02 216.52,112.42 332.4,135.44 131.96,26.22 332.59,6.69 518.63,-11.41 100.56,-9.79 197.17,-19.2 283.16,-21.57 58.86,-1.61 109.94,34.74 129.77,86.82l0.29 -0.11c31.76,83.35 49.06,110.92 63.83,133.26 -0.53,-5.61 -1.1,-11.21 -1.75,-16.81 -21.3,-185.07 -104.95,-361.35 -200.2,-473.79 -31.08,-36.72 -66.27,-71.99 -104.73,-105.21 -167.41,-144.58 -397.97,-254.46 -635.36,-286.91 -228.6,-31.24 -462.35,10.76 -646.34,166.56 -30.35,25.69 -59.27,54.23 -86.43,85.68 -1.56,1.8 -3.16,3.56 -4.79,5.26l0.03 0.03 -332.4 347.26c-50.28,74.06 -75.62,164.56 -83.98,260.31 -1.94,22.23 -2.97,44.69 -3.18,67.29zm4911.4 4971.1l-1934.39 2.07 -12.07 116.59c255.2,10.29 621.19,6.69 964.57,3.31 411.7,-4.05 791.83,-7.79 927.28,12.52 0.17,0.03 0.34,0.06 0.52,0.08l0.01 -0.08c225.57,33.89 245.27,105.79 248.52,283.69 71.58,-43.43 165.14,-100.05 264.22,-158.83 129.49,-76.82 260.72,-156.15 355.43,-215.26 -63.17,-45.85 -143.75,-97.7 -230.78,-149.87 -135.4,-81.16 -282.78,-160.38 -405.39,-219.07l-32.5 210.64c-10.92,70.87 -75.01,120.36 -145.42,114.22zm-4271.13 -3040.67c-4.85,119.81 20.36,213.97 65.36,284.39 40.96,64.1 99.51,110.01 166.67,138.47 70.45,29.85 151.32,40.83 232.87,33.88 140.18,-11.94 277.74,-77.36 363.34,-191.39 42.94,-57.23 69.68,-142.33 72.23,-227.1 1.1,-36.41 -2.29,-71.69 -10.86,-102.98 -18.65,11.93 -38.51,26.59 -59.22,41.89 -94.49,69.78 -200.2,147.85 -375.97,161.83 -182.56,14.53 -322.74,-63.9 -454.42,-138.98zm213.96 1830.52c-0.49,-0.71 -0.95,-1.34 -1.39,-1.92 4.38,6.31 7.26,10.48 1.39,1.92z"/>
  </g>
 </g>
</svg>
