<?xml version="1.0" encoding="UTF-8"?>
<!DOCTYPE svg PUBLIC "-//W3C//DTD SVG 1.1//EN" "http://www.w3.org/Graphics/SVG/1.1/DTD/svg11.dtd">
<!-- Creator: CorelDRAW -->
<svg xmlns="http://www.w3.org/2000/svg" xml:space="preserve" width="83.919mm" height="82.2326mm" version="1.1" style="shape-rendering:geometricPrecision; text-rendering:geometricPrecision; image-rendering:optimizeQuality; fill-rule:evenodd; clip-rule:evenodd"
viewBox="0 0 8385.07 8216.56"
 xmlns:xlink="http://www.w3.org/1999/xlink"
 xmlns:xodm="http://www.corel.com/coreldraw/odm/2003">
 <defs>
  <style type="text/css">
   <![CDATA[
    .fil0 {fill:#DF3655}
   ]]>
  </style>
 </defs>
 <g id="Layer_x0020_1">
  <metadata id="CorelCorpID_0Corel-Layer"/>
  <path class="fil0" d="M7290.91 917.98l-1258.38 9.13 25.63 4836.54c42,5.16 75.87,7.91 119.62,6.17 71.96,-2.89 60.16,2.64 107.98,-20.85l33.22 -411.69c90.13,29.73 1294.26,729.94 1334.3,770.11 -156.16,160.79 -442.15,311.48 -630.67,424.65 -149.75,89.89 -539.43,340.1 -711.9,351.45l-20.6 -444.79 -218.59 -2.09c-3.11,6.02 -6.79,8.18 -7.91,17.17l-23 67.24c-87.37,399.16 -26.91,949.67 250.78,1283.47 427.84,514.39 1710.18,630.83 1760.21,-1021.93 7.33,-242.43 24.09,-1567.9 -19.51,-1702.01 -25.89,-33.52 -176.9,-16.7 -219.21,-14.44 -188.88,10.03 -616.64,44.55 -745.92,-55.57 182.05,-185.91 679.49,-86.15 972.05,-83.48l-3.51 -515.56c-238.06,8.61 -792.46,66.86 -965.72,-53.24 150.31,-134.49 714.33,-67.34 960.65,-75.05l-16.91 -511.62c-268.99,-0.55 -765.68,56.87 -963.48,-77.81 125.15,-92.49 777.24,-52.9 978.94,-57.67l10.4 -513.51c-284.37,12.77 -821.5,106.1 -977.76,-92.07 331.64,-79.5 624.8,-45 976.1,-35.61l-2 -511.03c-328.3,1.6 -679.41,56.7 -972.87,-47.11 175.11,-122.34 695.36,-91.56 966.15,-106.03l4.66 -462.76c-368.68,-40.25 -791.25,15.28 -972.78,-101.78 15.99,-14.22 4.54,-11.75 38.46,-26.17 88.26,-37.51 831.84,-33.55 936.76,-36.29 0.05,-169.6 -24,-719.28 26.88,-833.65 69.42,-156.04 175.73,-61.9 262.77,-179.46 77.12,-104.14 77.49,-244.15 10.28,-324.67 -151.41,-181.35 -437.69,-163.21 -705.03,-159.03 -322.83,5.06 -1515.77,-21.78 -1724,25.04 -243.31,54.69 -398.92,312.68 -145.99,475.33 269.94,173.59 1089.56,34.15 1429.24,87.29 99.29,15.54 96.01,21.68 100.69,123.39zm-7290.9 5505.52l39.68 1776.8c1149.71,34.1 2812.2,4.61 4008.73,0.4l1007.8 -4.16 -23.82 -1754.16 -752.22 -2.49c-72.53,106.13 -89.49,161.42 -136.33,269.04 -72.25,166.04 -101.48,133.19 -168.5,231.19 -129.93,189.99 -96.7,256.71 -371.8,450.88 -670.54,473.24 -1787.03,350.88 -2377.03,-336.45 -255.75,-297.91 -397.53,-749.72 -356.06,-1283.59 38.78,-499.5 428.91,-1063.05 751.72,-1266.91 64.72,-40.89 225.01,-113.03 270.31,-151.91 118.4,-101.63 -4.31,-79 300.75,-100.75 359.39,-25.64 723.66,-96.63 1065.73,95.3 175.73,98.59 -67.9,11.72 253.9,146.73 106.36,44.62 182.23,112.55 248.34,173.29 254.58,233.87 451.66,648.14 531.99,1104.91l831.01 -2.24c2.34,-1002.76 -233.72,-1757.15 -1046.7,-2240.81 -188.79,-112.34 -538.45,-287.89 -769.16,-347.4 -51.27,83.85 -204.2,288.87 -269.14,357.87 -271.38,288.33 -776.66,223.87 -992.93,18.57l-287.86 -442.88c-194.67,55.8 -271.61,122.84 -410.7,228.24 -322.03,243.98 -769.38,382.47 -1061.6,835.83 -201.19,312.18 -243.85,566.08 -262.55,1000.99 -17.85,415.12 -23.82,825.92 -23.57,1243.68zm1869.85 -961.05c-112.38,-24.74 -320.49,-32.93 -398.93,-86.35 -58.32,-39.72 -121,-228.09 -183.17,-309.26l-87.2 153.1c-23.84,55.7 -49.33,116.37 -71.4,180.53 -147.63,428.89 -137.8,872.46 44.15,1263.44 335.3,720.63 1214.68,1092.24 2011.42,771.4 310.46,-125 376.22,-243.27 593.47,-417.38 121.31,-97.2 154.24,-98.47 200.82,-283.96 158.72,-632.11 465.67,-1185.48 -245.47,-1871.36 -82.69,-79.75 -161.84,-150.89 -255.92,-228.56 -116.99,-96.53 -141.53,-135.83 -334.78,-171.97 -668.83,-125.15 -1215.81,-116.07 -1586.95,291.27 -107.05,117.5 -143.51,128.87 -51.13,419.95 37.56,118.25 -12.04,40.47 51.95,75.74 63.38,34.92 747.89,93.69 973.85,289.77 342.86,297.57 -179.14,1014.34 -660.7,-76.36zm112.81 -4536.41c-251.99,317.13 -658.37,556.15 -237.53,1309.86 198.95,356.25 654.72,892.37 1184.6,455.74 294.58,-242.73 636.98,-791.02 502.67,-1363.37 -89.31,-380.68 -339.11,-180.21 -690.57,-194.92 -287.49,-12.05 -488.54,-153.69 -759.18,-207.31zm-568.6 594.06c142.52,-481.93 210.2,-336.07 396.76,-600.65 50.45,-71.56 87.06,-128.39 136.52,-200 188.78,64.74 371.84,208.85 597.59,253.7 225.47,44.8 589.19,-24.16 831.39,-30.86 100.99,264.98 88.59,61.63 211.45,549.91 233.47,-335.93 78.68,-807.9 -120.09,-1042.61 -358.03,-422.82 -1205.28,-688.35 -1678.02,-140.94l-339.82 355.01c-154.42,216.52 -134.44,527.01 -67.83,776.61 17.16,64.35 5.63,35.37 32.06,79.82zm4976.37 4393.25l-2067.82 2.21 -39.15 378.21c489.14,38.98 1762.34,-16.15 2021.15,22.68 177.12,26.61 118.7,107.6 140.88,365.51 38.39,-2.07 887.33,-506.57 968.57,-574.57 -127.55,-156.58 -705.01,-478.42 -964.36,-578.06l-59.26 384.02zm-4389.48 -3110.69c-202.39,864.43 711.24,992.83 1042.81,551.1 112.98,-150.54 144.04,-429.48 17.33,-574.19 -168.01,6.76 -256.45,211.97 -509.58,232.1 -215.4,17.15 -383.17,-147.9 -550.55,-209.01zm91.78 1791.47c39.25,35.27 73.45,63.5 138.09,85.48 360.72,122.61 92.54,1.37 325.69,475.1 69.36,140.96 169.08,107.45 446.99,125.78 67.92,253.15 223.04,587.68 518.42,600.3 191.35,8.16 287.88,-98.96 257.89,-299.61 -50.31,-336.62 -627.77,-393.64 -947.64,-449.89 -137.87,-24.27 -130.62,1.99 -178.98,-114.62 -134.13,-323.46 -103.45,-602.58 -560.45,-422.55zm-662.36 1489.7c93.46,149.57 300.74,35.09 366.36,231.13 41.54,124.18 134.06,325.37 215.59,392.9l419.16 1.44c120.82,580.63 856.56,759.24 772.05,243.73 -55.4,-337.86 -700.27,-370.77 -989.36,-383.86 -125.85,-5.71 -132.07,6.61 -180.83,-89.24 -50.11,-98.52 -123.16,-302.96 -175.98,-373.16 -87.44,-116.22 -303.94,-86.6 -426.99,-22.95zm1770.23 -740.3c20.46,126.65 64.7,203.85 125.75,284.95 48.14,63.92 218.41,158.55 278.08,98.59 90.05,-90.43 -19.76,-230.28 -86.85,-269.43 -80.96,-47.27 -208.53,-92.37 -316.98,-114.11zm-1156.46 153.11c32.23,123.83 290.87,511.45 435.83,369.85 91.85,-89.73 -56.67,-219.56 -108.45,-253.71 -82.13,-54.16 -206.34,-98.26 -327.38,-116.14zm1028.8 1595.73c-22.55,-257.79 -205.85,-319 -455.38,-351.28 32.43,234.4 193.08,364.25 455.38,351.28z"/>
 </g>
</svg>
