<svg width="143" height="118" viewBox="0 0 143 118" fill="none" xmlns="http://www.w3.org/2000/svg">
<path fill-rule="evenodd" clip-rule="evenodd" d="M1.88965 35.1496V74.4567C1.88965 80.8819 7.93689 86.9291 13.6062 89.9527L30.6141 100.157C36.6613 103.559 42.3306 106.583 47.9999 110.362L56.6928 115.276C60.4723 116.787 64.6298 116.031 64.6298 111.496V72.1889C64.6298 66.1417 59.3385 60.4724 54.4251 57.4488C49.1337 54.4252 44.2204 51.4015 38.929 48.3779L11.7164 32.126C7.18099 29.4803 1.88965 29.4803 1.88965 35.1496Z" stroke="#df3655" stroke-width="3.77953"/>
<path fill-rule="evenodd" clip-rule="evenodd" d="M8.31494 45.3544V74.8347C8.31494 79.7481 13.2283 84.2835 17.3858 86.5512L31.3701 94.1103C35.9055 96.7559 40.4409 99.0237 44.9764 101.669L51.7795 105.449C54.8031 106.583 58.2047 106.205 58.2047 102.425V72.9449C58.2047 68.4095 54.0472 64.252 50.2677 62.3622C46.1102 59.7166 41.9527 57.8268 37.7953 55.1811L15.874 43.0867C12.4724 41.1969 8.31494 41.1969 8.31494 45.3544Z" stroke="#df3655" stroke-width="3.77953"/>
<path fill-rule="evenodd" clip-rule="evenodd" d="M77.4802 72.1889V111.496C77.4802 114.52 79.7479 116.031 82.3936 116.031C85.4172 116.031 95.9999 109.228 99.0235 107.339C105.071 103.559 131.527 88.4409 133.795 86.5511C134.929 85.4173 136.063 84.2834 136.819 83.1496C138.331 81.2598 140.598 77.4803 140.598 74.4567V35.1496C140.598 31.748 138.331 30.6141 135.685 30.6141C132.661 30.6141 122.079 37.4173 119.055 38.9291C113.008 42.7086 86.5511 57.8267 84.2834 60.0945C81.2598 63.1181 77.4802 67.2756 77.4802 72.1889Z" stroke="#df3655" stroke-width="3.77953"/>
<path fill-rule="evenodd" clip-rule="evenodd" d="M85.0393 72.1889V102.425C85.0393 105.071 86.5511 106.205 88.8188 106.205C91.0866 106.205 99.0236 100.913 101.291 99.4015C106.205 96.7559 126.614 85.0393 128.126 83.5275C128.882 82.3937 129.638 81.6378 130.394 80.8819C131.527 79.3701 133.417 76.7244 133.417 74.0787V43.8425C133.417 41.1968 131.527 40.4409 129.638 40.4409C126.992 40.4409 119.055 45.3543 116.787 46.8661C112.252 49.8897 91.4645 61.2283 89.9527 63.1181C87.685 65.3858 85.0393 68.4094 85.0393 72.1889Z" stroke="#df3655" stroke-width="3.77953"/>
<path fill-rule="evenodd" clip-rule="evenodd" d="M45.7322 22.6772C45.7322 26.8347 46.1101 29.4803 47.9999 33.2598C51.0235 39.685 58.9605 45.7323 65.7637 45.7323C70.2991 45.7323 73.3227 45.7323 77.4802 43.4646C83.9054 40.441 89.9526 32.8819 89.9526 25.7008C89.9526 18.1417 88.8188 13.6063 83.1495 7.93701C78.6141 3.40158 73.7007 1.88977 66.5196 1.88977C55.9369 1.88977 45.7322 11.7165 45.7322 22.6772Z" stroke="#df3655" stroke-width="3.77953"/>
<path fill-rule="evenodd" clip-rule="evenodd" d="M52.9133 23.0552C52.9133 25.7009 52.9133 27.5906 54.0472 30.2363C56.3149 34.7717 61.6062 38.9292 66.5196 38.9292C69.5433 38.9292 71.811 38.9292 74.4566 37.4174C78.9921 35.1497 82.7716 29.8583 82.7716 24.945C82.7716 20.0316 82.3936 16.63 78.6141 12.8505C75.2125 9.82685 71.811 8.69299 66.8976 8.69299C59.7165 8.69299 52.9133 15.4961 52.9133 23.0552Z" stroke="#df3655" stroke-width="3.77953"/>
</svg>
