<svg width="70" height="112" viewBox="0 0 70 112" fill="none" xmlns="http://www.w3.org/2000/svg">
<path fill-rule="evenodd" clip-rule="evenodd" d="M1.51181 23.811C1.88976 23.4331 1.88976 22.6772 2.26772 22.2992C4.15748 17.7638 7.93701 12.4724 10.9606 9.82677C14.3622 6.04724 20.0315 3.02362 24.9449 1.51181C25.7008 1.51181 26.8346 1.13386 27.9685 0.755906C29.1024 0.755906 30.2362 0.377953 30.9921 0.377953C32.126 0.377953 33.6378 0 35.5276 0C36.6614 3.02362 37.0394 6.04724 37.0394 9.82677C37.0394 10.9606 37.0394 12.0945 37.0394 13.2283C36.2835 12.8504 35.1496 12.8504 34.3937 12.8504C29.4803 12.8504 24.9449 14.7402 21.5433 17.3858C20.7874 17.7638 20.0315 18.5197 19.6535 18.8976C18.5197 20.0315 17.3858 21.1654 16.6299 22.2992C14.7402 24.9449 12.8504 28.3465 12.8504 31.3701C11.3386 41.9528 17.0079 52.1575 27.2126 55.937C28.3465 56.315 29.1024 56.315 30.6142 56.6929C31.748 56.6929 33.6378 57.0709 34.3937 57.0709C36.2835 57.0709 38.5512 56.6929 40.4409 56.315C49.5118 53.6693 56.315 44.9764 56.315 34.7717C56.315 25.3228 50.2677 17.0079 41.5748 13.9843C42.3307 9.44882 41.9528 4.91339 40.4409 0.377953C44.5984 1.13386 46.4882 2.64567 49.8898 3.77953C56.6929 7.1811 62.3622 12.4724 65.7638 19.2756C70.2992 28.3465 70.6772 39.685 66.5197 48.7559C64.6299 53.2913 63.4961 54.8032 60.8504 58.2047C57.0709 62.7402 46.8661 69.1654 40.8189 69.1654V87.685C54.0472 87.685 52.9134 86.5512 52.9134 96.7559C52.9134 98.2677 51.7795 99.7795 50.6457 99.7795H40.8189C40.8189 112.63 41.9528 111.118 31.3701 111.118C29.8583 111.118 28.7244 109.984 28.7244 108.472V99.7795H19.2756C15.874 99.7795 16.6299 95.2441 16.6299 90.7087C16.6299 89.1969 18.1417 87.685 19.6535 87.685H28.7244V69.1654C23.4331 69.1654 14.3622 64.252 10.5827 60.0945C8.31496 57.8268 6.04724 55.1811 4.53543 52.1575C3.77953 50.6457 3.02362 49.5118 2.26772 47.622V47.2441C1.88976 46.4882 0.377953 42.3307 0 36.6614C0 32.126 0 28.7244 1.51181 23.811ZM20.7874 96H30.6142C31.3701 96 32.5039 97.1339 32.5039 97.8898V107.339H36.6614C36.6614 93.7323 34.7717 96 48.7559 96V91.8425C40.8189 91.8425 36.6614 93.3543 36.6614 88.4409V68.7874C36.6614 63.1181 41.9528 68.4094 54.4252 58.9606C59.3386 54.8032 63.4961 48.378 64.6299 41.5748C66.8976 32.8819 64.6299 24.9449 61.2283 19.2756C58.2047 13.9843 50.2677 6.80315 45.7323 6.4252V11.7165C49.8898 14.3622 51.7795 15.1181 55.5591 20.0315C63.4961 30.9921 61.6063 47.2441 49.5118 55.937C40.8189 62.7402 27.9685 62.7402 18.8976 55.937C17.3858 54.8032 17.0079 54.4252 15.4961 52.9134C3.77953 41.1968 6.4252 20.0315 22.6772 11.7165C25.3228 10.5827 29.4803 9.07087 32.8819 9.07087C32.8819 6.80315 32.5039 6.04724 32.5039 4.15748C24.9449 4.53543 17.7638 8.31496 12.4724 13.9843C1.13386 24.9449 0.755906 44.5984 12.8504 56.6929C17.0079 60.8504 21.9213 63.874 27.5906 65.0079C30.6142 65.7638 32.5039 65.3858 32.5039 67.6535V89.5748C32.5039 91.0866 31.748 91.8425 30.2362 91.8425H20.7874V96Z" fill="#CB3148"/>
</svg>
