<?xml version="1.0" encoding="UTF-8"?>
<!DOCTYPE svg PUBLIC "-//W3C//DTD SVG 1.1//EN" "http://www.w3.org/Graphics/SVG/1.1/DTD/svg11.dtd">
<!-- Creator: CorelDRAW -->
<svg xmlns="http://www.w3.org/2000/svg" xml:space="preserve" width="86.8247mm" height="85.2298mm" version="1.1" style="shape-rendering:geometricPrecision; text-rendering:geometricPrecision; image-rendering:optimizeQuality; fill-rule:evenodd; clip-rule:evenodd"
viewBox="0 0 8664.16 8505.01"
 xmlns:xlink="http://www.w3.org/1999/xlink"
 xmlns:xodm="http://www.corel.com/coreldraw/odm/2003">
 <defs>
  <style type="text/css">
   <![CDATA[
    .fil0 {fill:#DF3655}
   ]]>
  </style>
 </defs>
 <g id="Layer_x0020_1">
  <metadata id="CorelCorpID_0Corel-Layer"/>
  <path class="fil0" d="M5821.5 5917.44l2538.8 5.43 2.37 -1933.36c-15.45,-33.27 12.48,-13.77 -42.79,-33.01 -57.97,-20.19 -166.84,-4.86 -231.46,-3.34l-4799.43 1c143.58,490.15 100.18,406.85 100.2,943.98 0.03,300.55 -26.78,753.69 5.39,1035.87l515.65 0.95c49.69,-279.44 126.66,-481.21 286.36,-620.8 510.25,-445.95 1223.19,-294.4 1515.27,248.61 72.66,135.02 66.01,210.09 109.64,354.67zm-3299.14 1327.89l0.37 -700.46c711.13,-10.08 626.66,-178.98 626.59,-840.27 -0.05,-249.14 0.02,-498.29 0.02,-747.46 0,-166.16 19.98,-604.16 -8.08,-736.23 -78.99,-371.88 -841.53,-267.09 -1229.28,-267.09 -327.72,0 -1215.87,-41.02 -1480.49,15.9 -230.23,49.51 -306.53,174.73 -307.27,436.26l0.49 1495.34c-0.07,274.54 -34.81,459.56 171.92,573.61 256.26,141.37 1066.75,36.19 1419.88,69.25 135.56,12.69 166.63,80.58 233.1,145.95 115.02,113.19 500.65,520.87 572.77,555.21zm676.72 1259.67l3334.54 0c-5.35,-1114.57 -516.7,-1689.84 -1651.46,-1668.79 -526.71,9.76 -998.21,107.06 -1277.77,383.9 -272.84,270.2 -416.47,762.05 -405.31,1284.89zm-1926.96 -4796.49c165.42,53.04 5329.39,21.7 5970.46,21.67 334.38,0 668.8,-0.09 1003.18,-0.07 125.87,0.03 358.34,49.19 399.09,-83.63 27.65,-90.14 31.18,-401.67 -27.01,-458.31 -77.95,-75.83 -1703.2,-35.22 -1945.68,-35.22l-5015.91 0c-367.7,-0.05 -468.3,-106.13 -384.13,555.56zm3786.89 -778.52l3262.68 0.07c-0.54,-406.24 -161.24,-806.88 -441.31,-1069.58 -495.85,-465.09 -1873.75,-451.27 -2370.6,-13.35 -244.94,215.87 -456.55,593.91 -450.78,1082.86zm-1787.21 -1255.49c1.05,-322.86 21.19,-438.67 -172.02,-643.77 -68.56,653.14 176.04,961.64 -315.1,1106.07l-0.37 -1389.06c-58.41,-39.69 -120.53,-65.61 -192.2,-67.45 -10.48,244.91 -1.77,508.9 -1.67,755.89 0.09,182.81 21.83,614.2 -11.28,767.28l-289.82 16.22 -7.92 -1543.43 -192.76 44.45 -0.42 1420.74c-107.31,-41.59 -224.48,-115.12 -305.92,-181.48l-7.29 -929.21c-160.87,136.14 -190.16,355.65 -194.65,623.68l-101.15 -98.6c-160.35,236.72 -108.36,290.85 -34.28,386.56 101.21,130.68 167.14,214.84 301.02,308.65 547.41,383.55 1235.91,274.75 1665.92,-298.58 340.38,-453.83 406.96,-1180.86 1037.61,-1381.16 129.64,-41.16 454.2,-11.89 392.96,-210.07 -58.34,-188.85 -726.39,-109.98 -1149.59,515.56 -137.68,203.54 -291.06,662.66 -421.07,797.7zm1436.01 3631.9c-916.64,223.91 -660.94,1591.75 319.86,1408.32 351.25,-65.67 639.71,-433.7 546.01,-856.32 -76.53,-345.26 -424.68,-659.79 -865.87,-552zm1819.4 -5286.57c-239.54,55.27 -328.46,138.02 -433.61,287.64 -380.69,541.76 117.75,1260.62 759.36,1112 349.16,-80.9 626.66,-448.69 535.68,-878.79 -71.86,-339.68 -436.89,-618.77 -861.42,-520.85zm-3158.62 1183.19c98.18,-221.08 218.5,-234.51 -37.8,-517.21 -284.99,-314.36 -692.54,-472.57 -1140.09,-386.19 -370.05,71.44 -711.13,386.45 -879.79,711.94 -86.92,167.79 -165.76,366.34 -258.44,548.87 -279.25,550.13 -491.87,563.09 -926.32,667.33 -139.6,33.5 -161.26,158.5 -75.16,223.59 162.59,122.93 655.24,-105.4 856.89,-268.75 589.96,-477.84 555.35,-1672.64 1535.4,-1650.64 639.92,14.38 858.83,603.12 925.32,671.07zm-3001.32 -653.4l0.3 1484.49c73.76,1.12 140.63,-27.88 190.33,-66.84l3.52 -1315.59c56.23,8.08 155.71,74.41 189.35,117.18 68.79,87.48 26.83,723.51 36.77,940.76 222.11,-90.82 187.79,-492.35 198.46,-623.61l95.76 121.41c95.86,-298.17 205.59,-176.83 -8.96,-466.48 -168.81,-227.89 -648.03,-542.36 -964.59,-459.43 -104.41,27.37 -250.05,262.99 259.06,268.1zm3947.37 220.99l-3.55 1335.71c-76.41,-26.78 -139.12,-69.51 -190.16,-124.97 -95.63,-103.9 -37.31,-661.41 -53.44,-950.35 -202.77,204.07 -164.11,300.6 -195.74,633.85 -44.56,-47.16 -42.86,-60.87 -91.12,-108.54l-94.83 180.19c-109.38,240.97 761.23,940.55 1154.7,682.32l-9.2 -163.81c-87.52,-37.66 -231.67,-51.22 -344.91,-70.46l-0.28 -1490.67 -171.48 76.74zm-3484.53 3929.92l1612.96 -0.24c136.96,0.03 164.23,0.56 254.63,-57.24l7.85 -126.36c-129.76,-75.95 -84.66,-57.34 -301.84,-57.43l-1652.28 -0.03c-108.42,0 -201.95,33.74 -168.29,153.58 27.25,96.97 137.31,87.81 246.97,87.72zm-78.67 1336.89l1770.3 0.23c148.35,-0.14 196.47,-29.65 180.33,-182.84 -124.67,-92.3 -400.96,-58.11 -593.38,-58.11l-1298.95 -0.39c-324.7,4.27 -288.97,240.83 -58.3,241.11zm-134.63 -709.01c86.05,72.93 360.62,29.67 488.7,29.67 261.64,0 1473.38,25.77 1553.33,-24.24 127.03,-79.43 33.66,-198.94 -137.1,-199.08l-1750.64 -0.02c-271.13,0.16 -199.82,146.67 -154.28,193.67zm5204.69 589.02c19.8,22.95 -31.29,26.76 142.35,24.55 52.5,-0.65 105.03,-0.37 157.54,-0.37 326.58,0 2122.66,15.27 2254.69,-8.27 23.91,-186.49 5.81,-1338.35 5.97,-1703.99l-19.38 -239.85 -2.37 1933.36 -2538.8 -5.43z"/>
 </g>
</svg>
