<?xml version="1.0" encoding="UTF-8"?>
<!DOCTYPE svg PUBLIC "-//W3C//DTD SVG 1.1//EN" "http://www.w3.org/Graphics/SVG/1.1/DTD/svg11.dtd">
<!-- Creator: CorelDRAW -->
<svg xmlns="http://www.w3.org/2000/svg" xml:space="preserve" width="88.0087mm" height="86.4133mm" version="1.1" style="shape-rendering:geometricPrecision; text-rendering:geometricPrecision; image-rendering:optimizeQuality; fill-rule:evenodd; clip-rule:evenodd"
viewBox="0 0 8782.64 8623.43"
 xmlns:xlink="http://www.w3.org/1999/xlink"
 xmlns:xodm="http://www.corel.com/coreldraw/odm/2003">
 <defs>
  <style type="text/css">
   <![CDATA[
    .str0 {stroke:#DF3655;stroke-width:118.28;stroke-linejoin:bevel;stroke-miterlimit:22.9256}
    .fil0 {fill:none}
   ]]>
  </style>
 </defs>
 <g id="Layer_x0020_1">
  <metadata id="CorelCorpID_0Corel-Layer"/>
  <path class="fil0 str0" d="M5880.75 5976.62l2538.9 5.43 2.37 -1933.44c-15.45,-33.27 12.48,-13.77 -42.79,-33.01 -57.97,-20.19 -166.84,-4.86 -231.47,-3.34l-4799.61 1c143.58,490.17 100.18,406.87 100.2,944.02 0.03,300.57 -26.78,753.72 5.39,1035.91l515.67 0.95c49.7,-279.45 126.67,-481.23 286.38,-620.82 510.27,-445.96 1223.24,-294.41 1515.32,248.62 72.66,135.03 66.01,210.09 109.64,354.68zm-3299.26 1327.94l0.37 -700.49c711.15,-10.08 626.68,-178.99 626.61,-840.31 -0.05,-249.15 0.02,-498.31 0.02,-747.49 0,-166.17 19.98,-604.19 -8.08,-736.26 -79,-371.9 -841.56,-267.1 -1229.33,-267.1 -327.73,0 -1215.92,-41.02 -1480.55,15.9 -230.24,49.51 -306.54,174.74 -307.28,436.27l0.49 1495.4c-0.07,274.55 -34.81,459.58 171.92,573.63 256.27,141.38 1066.79,36.19 1419.93,69.26 135.57,12.69 166.63,80.58 233.11,145.96 115.02,113.2 500.67,520.89 572.79,555.23zm676.75 1259.71l3334.67 0c-5.35,-1114.62 -516.72,-1689.9 -1651.52,-1668.86 -526.73,9.76 -998.25,107.07 -1277.82,383.91 -272.85,270.21 -416.49,762.08 -405.33,1284.94zm-1927.03 -4796.67c165.43,53.04 5329.59,21.7 5970.69,21.68 334.4,0 668.82,-0.09 1003.22,-0.07 125.88,0.03 358.36,49.19 399.1,-83.64 27.65,-90.14 31.19,-401.69 -27.01,-458.33 -77.95,-75.83 -1703.26,-35.22 -1945.75,-35.22l-5016.1 0c-367.72,-0.05 -468.32,-106.13 -384.14,555.58zm3787.03 -778.55l3262.81 0.07c-0.54,-406.26 -161.25,-806.91 -441.32,-1069.62 -495.87,-465.1 -1873.82,-451.28 -2370.69,-13.35 -244.95,215.88 -456.56,593.94 -450.79,1082.9zm-1787.28 -1255.53c1.05,-322.87 21.19,-438.69 -172.02,-643.79 -68.56,653.16 176.04,961.67 -315.12,1106.11l-0.37 -1389.12c-58.41,-39.69 -120.53,-65.61 -192.21,-67.45 -10.48,244.92 -1.77,508.92 -1.67,755.92 0.09,182.82 21.83,614.22 -11.28,767.31l-289.83 16.22 -7.92 -1543.49 -192.77 44.45 -0.42 1420.79c-107.32,-41.59 -224.48,-115.12 -305.93,-181.48l-7.29 -929.24c-160.88,136.15 -190.17,355.66 -194.66,623.71l-101.15 -98.61c-160.36,236.73 -108.37,290.86 -34.28,386.58 101.21,130.69 167.14,214.84 301.04,308.66 547.43,383.56 1235.95,274.76 1665.98,-298.59 340.39,-453.85 406.98,-1180.91 1037.65,-1381.21 129.64,-41.16 454.22,-11.9 392.97,-210.07 -58.34,-188.86 -726.42,-109.98 -1149.63,515.58 -137.68,203.55 -291.08,662.68 -421.09,797.73zm1436.06 3632.04c-916.68,223.92 -660.97,1591.81 319.88,1408.38 351.26,-65.67 639.73,-433.72 546.03,-856.35 -76.53,-345.27 -424.7,-659.81 -865.9,-552.02zm1819.47 -5286.77c-239.55,55.28 -328.47,138.02 -433.63,287.65 -380.7,541.78 117.76,1260.66 759.38,1112.04 349.18,-80.9 626.68,-448.71 535.7,-878.83 -71.86,-339.69 -436.9,-618.8 -861.45,-520.87zm-3158.74 1183.23c98.19,-221.09 218.51,-234.52 -37.8,-517.23 -285,-314.37 -692.56,-472.59 -1140.13,-386.21 -370.06,71.44 -711.15,386.47 -879.82,711.96 -86.92,167.79 -165.77,366.35 -258.45,548.89 -279.26,550.15 -491.89,563.11 -926.36,667.35 -139.61,33.5 -161.27,158.5 -75.16,223.6 162.59,122.93 655.26,-105.4 856.92,-268.76 589.99,-477.86 555.37,-1672.71 1535.45,-1650.7 639.94,14.38 858.87,603.14 925.36,671.1zm-3001.43 -653.42l0.3 1484.55c73.77,1.12 140.64,-27.88 190.33,-66.84l3.52 -1315.64c56.23,8.08 155.72,74.42 189.36,117.19 68.8,87.48 26.83,723.54 36.77,940.8 222.12,-90.82 187.8,-492.37 198.47,-623.64l95.76 121.42c95.86,-298.18 205.59,-176.83 -8.96,-466.5 -168.82,-227.9 -648.05,-542.38 -964.63,-459.45 -104.41,27.37 -250.06,263 259.07,268.11zm3947.52 221l-3.55 1335.76c-76.41,-26.78 -139.12,-69.52 -190.17,-124.97 -95.63,-103.9 -37.31,-661.44 -53.44,-950.39 -202.78,204.08 -164.12,300.62 -195.74,633.87 -44.56,-47.16 -42.86,-60.87 -91.12,-108.54l-94.83 180.2c-109.38,240.98 761.26,940.59 1154.74,682.34l-9.2 -163.82c-87.52,-37.66 -231.68,-51.22 -344.92,-70.46l-0.28 -1490.73 -171.48 76.74zm-3484.66 3930.07l1613.02 -0.24c136.97,0.03 164.24,0.56 254.64,-57.24l7.85 -126.37c-129.76,-75.95 -84.66,-57.34 -301.85,-57.43l-1652.34 -0.03c-108.42,0 -201.96,33.74 -168.3,153.58 27.25,96.97 137.31,87.82 246.98,87.73zm-78.68 1336.94l1770.36 0.23c148.35,-0.14 196.48,-29.65 180.34,-182.85 -124.67,-92.31 -400.98,-58.11 -593.4,-58.11l-1299 -0.39c-324.72,4.27 -288.98,240.84 -58.3,241.12zm-134.63 -709.04c86.05,72.93 360.63,29.67 488.72,29.67 261.65,0 1473.43,25.77 1553.39,-24.24 127.04,-79.44 33.66,-198.95 -137.11,-199.09l-1750.71 -0.02c-271.14,0.16 -199.83,146.68 -154.29,193.68zm5204.89 589.04c19.8,22.95 -31.3,26.76 142.35,24.55 52.5,-0.65 105.03,-0.37 157.54,-0.37 326.59,0 2122.74,15.27 2254.78,-8.27 23.91,-186.49 5.81,-1338.4 5.97,-1704.05l-19.38 -239.86 -2.37 1933.44 -2538.9 -5.43z"/>
 </g>
</svg>
