<?xml version="1.0" encoding="UTF-8"?>
<!DOCTYPE svg PUBLIC "-//W3C//DTD SVG 1.1//EN" "http://www.w3.org/Graphics/SVG/1.1/DTD/svg11.dtd">
<!-- Creator: CorelDRAW -->
<svg xmlns="http://www.w3.org/2000/svg" xml:space="preserve" width="85.7467mm" height="86.0233mm" version="1.1" style="shape-rendering:geometricPrecision; text-rendering:geometricPrecision; image-rendering:optimizeQuality; fill-rule:evenodd; clip-rule:evenodd"
viewBox="0 0 8541.31 8568.86"
 xmlns:xlink="http://www.w3.org/1999/xlink"
 xmlns:xodm="http://www.corel.com/coreldraw/odm/2003">
 <defs>
  <style type="text/css">
   <![CDATA[
    .fil0 {fill:#DF3655}
   ]]>
  </style>
 </defs>
 <g id="Layer_x0020_1">
  <metadata id="CorelCorpID_0Corel-Layer"/>
  <path class="fil0" d="M82.65 1939.66l327.61 -119.42c37.77,-178.21 -232,-933.83 352.39,-689.19 320.78,134.29 643.51,392.43 1020.28,398.22 624.76,9.63 1030.31,-426.21 1494.68,63.91 123.34,130.17 617.97,1026.55 671.41,1222.62 192.76,707.06 -13.99,1474.06 205.31,1691.56 103.44,-375.4 21.55,-1584.05 29.49,-2131l58.99 -664.26c2.24,-7.63 6,-19.58 10.68,-28.65 182.17,52.16 119.09,117.22 119.45,591.39l0.12 2256.05c195.61,-35.85 132.61,-107.63 138.17,-326.29l119.58 -1314.28c40.2,-211.62 521.24,-1058.96 648.62,-1247.01 375.37,-554.14 797.19,-136.21 1444.01,-104.23 602.18,29.73 828.67,-496.59 1430.05,-423.92 72.98,204.31 32.01,473.16 29.57,693.58l289.21 155.75c17.7,-342.55 218.26,-1380.9 -158.87,-1419.82 -196.12,-20.26 -868.97,390 -1209.17,455.62 -698.54,134.69 -889.35,-326.48 -1259.19,-316.93 -466.78,12.06 -1002.97,131.96 -1523.91,149.76 -567.68,19.42 -1012.36,-122.02 -1523.38,-123.22 -573.04,-1.36 -631.04,425.49 -1330.73,296.31 -392.48,-72.46 -914.97,-468.89 -1204.96,-427.32 -416.9,59.79 -221.98,1022.83 -179.42,1360.76zm3162.67 2304.61c189.81,113.98 371.42,199.23 655.18,249.52 -37.65,-1927.2 -15.11,-1290.61 -582.36,-2501.37 -104.64,-223.22 -252.08,-467.45 -571.77,-420.02 288.31,870.52 300.63,642.03 517.25,1184.82 210.79,528.25 28.54,941.06 -18.31,1487.05zm4392.01 -1763.06c-139.68,-9.23 -123.09,-14.3 -165.74,-142.92 -25.7,-77.58 -53.03,-185.61 -71.86,-264.86 -247.04,90.65 -665.69,460.66 -506.46,843.9 113.87,273.93 673.41,520.69 965.93,237.36 -211.03,-380.13 -450.15,-67.19 -533.84,-372.26 316.82,-172.74 658.38,167.22 772.52,289.44 767.08,-505.82 267.47,-1193.17 -291.15,-1106.08 -323.54,50.39 -70.07,339.67 -169.39,515.41zm-2949.84 1996.59c225.22,-20.86 491.15,-124.89 625.25,-240.28 -7.07,-606.22 -243.12,-857.29 -7.07,-1486.49 167.34,-446.11 404.06,-649.62 512.65,-1197.08 -436.59,48.48 -550.62,434.15 -716.88,791.3 -60.12,129.06 -130.29,198.43 -194.2,312.71 -231.61,414.25 -208.15,1286.42 -219.74,1819.85zm-4257.72 -1439.41c128.26,-168.66 68.7,-376.53 398.43,-467.65 236.88,-65.46 546.86,16.78 584.68,241.16 -418.54,-45.16 -757.93,-191.68 -775.08,351.03 387,181.65 994.1,103.64 1027,-379.13 29.85,-438.36 -419.46,-745.42 -828.96,-793.54 -125.65,153.67 -133.29,390.83 -347.99,331.6 -29.53,-78.29 -7.19,-107.39 7.31,-145.11 34.54,-90.09 46.61,-60.08 82.3,-193.72 -291.76,35.45 -519.05,162.86 -524.41,461.14 -5.79,323.37 190.29,475.4 376.73,594.23zm2426.15 -2566.24l45.52 33.81c159.43,92.53 404.67,109.71 583.88,130.17 624.96,71.34 1619.98,29.69 2178.68,-130.73 -342.15,-332.4 -863.17,-490.95 -1376.19,-504.54 -718.17,-18.99 -930.35,281.64 -1431.9,471.29zm1328.14 6946.17l-46.52 22.62c-203.12,87.13 -171.06,-10.31 -151.52,493.27l588.8 -14.98 30.01 -407.59c-55,-19.58 -50.44,-13.03 -102.36,-35.01 -8.92,-3.76 -38.17,-15.75 -47.32,-20.06l-71.14 -38.25c3.36,-134.48 9.55,-273.45 9.91,-407.5 0.56,-201.43 -1.52,-255.31 -106.59,-350.11 -190.65,145.52 -110.23,522.25 -103.28,757.61zm186.13 -2666.95l4.39 375.13c196.03,37.92 477.13,-13.47 636.75,-96.8 190.69,-99.56 258.55,-249.48 301.19,-533.95l-942.34 255.62zm-179.62 390.16l-2.48 -403.82c-345.59,-53.47 -662.36,-193.88 -935.71,-233.37 88.89,540.92 380.81,610.38 938.19,637.19zm576.69 2986.85l1279.66 24.26c270.13,0 483.44,92.37 461.46,-180.49l-1442.77 -11.87c-214.1,-0.56 -297.36,-47.8 -298.35,168.1zm-785.75 440.48l590.35 0c16.55,-150.6 62.39,-313.39 -1.76,-460.9 -720.01,23.5 -611.17,-74.9 -588.59,460.9zm394.59 -3216.31l-4.15 457.46c494.99,-0.64 525.89,-162.31 647.83,-579l-643.68 121.54zm-186.04 456.59l-4.11 -453.27 -636 -132.81c15.83,81.42 124.21,361.11 167.59,430.85 100.68,162.03 267.61,155.87 472.52,155.23zm193 208.86l-11.7 402.27 373.69 -15.03 -4.72 -439.67 -357.26 52.44zm-571.65 389.76l377.93 11.55 -9.31 -405.23 -344.32 -44.13 -24.31 437.8z"/>
 </g>
</svg>
