<?xml version="1.0" encoding="UTF-8"?>
<!DOCTYPE svg PUBLIC "-//W3C//DTD SVG 1.1//EN" "http://www.w3.org/Graphics/SVG/1.1/DTD/svg11.dtd">
<!-- Creator: CorelDRAW -->
<svg xmlns="http://www.w3.org/2000/svg" xml:space="preserve" width="86.931mm" height="87.2085mm" version="1.1" style="shape-rendering:geometricPrecision; text-rendering:geometricPrecision; image-rendering:optimizeQuality; fill-rule:evenodd; clip-rule:evenodd"
viewBox="0 0 8659.77 8687.41"
 xmlns:xlink="http://www.w3.org/1999/xlink"
 xmlns:xodm="http://www.corel.com/coreldraw/odm/2003">
 <defs>
  <style type="text/css">
   <![CDATA[
    .str0 {stroke:#DF3655;stroke-width:118.08;stroke-linecap:square;stroke-linejoin:round;stroke-miterlimit:22.9256}
    .fil0 {fill:none}
   ]]>
  </style>
 </defs>
 <g id="Layer_x0020_1">
  <metadata id="CorelCorpID_0Corel-Layer"/>
  <path class="fil0 str0" d="M141.62 1998.8l327.63 -119.43c37.77,-178.22 -232.02,-933.89 352.41,-689.23 320.8,134.29 643.54,392.45 1020.33,398.25 624.8,9.63 1030.36,-426.23 1494.77,63.91 123.35,130.18 618,1026.61 671.45,1222.69 192.77,707.1 -13.99,1474.15 205.32,1691.66 103.44,-375.42 21.55,-1584.14 29.5,-2131.12l58.99 -664.29c2.24,-7.63 6,-19.58 10.68,-28.65 182.18,52.16 119.1,117.23 119.46,591.42l0.12 2256.18c195.62,-35.85 132.62,-107.64 138.18,-326.3l119.59 -1314.35c40.21,-211.64 521.27,-1059.02 648.65,-1247.08 375.4,-554.17 797.23,-136.22 1444.09,-104.24 602.21,29.74 828.72,-496.62 1430.14,-423.95 72.99,204.32 32.02,473.19 29.58,693.62l289.23 155.76c17.7,-342.57 218.27,-1380.97 -158.88,-1419.9 -196.14,-20.26 -869.02,390.02 -1209.24,455.65 -698.58,134.7 -889.4,-326.5 -1259.26,-316.95 -466.8,12.06 -1003.03,131.97 -1523.99,149.76 -567.71,19.43 -1012.41,-122.03 -1523.47,-123.23 -573.07,-1.36 -631.07,425.51 -1330.81,296.33 -392.5,-72.46 -915.02,-468.92 -1205.03,-427.35 -416.93,59.79 -222,1022.88 -179.43,1360.83zm3162.85 2304.74c189.82,113.99 371.44,199.24 655.22,249.53 -37.66,-1927.31 -15.11,-1290.68 -582.39,-2501.51 -104.65,-223.23 -252.09,-467.48 -571.8,-420.04 288.33,870.57 300.64,642.07 517.28,1184.89 210.8,528.28 28.54,941.12 -18.31,1487.14zm4392.25 -1763.16c-139.69,-9.23 -123.1,-14.3 -165.75,-142.93 -25.7,-77.58 -53.04,-185.62 -71.86,-264.87 -247.05,90.65 -665.73,460.69 -506.49,843.95 113.87,273.95 673.45,520.72 965.98,237.38 -211.04,-380.15 -450.18,-67.19 -533.88,-372.28 316.84,-172.75 658.42,167.23 772.57,289.46 767.13,-505.85 267.48,-1193.24 -291.17,-1106.14 -323.55,50.4 -70.07,339.69 -169.4,515.44zm-2950.01 1996.7c225.23,-20.86 491.18,-124.9 625.28,-240.3 -7.07,-606.26 -243.13,-857.34 -7.07,-1486.58 167.35,-446.13 404.08,-649.66 512.68,-1197.15 -436.62,48.48 -550.65,434.18 -716.92,791.34 -60.12,129.06 -130.3,198.45 -194.21,312.73 -231.62,414.28 -208.16,1286.49 -219.75,1819.95zm-4257.96 -1439.49c128.27,-168.67 68.71,-376.55 398.46,-467.68 236.9,-65.47 546.89,16.79 584.71,241.17 -418.56,-45.17 -757.97,-191.69 -775.13,351.05 387.02,181.66 994.15,103.64 1027.06,-379.15 29.86,-438.38 -419.49,-745.46 -829.01,-793.59 -125.66,153.68 -133.3,390.86 -348.01,331.62 -29.54,-78.3 -7.19,-107.4 7.31,-145.12 34.54,-90.09 46.61,-60.08 82.3,-193.73 -291.78,35.45 -519.08,162.87 -524.44,461.16 -5.79,323.39 190.3,475.43 376.75,594.26zm2426.29 -2566.38l45.52 33.81c159.44,92.53 404.69,109.72 583.91,130.18 624.99,71.35 1620.07,29.7 2178.8,-130.74 -342.17,-332.42 -863.22,-490.98 -1376.26,-504.57 -718.21,-18.99 -930.4,281.66 -1431.98,471.32zm1328.22 6946.56l-46.52 22.62c-203.13,87.13 -171.07,-10.31 -151.53,493.3l588.83 -14.98 30.01 -407.61c-55,-19.58 -50.45,-13.03 -102.37,-35.02 -8.92,-3.76 -38.17,-15.75 -47.32,-20.06l-71.15 -38.25c3.36,-134.49 9.55,-273.47 9.91,-407.52 0.56,-201.44 -1.52,-255.33 -106.6,-350.13 -190.66,145.53 -110.24,522.28 -103.28,757.65zm186.14 -2667.1l4.39 375.16c196.05,37.92 477.15,-13.47 636.79,-96.81 190.7,-99.57 258.56,-249.49 301.21,-533.98l-942.39 255.64zm-179.63 390.18l-2.48 -403.85c-345.61,-53.47 -662.4,-193.89 -935.76,-233.38 88.9,540.95 380.83,610.41 938.24,637.23zm576.72 2987.02l1279.73 24.26c270.15,0 483.47,92.37 461.48,-180.5l-1442.85 -11.87c-214.12,-0.56 -297.38,-47.81 -298.37,168.11zm-785.8 440.5l590.39 0c16.55,-150.61 62.39,-313.4 -1.76,-460.93 -720.05,23.5 -611.21,-74.9 -588.62,460.93zm394.61 -3216.49l-4.15 457.49c495.01,-0.64 525.92,-162.32 647.87,-579.03l-643.71 121.54zm-186.05 456.61l-4.11 -453.3 -636.03 -132.82c15.83,81.43 124.22,361.13 167.59,430.87 100.68,162.04 267.63,155.88 472.55,155.24zm193.01 208.88l-11.7 402.29 373.71 -15.03 -4.72 -439.7 -357.28 52.44zm-571.68 389.78l377.96 11.56 -9.31 -405.25 -344.33 -44.13 -24.31 437.82z"/>
 </g>
</svg>
