<?xml version="1.0" encoding="UTF-8"?>
<!DOCTYPE svg PUBLIC "-//W3C//DTD SVG 1.1//EN" "http://www.w3.org/Graphics/SVG/1.1/DTD/svg11.dtd">
<!-- Creator: CorelDRAW -->
<svg xmlns="http://www.w3.org/2000/svg" xml:space="preserve" width="86.3276mm" height="80.7067mm" version="1.1" style="shape-rendering:geometricPrecision; text-rendering:geometricPrecision; image-rendering:optimizeQuality; fill-rule:evenodd; clip-rule:evenodd"
viewBox="0 0 8599.43 8039.51"
 xmlns:xlink="http://www.w3.org/1999/xlink"
 xmlns:xodm="http://www.corel.com/coreldraw/odm/2003">
 <defs>
  <style type="text/css">
   <![CDATA[
    .str0 {stroke:#DF3655;stroke-width:101.21;stroke-miterlimit:22.9256}
    .fil4 {fill:none}
    .fil3 {fill:#A69BBA}
    .fil2 {fill:#C9BED4}
    .fil0 {fill:#DF3655}
    .fil1 {fill:#FEFEFE}
   ]]>
  </style>
 </defs>
 <g id="Layer_x0020_1">
  <metadata id="CorelCorpID_0Corel-Layer"/>
  <g id="_2221811634832">
   <path class="fil0" d="M2299 5227.97l81.29 3.02 -1.7 168.74 -75.47 4.75 -4.12 -176.51zm-166.85 -1444.01l396.11 2.45 -0.5 148.7c-123.97,6.63 -339.19,-45.69 -299.82,98.35 69.24,25.24 213.24,7.76 300.04,10.18l0.26 141.26c-80.37,8.84 -312.53,-33.54 -309.26,63.34 2.8,83.02 157.64,38.35 308.13,51.25l2.68 188.7c-206.58,3.77 -334.7,-34.96 -292.9,95.09 64.81,25.22 204.8,10.84 290.25,13.16l1.41 127.03c-148.9,7.91 -306.33,-24.06 -312.57,52.81 -6,73.91 82.31,57.3 138.21,56.53 57.32,-0.79 113.59,-0.88 173.47,0.88l2.28 120.53c-67.89,0.24 -381.52,-28.17 -288.19,78.4 35.48,37.9 230.26,17.47 283.48,19.11l1.51 73.23 -394.23 -2.29 -0.37 -1338.7zm156.13 -228.39l56.97 -1.83 -0.2 127.01 -57 0.06 0.23 -125.23zm-53.93 -2368.87c224.77,-45.14 434.57,123.54 466.02,314.32 84.45,512.3 -690.8,648.5 -802.01,130.13 -52.98,-246.99 135.57,-404.2 335.99,-444.45zm1743.92 345.23c-67.82,53.01 -132.79,62.05 -228.79,64.13 -253.4,5.48 -264.96,-153.31 42.15,-171.24 103.76,-6.06 195.83,-4.58 186.65,107.1zm-3252.97 -96.46c65.95,-25.81 193.46,-9.31 260.49,12.72 94.71,31.14 137.99,97.86 25.75,133.15 -212.04,66.66 -492.16,-65.29 -286.24,-145.87zm-167.02 98.63c-165.92,-26.93 -388.21,-178.92 -433.3,-289.66 -25.17,-61.81 -23.14,-131.21 4.58,-192.48 103.51,-228.73 475.27,-147.02 703.83,-82.94 262.5,73.6 518.68,134.24 771.63,6.73 107.31,-54.09 170.45,-130.11 284.06,-181.44 114.13,-51.57 238.13,-82.76 382.39,-87.81 380.93,-13.32 484.47,120 690.57,245 520.15,315.48 1183.42,-299.07 1476.82,74.81 99.18,126.38 32.98,232.18 -53.24,320.01 -87.89,89.53 -157.88,116.04 -290.72,167.5 -7.38,-65.76 -24.04,-77.16 -43.18,-119.84 139.03,-44.16 408.55,-111.13 312.52,-313.62 -117.81,-248.42 -624.06,12.54 -1058.42,32.42 -89.53,4.09 -222.53,17.82 -252.24,80.95 -25.96,55.14 -50.19,197.85 -53.91,269.3 -22.78,437.26 -227.64,532.93 -317.83,672.18 -63.86,98.58 -39.78,163.59 -38.91,282.55 2.39,328.53 -137.67,367.26 -166.5,484.7 -10.78,43.9 -8.6,102.22 -19.72,146.8 -15.28,61.25 -34.78,61.52 -35.34,133.17 -0.43,54.83 3.35,110.54 0.98,165.89 -2.5,58.31 -11.03,74.33 -58.13,90.74l-3.72 -726.66c39.28,-35.33 74.68,-35 111.08,-74.01 30.08,-32.25 46.9,-79.38 49.41,-137.43 13.73,-317.99 -70.6,-243.3 190.12,-553.82 198.4,-236.3 213.31,-617.56 79.23,-875.66 -124.31,-239.3 -574.48,-279.66 -821.74,-156.23 -300.01,149.75 -307.57,566.47 -225.37,810.22 51.46,152.58 129.09,230.13 222.13,336.44 21.63,24.71 56.28,70.73 76.33,109.98 86.92,170.17 -40.42,321.27 95.86,462.6 19.79,20.53 25.83,27.68 49.49,43.35 16.32,10.81 46.07,25.12 54.31,44.05 12.7,66.35 13.92,643.32 -0.9,691.41 -13.28,-14.45 -21.67,-16.21 -26.84,-55.69 -2.99,-22.81 -2.24,-57.63 -2.18,-81.3 0.28,-103.88 -36.84,-337.4 -80.49,-417.92 -121.32,-223.79 -155.71,-122.6 -166.15,-492.36 -7.17,-254.12 -129.6,-299.35 -225.8,-439.59 -303.61,-442.5 61.38,-782.96 -501.5,-811.93 -188.34,-9.69 -373.72,-62.4 -548.22,-103.69 -177.51,-42.01 -433.44,-76.77 -477.5,104.94 -43.42,179.07 215.06,253.91 361.2,291.62 -9.73,53.23 -18.16,61.82 -14.69,126.72zm1629.4 3695.43c15.3,27.83 9.84,32.47 10.02,84.17 0.12,33.87 2.32,54.71 -4.27,88.17l-88.69 6.37c-31.65,15.53 -61,55.77 -14.9,89.07 31.21,31.22 464.12,18.19 527.37,5.7 9.83,-31.41 23.19,-64.04 -15.92,-91.82l-121.41 -4.25c-4.54,-56.31 -11.89,-127.11 5.95,-178.83l240.67 -3.83c28.19,-39.05 20.3,-47.35 3.75,-89.84l-97.13 -8.83c-10.89,-261.25 -4.03,-550.38 -2.06,-815.13 1.01,-134.36 -0.88,-268.97 -0.95,-403.37 -0.11,-222.23 40.83,-225.15 -183.82,-225.38 -1.57,-84.55 -14.51,-136.62 14,-164.2 3.65,-3.54 11.41,-10.31 16.61,-15.62 40.3,-41.1 49.14,-90.57 51.55,-153.88 1.68,-44.13 -1.97,-91.99 -0.1,-134.42 1.93,-43.78 19.71,-67.85 30.86,-103.78 26.98,-86.98 -2.9,-155.14 44.81,-224.98 43.44,-63.58 65.22,-95.51 96.05,-172.89 140.24,-351.99 -80.18,-381.83 171.59,-635.15 32.15,-32.34 79.96,-109.77 109.95,-159.14 249.04,-410 -44.21,-671.27 374.76,-703.44 162.54,-12.48 303.56,-44.21 455.42,-78.8 127.57,-29.06 361.8,-107.37 455.48,-12.99 12.68,85.06 -52.84,110.58 -125,135.87 -295.83,103.72 -512.14,17.36 -646.36,160.24 -187.53,199.61 211.16,379.53 528.34,239.07 36.53,-16.18 58.18,-36.43 85.56,-48.42 134.75,-59.03 180.67,-37.31 345.06,-183.1 251.26,-222.86 131.35,-556.48 -192.38,-617.45 -434.54,-81.82 -853.39,334.71 -1305.29,13.28 -110.3,-78.46 -191.26,-134.79 -347.97,-179.98 -281.99,-81.32 -616.51,-45.52 -862.75,113.07 -116.77,75.21 -181.92,156.85 -355.66,182.18 -382.19,55.72 -808.38,-231.6 -1139.3,-116 -336.4,117.52 -359.01,534.03 77.07,747.13 64.76,31.64 341.63,117.95 406.57,129.56 163.39,29.2 342.64,7.24 417.94,-98.79 89.85,-126.55 -43.04,-242.22 -202.35,-269.41 -95.34,-16.27 -627.56,-25.78 -631.08,-174.54 -3.89,-164.46 499.7,-1.71 627.91,22.45 104.75,19.75 393.75,35.95 454.1,82.88 166.81,129.69 -18.69,347.98 288.88,776.16 95.79,133.35 156.41,84.27 168.77,360.37 8.74,195.46 20.23,280.36 112.57,423.69 62.08,96.36 63.68,38.7 78.91,187.05 9.23,89.89 53.36,147.9 56.87,216.15 4.5,87.74 -15.74,165.23 26.49,241.2 44.05,79.22 62.32,37.41 47.45,208.41 -147.86,50.42 -154.36,-87.84 -154.91,243.93l-1.75 1212.74c-38.15,-0.45 -77.85,-8.11 -97.11,17.31 -87.26,115.14 212.2,82.11 259.85,82.02z"/>
   <path class="fil0" d="M4189.09 7602.72l-1063.62 0.84c9.8,-15.05 53.05,-26.84 68.9,-32.58 247.78,-89.71 461.88,-344.67 882.36,-49.5l112.35 81.25zm2086.18 -1201.73c22.95,32.67 50.17,60.11 40.43,118.64 -114.02,3.87 -269.39,-1.18 -380,-20.71 68.22,-30.71 261.36,-110.24 339.56,-97.93zm-559.29 -180.17c10.91,65.49 35.44,98.34 62.27,147.31 11.79,21.56 19.49,42.55 37.33,65.8 19.55,25.51 33.18,31.45 52.03,55.61 -59.79,6.91 -152.76,-5.46 -209.91,-20.45 18.46,-79.71 20.28,-184.81 58.28,-248.28zm104.44 -39.17c-3.05,-155.59 17.13,-318.67 29.56,-475.04 20.86,-262.66 -12,-316.6 214.96,-275.53 41.38,71.39 76.94,507.13 89.86,631.13l-334.37 119.44zm-322.04 -278.81c144.62,0.21 110.29,-20.61 173.51,-49.68 -14.37,341.77 -136.78,265.86 -114.05,607.16 -49.33,-1.19 -248.39,-27.2 -282.82,-44.3 -87.07,-43.22 -171.82,-409.59 -656.31,-297.71 -138.1,31.9 -329.32,149.31 -449.11,214.35 -64.13,34.82 -154.43,79.12 -212.87,117.97 -89.3,59.36 -76.57,106.55 -239.42,93.46 -20.15,-74.89 -24.9,-162.98 -83.59,-203.59 -59.95,-41.49 -129.13,-56.38 -213.24,-69.58 -4.08,-46.45 14.42,-137.87 14.09,-202.56 -0.34,-64.14 26.52,-107.15 33.57,-164.61l2030.25 -0.91zm-2163.32 121.17c-110.89,-62.82 -106.89,-271.72 119.94,-339.85l-1.08 157.02c-65.75,57.74 -65.26,-7 -118.86,182.83zm224.01 -1568.93c-0.71,-216.83 71.51,-175.48 263.8,-175.67 296.46,-0.31 593,-0.39 889.46,0.09 148.19,0.24 296.54,0.05 444.74,-0.27 498.69,-1.06 449.62,-69.9 448.01,455.29l-3.56 889.47c0.02,77.96 21.62,161.94 -52.32,174.49l-1105.78 2.47c-144.21,-0.49 -797.98,9.24 -884.07,-5.98l-0.28 -1339.9zm2348.82 869.96c-0.34,-97.67 -1.6,-110.33 100.4,-106.37l13.84 95.06 -114.24 11.31zm-199.22 483.89c-0.45,-3.15 -0.74,-5.79 -1.04,-9.19 -0.57,-6.45 0.38,-32.67 0.58,-40.83 0.6,-24.59 0.64,-48.25 0.39,-72.87l0.9 -1010.57c34.57,27.51 73.73,98.76 105.7,145.36 62.34,90.92 71.01,51.44 145.12,103.33 14.05,106.58 -117.6,227.37 -140.81,287.03l-69.23 364.46c-10.71,81.94 -6.73,186.41 -34.7,257.8l-6.9 -24.51zm508.46 -1276.1c64.46,-86.63 235.91,-160.64 352.37,-52.29 147.19,136.95 -75.77,313.04 -306.38,345.77 -129.42,18.37 -81.45,-22.68 -208.55,44.76l162.56 -338.24zm-2765.62 1039.44c-143.86,70.71 -223.45,74.36 -276.49,231.45 -78.6,232.79 130.21,320.57 149.78,337.39l-20.65 96.5c-50.77,-8.37 -89.01,-40.71 -149.34,-29.92 -41.11,7.36 -95.71,39.2 -129.31,56.54 -66.01,34.07 -231.28,-0.29 -331.75,19.44 -407.11,79.98 -585.96,545.9 -409.04,971.31 71.93,172.96 278.14,351.6 394.31,347.92 -180.06,18.92 -405.44,-59.13 -499.89,152.54 -32.86,73.64 -35.57,203.45 24.13,253.69 55.34,46.57 223.27,25.83 306.1,25.43 434.27,-2.04 868.93,2.75 1303.17,0.37l2937.33 -0.44c41.67,0.16 127.47,8.79 151.65,-15.56 37.95,-38.2 8.41,-83.51 -47.7,-87.21 -196.62,-12.97 -449.4,-0.05 -652.12,0.29l-3932.9 -0.1c-6.65,-251.32 79.22,-226.82 302.62,-225.98l1603.12 -0.54c709.92,-1.36 1420.89,4.39 2130.59,-0.46 175.25,-1.21 353.78,4.05 528.29,0.77 114.1,-2.14 113.29,-99.99 -0.12,-101.95 -603.7,-10.42 -1249.76,2.06 -1862.38,-0.9 -175.01,-0.85 -353.09,12.19 -520.5,-20.9 -314.46,-62.14 -430.01,-335.36 -762.27,-307.47 -384.79,32.29 -760.3,502.76 -1184.97,113.92 -298.74,-273.53 -240.81,-935.32 235.93,-1006.4 102.17,-15.23 173.42,13 245.03,6.17 63.07,-6.02 141.38,-73.57 206.33,-62.56 32.14,5.45 57.43,34.43 96.22,42.83 53.19,11.52 249.92,-26.64 302.18,99.81 34.28,82.92 -4.01,133.39 87.49,171.04 175.93,72.38 311.54,-96.08 387.01,-133.58 61.3,-30.47 117.32,-62.51 175.02,-93.78 207.73,-112.55 519.54,-322.6 780.3,-132.48 119.04,86.78 99.95,215.6 276.14,251.28 251.15,50.84 983.52,118.4 1238.75,86.02 85.58,-10.86 189.95,4.71 144.64,-104.34 -60.61,-25.12 -172.05,4.18 -248.97,5.06l-32.04 -128.12c71.47,-36.92 165.97,-40.03 247.4,-84.41 76.79,-41.85 132.19,-82.19 206.65,-124.47 134.74,-76.5 203.28,-66.47 195.59,-129.87 -12.77,-105.21 -173.68,0.7 -225.87,27.3 -223.75,114.03 -195.25,167.52 -470.84,201.77 -341.57,42.44 -475.31,189.38 -483.87,6.25 63.61,-51.79 371.33,-103.4 428.9,-142.58 3.96,-64.45 -64.16,-115.45 -62.96,-376.02 150.23,-19.35 494.38,-32.3 601.4,-89.22 31.89,-144.76 -157.53,-67.07 -258.04,-51.32 -115.84,18.17 -233.73,20.5 -351.74,35.55 -22.27,-93.68 -17.03,-235.64 -61.57,-308.87 -18.27,-30.02 -25.17,-26.05 -31.84,-61.94 -17.82,-96 7.71,-87.48 -98.01,-184.65 0.78,-236.58 235.97,-132.38 446.15,-229.45 120.64,-55.72 318.08,-226.83 209.4,-411.69 -137.33,-233.58 -508.02,-165.35 -613.78,110.52 -17.79,46.42 -20.69,77.21 -46.63,118.38 -25.7,40.77 -52.96,53.16 -71.62,107.01 -100.89,-52.1 -76.79,-143.03 -244.9,-276.95 -10.35,-417.53 -115.15,-351.19 -647.01,-348.98 -143.77,0.6 -1405.71,-15.84 -1483.68,15.99 -147.74,60.3 -123.9,209.53 -125.2,377.35 -1.41,182.67 10.31,891.73 -3.6,1003.24z"/>
   <path class="fil0" d="M5902.35 2799.84c-117.26,-16.6 -288.66,107.69 -381.16,155.64 54.15,-114.9 197.95,-294.51 159.8,-356.99 -42.93,-45.47 -146.42,-28.03 -216.1,-26.88 13.32,-50.43 135.63,-222.57 21.82,-246.3 -37.98,-7.93 -284.58,8.11 -352.55,6.53 25.44,-31.42 223.89,-125.89 279.52,-164.41 138.88,-96.18 -104.24,-170.42 -156.14,-215.1l69.97 -46.64c12.6,-6.36 218.38,-72.87 87.01,-169.61 -84.17,-61.98 -208.49,-104.57 -297.26,-164.36 76.96,-5.93 294.96,2.04 347.99,-13.49 111.11,-32.53 19.8,-190.01 -13.78,-233.33 134.15,-39.83 308.74,18.25 133.23,-234.44 -28.84,-41.52 -72.44,-105.11 -93.01,-149.26 186.41,21.77 430.13,352.42 419.56,-86.82 85,18.67 175.48,119.96 255.59,39.11 52.93,-53.42 28.26,-237.14 30.96,-329.24 60.05,59.4 134.09,191.26 170.23,239.08 83.81,110.9 178.8,-48.89 220.6,-87.56 11.35,-10.5 6.54,-7.18 16.42,-14.15 42.46,38.18 142.76,204.63 240.79,105.7 21.21,-21.4 57.65,-90.93 79.16,-127.95l86.63 -126.46c1.82,97.11 -23.05,308.29 45.46,349.03 100.88,51.75 162.02,-62.41 236.21,-62.17 15.24,112.95 5.1,274.3 165.41,197.7 45.81,-21.89 229.79,-124.12 258.66,-127.56 -129.27,261.58 -269.76,380.12 102.69,367.49 -20.22,77.4 -101.7,240.18 -1.21,279.07 33.06,12.79 302.98,3.04 358.93,1.38l-228.34 177.51c-41.73,57.95 -9.78,117.83 35.52,140.28 44.4,21.99 96.43,45.8 129.41,76.69 -66.72,79.24 -217.5,95.12 -163.54,205.26 17.36,35.43 182.97,135.42 227.36,177.2 -61.78,1.72 -317.91,-14.63 -354.6,-0.88 -116.83,43.83 18.64,185.68 18.01,242.67 -430.83,5.68 -155.78,200.07 -91.96,379.37 -244.63,-89.09 -388.53,-315.97 -411.84,64.85 -64.39,-10.18 -208.14,-112.58 -272.22,-28.7 -30.49,39.91 -19.91,260.88 -22.53,328.16l-12.2 -12.2c-47.88,-54.24 -144.1,-252.73 -175.05,-268.6 -142.48,-14.51 -149.29,76.47 -219.72,148.49 -33.08,-19.31 -67.56,-76.13 -93.18,-108.37 -27.48,-34.6 -101.93,-56.31 -145.65,-21.72l-177.5 255.01c0.4,-306.61 59.9,-447.57 -272.96,-309.3 -16.54,-93.49 -16.44,-125.12 -44.44,-203.76zm181.91 -1989.46c-56.83,-7.68 -154.48,-74.48 -211.29,-65.63 -79.84,12.44 -51.21,142.13 -73.51,222.7 -109.54,-30.71 -261.63,-168.47 -396.88,-142.26 -63.61,85.26 -22.96,131.77 22.5,207.48 37.16,61.87 81.76,121.65 118.77,184.63 -71.66,0.69 -190.71,-6.5 -208.7,56.35 -14.96,52.28 57.82,132.52 69.71,189.68 -110.38,0.3 -464.25,-42.13 -431.61,113.49 12.9,61.47 276.1,190.08 340.12,217.62 -2.01,1.89 -5.38,1.66 -6.47,5.18 -1.09,3.48 -4.99,4 -6.5,4.99l-41.33 22.39c-44.9,23.83 -125.53,70.25 -125.75,125.21 -0.27,71.76 119.38,114.86 177.73,155.26 -42.41,31.93 -136.87,76.48 -191.01,107.7 -69.75,40.22 -157.24,68.81 -138,171.55 76.53,81.91 297.39,49.97 423.59,46.04 -14.63,58.87 -78.3,146.31 -62.8,199.73 19.21,66.16 141.98,42.48 217.12,41 -27.48,77.94 -243.39,331.85 -135,397.58 82.56,50.07 249.29,-96.43 400.49,-163.32 11.89,91.87 -8.13,194.82 80.11,208.2 80.4,12.19 131.8,-63.48 209.17,-63.57 0.42,70.61 -4.7,326.64 8.79,363.64 29.34,80.53 117.72,54.26 156.58,10.93 47.73,-53.22 137.66,-211.52 177.72,-283.38 64.97,40.69 85.86,162.7 168.06,164.18 80.75,1.45 124.5,-116.11 175.68,-164.68l22.25 27.98c74.47,115.23 173.92,353.76 281.64,285.3 68.33,-43.41 46.24,-279.13 46.29,-393.76 69.48,14.61 145.74,73.86 207.69,69.41 155.8,-11.18 1.94,-256.64 125.96,-199.98 110.55,50.48 279.15,184.93 353.35,151.96 135.9,-60.4 -81.6,-310.02 -111.08,-399.62 103.1,-11.85 188.12,3.1 215.54,-47.14 32.23,-62.82 -33.06,-143.97 -55.23,-200.59 87.79,0.42 401.36,25.53 434.38,-49.91 46.57,-106.42 -205.28,-205.96 -259.48,-268.91l93.28 -72.65c31.88,-24.45 80.1,-41.12 76.9,-102.78 -4.18,-80.95 -135.67,-104.79 -187.97,-155.45 156.09,-85.61 469.71,-328.72 90.98,-331.18 -86.63,-0.56 -173.69,-0.35 -260.3,1.12 47.15,-212.68 162.16,-284.48 -178.99,-278.55 33.69,-71.9 232.87,-345.79 108.68,-395.49 -74.19,-29.69 -304.73,138.58 -394.24,163.45 -21.85,-85.1 10.14,-194.38 -75.54,-211.03 -75.66,-14.7 -140.11,58.27 -210.78,67 -14.18,-141.95 18.94,-350.63 -51.09,-390.8 -105.26,-14.77 -141.95,50.65 -181.36,121.84 -30.6,55.26 -87.99,139.6 -107.33,193.79 -31.1,-13.23 -17.29,-0.96 -46.22,-36.43 -31.84,-39.04 -73.78,-118.49 -124.64,-124.62 -91.56,-11.03 -103.99,111.15 -174.69,159.4 -50.96,-63.04 -181.18,-287.55 -225.29,-306.38 -163.1,-69.64 -109.25,202.09 -130.01,391.31z"/>
   <path class="fil1" d="M558.28 1534.09c-3.47,-64.9 4.96,-73.49 14.69,-126.72 -146.14,-37.71 -404.62,-112.55 -361.2,-291.62 44.06,-181.72 299.99,-146.95 477.5,-104.94 174.49,41.29 359.88,94 548.22,103.69 562.88,28.98 197.88,369.43 501.5,811.93 96.21,140.24 218.63,185.47 225.8,439.59 10.44,369.76 44.83,268.57 166.15,492.36 43.65,80.52 80.77,314.04 80.49,417.92 -0.06,23.68 -0.81,58.49 2.18,81.3 5.17,39.49 13.56,41.24 26.84,55.69 14.81,-48.09 13.6,-625.06 0.9,-691.41 -8.24,-18.93 -37.99,-33.24 -54.31,-44.05 -23.66,-15.67 -29.69,-22.82 -49.49,-43.35 -136.28,-141.32 -8.94,-292.43 -95.86,-462.6 -20.05,-39.26 -54.71,-85.27 -76.33,-109.98 -93.04,-106.31 -170.67,-183.86 -222.13,-336.44 -82.2,-243.75 -74.64,-660.47 225.37,-810.22 247.25,-123.42 697.43,-83.07 821.74,156.23 134.08,258.1 119.17,639.35 -79.23,875.66 -260.72,310.53 -176.4,235.84 -190.12,553.82 -2.51,58.05 -19.33,105.18 -49.41,137.43 -36.4,39.01 -71.8,38.68 -111.08,74.01l3.72 726.66c47.11,-16.41 55.63,-32.42 58.13,-90.74 2.37,-55.35 -1.4,-111.06 -0.98,-165.89 0.57,-71.65 20.06,-71.92 35.34,-133.17 11.13,-44.58 8.95,-102.9 19.72,-146.8 28.84,-117.44 168.9,-156.17 166.5,-484.7 -0.87,-118.97 -24.95,-183.98 38.91,-282.55 90.19,-139.25 295.05,-234.93 317.83,-672.18 3.73,-71.44 27.95,-214.16 53.91,-269.3 29.71,-63.13 162.71,-76.85 252.24,-80.95 434.36,-19.88 940.6,-280.84 1058.42,-32.42 96.03,202.5 -173.49,269.47 -312.52,313.62 19.15,42.67 35.8,54.08 43.18,119.84 132.85,-51.46 202.83,-77.97 290.72,-167.5 86.23,-87.83 152.42,-193.63 53.24,-320.01 -293.39,-373.88 -956.66,240.67 -1476.82,-74.81 -206.1,-125 -309.64,-258.32 -690.57,-245 -144.26,5.05 -268.26,36.24 -382.39,87.81 -113.61,51.33 -176.74,127.35 -284.06,181.44 -252.95,127.51 -509.13,66.87 -771.63,-6.73 -228.56,-64.08 -600.32,-145.79 -703.83,82.94 -27.72,61.27 -29.75,130.67 -4.58,192.48 45.1,110.74 267.38,262.73 433.3,289.66z"/>
   <path class="fil1" d="M5189.29 5214.59c-22.84,43.71 -271.28,124.24 -342.6,140.89 -259.47,60.6 -599.27,35.63 -829.54,-91.25 -121.29,-66.83 14.01,-202.98 81.61,-315.74 236.03,-393.62 37.41,-279.6 686,-300.18 125.15,-3.96 124.01,-19.94 159.91,81.47 26.51,74.89 291.84,394.43 244.62,484.79zm174.69 332.73c29.92,-84.43 1.23,-881.78 10.47,-1053.7l-1583.94 2.56 1.48 1051.2 1571.99 -0.06z"/>
   <path class="fil1" d="M3689.14 4631.09c0.56,-128.45 -23.71,-222.6 41.99,-236.42l867.45 -3.51c129.89,0.26 803.03,-15.28 869.78,11.62 26.03,69.47 12.31,906.51 12.25,952.29 -0.37,312.05 58.8,292.66 -230.45,294.38l-1158.38 -0.2c-464.16,0.3 -403.33,63.25 -402.9,-273.49l0.26 -744.67zm-129.79 1163.89c86.1,15.22 739.86,5.49 884.07,5.98l1105.78 -2.47c73.93,-12.55 52.34,-96.54 52.32,-174.49l3.56 -889.47c1.6,-525.18 50.67,-456.34 -448.01,-455.29 -148.2,0.32 -296.55,0.51 -444.74,0.27 -296.46,-0.48 -593,-0.4 -889.46,-0.09 -192.28,0.19 -264.5,-41.16 -263.8,175.67l0.28 1339.9z"/>
   <path class="fil1" d="M3939.92 6089.41c-5.88,-68.8 88.92,-54.44 141.5,-54.46 54.95,-0.02 157.68,-17.1 153.14,53.59 -3.98,62.11 -81.13,47.96 -142.76,48.1 -53.44,0.13 -146.65,13.97 -151.88,-47.24zm-105.51 20.68c-32.02,42.88 -362.87,63.09 -307.44,-44.94 21.7,-42.28 127.13,-27.47 182.17,-28.64 40.98,-0.88 184.29,-5.45 125.26,73.57zm1663.97 -207.25l-2030.25 0.91c-7.05,57.46 -33.91,100.47 -33.57,164.61 0.34,64.7 -18.17,156.11 -14.09,202.56 84.11,13.2 153.3,28.09 213.24,69.58 58.68,40.61 63.43,128.7 83.59,203.59 162.85,13.09 150.12,-34.1 239.42,-93.46 58.44,-38.85 148.74,-83.16 212.87,-117.97 119.79,-65.04 311,-182.45 449.11,-214.35 484.48,-111.89 569.23,254.48 656.31,297.71 34.44,17.09 233.49,43.11 282.82,44.3 -22.73,-341.3 99.67,-265.39 114.05,-607.16 -63.21,29.07 -28.89,49.89 -173.51,49.68z"/>
   <path class="fil0" d="M3790.51 4496.18c22.68,-20.04 55.58,-13.38 94.41,-13.71 223.33,-1.87 1417.49,-6.63 1495.14,7.9 12.91,155.78 -0.43,705.24 0.34,937.1 0.31,91.64 15.22,109.56 -16.43,119.85l-1571.99 0.06 -1.48 -1051.2zm-101.37 134.91l-0.26 744.67c-0.43,336.74 -61.26,273.79 402.9,273.49l1158.38 0.2c289.25,-1.72 230.08,17.67 230.45,-294.38 0.06,-45.78 13.78,-882.82 -12.25,-952.29 -66.75,-26.91 -739.89,-11.37 -869.78,-11.62l-867.45 3.51c-65.7,13.83 -41.43,107.97 -41.99,236.42z"/>
   <path class="fil1" d="M2132.51 5122.65l394.23 2.29 -1.51 -73.23c-53.22,-1.63 -248,18.8 -283.48,-19.11 -93.33,-106.57 220.31,-78.16 288.19,-78.4l-2.28 -120.53c-59.88,-1.75 -116.15,-1.66 -173.47,-0.88 -55.9,0.77 -144.21,17.38 -138.21,-56.53 6.24,-76.86 163.67,-44.9 312.57,-52.81l-1.41 -127.03c-85.46,-2.32 -225.45,12.06 -290.25,-13.16 -41.8,-130.06 86.33,-91.33 292.9,-95.09l-2.68 -188.7c-150.49,-12.9 -305.33,31.77 -308.13,-51.25 -3.27,-96.88 228.89,-54.51 309.26,-63.34l-0.26 -141.26c-86.79,-2.42 -230.8,15.06 -300.04,-10.18 -39.37,-144.04 175.85,-91.71 299.82,-98.35l0.5 -148.7 -396.11 -2.45 0.37 1338.7z"/>
   <path class="fil0" d="M4535.54 5280.78c-101.58,0.5 -243.03,-6.92 -320.61,-46.74 -48.27,-7.78 -101.02,-21.33 -131.54,-54.79 5.63,-26.81 105.91,-182.56 126.79,-212.57 130.19,-187.08 34.01,-233.99 265.24,-208.48 54.92,6.06 21.84,17.17 36.99,84.71 98.15,57.25 274.78,5.66 343.57,-54.04 21.97,46.55 194.79,278.97 219.01,369.69 -86.12,82.01 -391.94,121.71 -539.45,122.22zm177.36 -537.24c-33.71,20.8 -95.29,23.32 -134.57,2.75l134.57 -2.75zm476.38 471.04c47.22,-90.36 -218.11,-409.9 -244.62,-484.79 -35.9,-101.42 -34.76,-85.44 -159.91,-81.47 -648.59,20.58 -449.98,-93.45 -686,300.18 -67.61,112.75 -202.9,248.91 -81.61,315.74 230.28,126.88 570.07,151.84 829.54,91.25 71.32,-16.66 319.76,-97.18 342.6,-140.89z"/>
   <path class="fil1" d="M4214.93 5234.04l2.5 -16.47 -22.7 -38.32c43.24,-51.66 102.4,-31.55 170.07,-13.79 71.22,18.7 126.96,7.09 167.91,46.82 -3.39,39.21 -2.71,31.92 -24.84,49.83l27.67 18.67c147.51,-0.51 453.33,-40.2 539.45,-122.22 -24.22,-90.72 -197.04,-323.14 -219.01,-369.69 -68.78,59.7 -245.42,111.29 -343.57,54.04 -15.15,-67.54 17.93,-78.66 -36.99,-84.71 -231.23,-25.51 -135.06,21.4 -265.24,208.48 -20.88,30 -121.16,185.76 -126.79,212.57 30.52,33.46 83.27,47.01 131.54,54.79z"/>
   <path class="fil1" d="M2256.68 1345.95c324.7,-60.37 398.01,410.25 84.28,459.55 -315.34,49.56 -410.36,-398.92 -84.28,-459.55zm-22.33 -159.26c-200.41,40.24 -388.97,197.45 -335.99,444.45 111.21,518.37 886.46,382.18 802.01,-130.13 -31.46,-190.78 -241.25,-359.46 -466.02,-314.32z"/>
   <path class="fil0" d="M6461.83 7383.87c15.56,-43.11 7.75,-53.05 -10.14,-85.34l-1025.96 -41.9c-225.28,-5.2 -507.29,-38.68 -734.69,-68.78 -59,-7.82 -196.73,-57.32 -195.92,28.88 0.65,68.37 135.41,63.14 196.08,72.97 257.68,41.8 472.24,59.76 735.01,71.85 171.59,7.89 938.18,66.92 1035.63,22.32z"/>
   <path class="fil0" d="M6535.72 6910.75c23.23,-109.18 -66.32,-91.55 -159.67,-105 -85.08,-12.27 -161.97,-24.96 -246.56,-34.8l-993.51 -122.31c-79.71,-10.27 -453.72,-74.28 -486.92,-32.01 -71.85,91.52 97.97,93.79 158.29,100.63l751.77 86.28c149.6,19.18 896.81,141.27 976.61,107.2z"/>
   <path class="fil1" d="M5820.42 6181.65l334.37 -119.44c-12.92,-124 -48.48,-559.74 -89.86,-631.13 -226.96,-41.07 -194.1,12.87 -214.96,275.53 -12.42,156.36 -32.6,319.45 -29.56,475.04z"/>
   <path class="fil0" d="M2256.68 1345.95c-326.08,60.63 -231.05,509.11 84.28,459.55 313.72,-49.3 240.42,-519.91 -84.28,-459.55z"/>
   <path class="fil1" d="M6054.57 4871.07c127.1,-67.44 79.13,-26.39 208.55,-44.76 230.62,-32.73 453.57,-208.82 306.38,-345.77 -116.47,-108.35 -287.91,-34.35 -352.37,52.29l-162.56 338.24z"/>
   <path class="fil1" d="M4076.74 7521.48c-420.48,-295.18 -634.58,-40.21 -882.36,49.5 -15.85,5.75 -59.1,17.53 -68.9,32.58l1063.62 -0.84 -112.35 -81.25z"/>
   <path class="fil1" d="M5715.58 5833.44c27.96,-71.39 23.99,-175.86 34.7,-257.8l69.23 -364.46c23.21,-59.66 154.86,-180.45 140.81,-287.03 -74.1,-51.89 -82.78,-12.41 -145.12,-103.33 -31.97,-46.6 -71.13,-117.84 -105.7,-145.36l-0.9 1010.57c0.25,24.61 0.21,48.27 -0.39,72.87 -0.2,8.16 -1.15,34.39 -0.58,40.83 0.3,3.41 0.59,6.05 1.04,9.19l6.9 24.51z"/>
   <path class="fil0" d="M8056.58 5873.03c-23.27,15.31 -9.32,0.95 -27.96,26.8l-238.38 392.27c-18.32,23.39 -39.73,39.3 -35.71,75.05 4.04,35.96 36.8,56.51 74.43,38.13 34.35,-16.78 227.69,-340.86 267.77,-416.92 78.14,-148.28 -21.62,-127.52 -40.15,-115.32z"/>
   <path class="fil0" d="M289.82 5151.95c-48.99,46.36 55.72,264.25 81.5,324.32 49.6,115.59 110.79,314.31 182.91,241.05 39.77,-40.4 -62.41,-215.57 -102.09,-311.04 -60.51,-145.57 -89.02,-323.69 -162.32,-254.32z"/>
   <path class="fil0" d="M8477.53 4598.4c99.56,20.21 91.99,-82.73 108.48,-274.03 6.37,-73.88 34.31,-306.49 -16.36,-334.3 -96.99,-53.23 -71.27,141.03 -81.72,279.13 -7.33,97.01 -46.17,262.95 -10.4,329.2z"/>
   <path class="fil0" d="M8456.12 4953.31c-98.71,-15.67 -85.77,83.61 -150.25,273.11 -42.16,123.91 -130.13,294.14 -60.92,319.25 65.58,23.8 73.14,-60.08 90.81,-103.93 42.51,-105.47 164.69,-407.97 120.36,-488.44z"/>
   <path class="fil0" d="M1083.72 6535.58c23.45,-69.09 -23.35,-101.78 -59.33,-150.56 -70.51,-95.57 -121.89,-152.81 -193.27,-261.88 -24.02,-36.71 -71.36,-135.6 -125.26,-79.01 -47.23,49.57 108.64,236.42 141.18,280.16l147.69 193.8c32.24,41.19 49.17,32.7 89,17.49z"/>
   <path class="fil0" d="M169.22 4797.99c126.78,23.58 77.32,-61.33 47.71,-253.44 -8.24,-53.44 -30.13,-325.4 -49.43,-344.34 -58.97,-57.91 -86.2,24.59 -81.26,89.63 4.48,59.04 10.08,121.1 17.71,180.01 12.87,99.3 30.35,253.06 65.27,328.13z"/>
   <path class="fil0" d="M8478.5 3617.18c37.09,21.9 43.09,21.43 82.96,2.93 22.9,-90.14 -62.02,-507.52 -99.8,-585.12 -133.31,-21.39 -77,84.84 -40.19,243.64 20.64,89.06 33.8,273.12 57.04,338.56z"/>
   <path class="fil0" d="M4745.47 28.16c-135.19,91.6 185.91,113.95 227.54,121.76 61.44,11.54 295.74,76.42 332.43,48.64 7.97,-6.04 65.87,-75.83 -63.32,-98.39 -93.81,-16.38 -449.26,-104.12 -496.65,-72.01z"/>
   <path class="fil0" d="M271.74 2884.86c100.57,10.38 92.02,-80.66 169.96,-269.84 21.64,-52.53 38.45,-99 63.22,-153.63 17.57,-38.74 72.7,-130.82 14.87,-155.55 -71.99,-30.78 -84.68,63.26 -103.92,107.68l-124.74 309.63c-22.14,63.24 -47.46,103 -19.4,161.71z"/>
   <path class="fil0" d="M171.86 3815.06c20.85,-77.58 27.84,-229.65 40.53,-321.69 7.55,-54.81 15.46,-107.77 25.15,-162.22 12.37,-69.47 21.49,-113.93 -57.49,-115.01 -57.65,54.81 -64.98,240.41 -75.37,332.53 -12.23,108.4 -70.51,333.62 67.17,266.4z"/>
   <path class="fil0" d="M3775.93 44.58c-15.07,43.71 -14.49,48.47 5.4,86.52 33.77,7.22 543.89,-35.81 554.29,-42.17 40.52,-23.15 36.91,-39.45 19.47,-84.06 -92.53,-17.81 -483.04,17.32 -579.17,39.71z"/>
   <path class="fil0" d="M7140.47 7116.31c70.64,25.34 102.31,-30.05 140.47,-61.42l226.84 -228.26c23.98,-28.84 110.37,-91.27 53.74,-142.63 -48.98,-44.43 -98.3,42.33 -119.97,66.04l-284.63 284.39c-31.23,32.05 -30.17,31.14 -16.46,81.87z"/>
   <path class="fil1" d="M725.3 1435.47c-205.92,80.59 74.2,212.54 286.24,145.87 112.23,-35.29 68.96,-102.01 -25.75,-133.15 -67.03,-22.03 -194.54,-38.53 -260.49,-12.72z"/>
   <path class="fil1" d="M3978.27 1531.92c9.18,-111.69 -82.89,-113.16 -186.65,-107.1 -307.11,17.93 -295.54,176.72 -42.15,171.24 96.01,-2.08 160.98,-11.12 228.79,-64.13z"/>
   <path class="fil0" d="M1775.23 7196.2c32.73,-86.58 -51.28,-97.78 -196.8,-227.52l-175.68 -155.66c-19.82,-18.39 -49.88,-44.5 -83.09,-10.48 -48.96,50.15 45.78,107.82 67.66,129.73 48.22,48.3 65.98,62.6 118.93,108.51 36.9,32 78.84,65.43 120.52,96.75 43.26,32.52 77.93,85.41 148.45,58.66z"/>
   <path class="fil0" d="M3417.45 143.27c-49.22,-29.59 -73.11,-10.08 -143.52,9.74l-305.45 96.43c-46.42,15.47 -125.59,31.11 -101.23,93.01 22.66,57.57 99.99,16.45 141.68,-0.27 51.65,-20.71 97.97,-36.02 153.52,-53.63 207.72,-65.84 280.83,-45.37 254.99,-145.28z"/>
   <path class="fil1" d="M3335.06 6024.01c53.6,-189.83 53.11,-125.1 118.86,-182.83l1.08 -157.02c-226.82,68.14 -230.83,277.04 -119.94,339.85z"/>
   <path class="fil0" d="M3834.41 6110.09c59.02,-79.02 -84.28,-74.45 -125.26,-73.57 -55.05,1.17 -160.48,-13.64 -182.17,28.64 -55.44,108.02 275.42,87.82 307.44,44.94z"/>
   <path class="fil1" d="M6275.28 6400.99c-78.21,-12.31 -271.35,67.22 -339.56,97.93 110.61,19.53 265.98,24.57 380,20.71 9.73,-58.53 -17.48,-85.97 -40.43,-118.64z"/>
   <path class="fil0" d="M4091.8 6136.64c61.63,-0.14 138.77,14.01 142.76,-48.1 4.54,-70.7 -98.19,-53.61 -153.14,-53.59 -52.59,0.02 -147.38,-14.34 -141.5,54.46 5.23,61.2 98.44,47.37 151.88,47.24z"/>
   <path class="fil0" d="M4217.43 5217.58c66.17,25.37 215.52,49.45 290.43,44.54 22.13,-17.91 21.46,-10.62 24.84,-49.83 -40.95,-39.73 -96.69,-28.12 -167.91,-46.82 -67.67,-17.76 -126.83,-37.87 -170.07,13.79l22.7 38.32z"/>
   <path class="fil1" d="M5715.99 6220.82c-38,63.46 -39.83,168.57 -58.28,248.28 57.15,14.99 150.12,27.36 209.91,20.45 -18.85,-24.17 -32.47,-30.1 -52.03,-55.61 -17.83,-23.26 -25.53,-44.25 -37.33,-65.8 -26.83,-48.97 -51.36,-81.82 -62.27,-147.31z"/>
   <path class="fil0" d="M5699.6 248.06c-103.04,73.28 102.35,133.84 136.64,107.82 85.42,-64.83 -100.14,-133.77 -136.64,-107.82z"/>
   <polygon class="fil1" points="2303.12,5404.47 2378.59,5399.72 2380.29,5230.99 2299,5227.97 "/>
   <path class="fil1" d="M5907.89 5325.04l114.24 -11.31 -13.84 -95.06c-102,-3.96 -100.74,8.7 -100.4,106.37z"/>
   <polygon class="fil1" points="2288.05,3680.79 2345.05,3680.73 2345.25,3553.73 2288.28,3555.56 "/>
   <path class="fil2" d="M2601.29 5411.18c-19.09,-26.72 -83.45,-12.92 -115.43,-10.73l1.56 -164.32c38.92,3.39 77.03,3.69 115.01,4.47l94.22 -0.84c23.47,-6.35 18.49,-7.14 29.83,-15.49l-240.67 3.83c-17.84,51.72 -10.49,122.52 -5.95,178.83l121.41 4.25z"/>
   <path class="fil3" d="M2104.74 5408.23l88.69 -6.37c6.59,-33.46 4.39,-54.3 4.27,-88.17 -0.18,-51.7 5.28,-56.34 -10.02,-84.17l1.81 169.6 -62.39 -1.8c-18.92,3.92 -12.87,4.62 -22.36,10.91z"/>
   <path class="fil1" d="M4712.9 4743.54l-134.57 2.75c39.28,20.57 100.86,18.05 134.57,-2.75z"/>
   <ellipse class="fil4 str0" cx="6649.61" cy="1938.2" rx="1093.86" ry="934.13"/>
   <path class="fil0" d="M6198.15 2218.83c-48.82,-384.28 548.2,-457.6 602.61,-82.05 56.96,393.15 -557.23,439.3 -602.61,82.05zm652.81 -220.29c130.06,-152.01 500.81,-45.4 466.21,238.99 -28.76,236.48 -311.34,324.91 -512.71,183.24 28.08,-61.49 68.38,-81.47 85.28,-186.18 12.64,-78.39 -7.22,-179.83 -38.78,-236.06zm319.5 -137.88c-260.56,-41.64 -227.48,-8.57 -381.54,56.45 -79.49,-119.36 -226.29,-40.22 -214.81,-229.32 16.04,-264.34 372.15,-364.29 552.53,-170.67 87.71,94.16 97.91,214.37 43.82,343.54zm-680.75 -64.06c-138.25,33.66 -135.22,1.13 -260.27,107.25 -30.07,25.51 -31.42,40.27 -61.39,66.61 -174.03,-26.42 -248.66,-291.14 -119.6,-431.05 135.44,-146.82 312.57,-139.18 476.25,-18.19 -47.81,136.83 -33.16,123.33 -34.99,275.37zm91.39 -358.39c-44.72,-18.04 -82.01,-49.22 -139.62,-70.84 -418.04,-156.87 -724.04,335.27 -451.81,607.66 17.85,17.86 36.26,37.23 58.69,51.47 25.1,15.96 48.47,19.78 71.47,36.28 -21.07,124.02 -39.73,175.44 25.06,289.19 41.56,72.97 105.38,129.91 189.63,168.72 89.52,41.24 193.44,47.69 289.62,16.05 41.29,-13.58 83.42,-48.62 123.66,-35.94 38.73,12.21 77.37,41.19 128.32,56.71 227.08,69.18 413.18,-30.92 489.98,-177.91 65.89,-126.12 66.02,-279.97 -24.68,-397.82 -28.01,-36.4 -58.79,-56.23 -86.8,-93.4 109.1,-204.54 3.43,-410.47 -132.11,-495.7 -195.13,-122.69 -388.5,-66.98 -541.41,45.52z"/>
  </g>
 </g>
</svg>
