<?xml version="1.0" encoding="UTF-8"?>
<!DOCTYPE svg PUBLIC "-//W3C//DTD SVG 1.1//EN" "http://www.w3.org/Graphics/SVG/1.1/DTD/svg11.dtd">
<!-- Creator: CorelDRAW 2026 -->
<svg xmlns="http://www.w3.org/2000/svg" xml:space="preserve" width="76.5029mm" height="77.3293mm" version="1.1" style="shape-rendering:geometricPrecision; text-rendering:geometricPrecision; image-rendering:optimizeQuality; fill-rule:evenodd; clip-rule:evenodd"
viewBox="0 0 7652.56 7735.23"
 xmlns:xlink="http://www.w3.org/1999/xlink"
 xmlns:xodm="http://www.corel.com/coreldraw/odm/2003">
 <defs>
  <style type="text/css">
   <![CDATA[
    .fil0 {fill:#DF3655}
   ]]>
  </style>
 </defs>
 <g id="Layer_x0020_1">
  <metadata id="CorelCorpID_0Corel-Layer"/>
  <path class="fil0" d="M4656.62 4827.85c-13.55,395 -134.56,720.36 -275.25,979.17 -116.5,193.71 -413.03,513.07 -635.48,593.32 -90.79,84.76 -202.76,146.82 -335.91,186.2 75.72,354.09 40.95,726.38 -81.54,1095.63 198.24,-15.18 331.39,-54.51 420.66,-95.41 22.7,-21.18 133.17,-39.35 379.8,-184.68 1274.09,-637.31 1895.81,-2109.85 1394.66,-3511.08l-245.22 -535.66c-63.58,-68.08 -84.77,-90.77 -104.48,-157.36l1457.07 -1487.81c-7.52,219.41 6.12,461.57 -1.39,680.97 1.6,593.21 4.62,505.46 817.27,511.37 131.64,4.48 201.23,-102.94 205.74,-234.61l-4.93 -2416.73c4.52,-131.65 -145.31,-246.62 -276.98,-251.16l-2372.85 6.46c-307.2,-10.54 -255.67,408.63 -222.31,717.34 -15.06,438.84 494.9,302.56 1132,302.46l-1434.37 1466.64c-108.96,-25.72 -301.19,-186.1 -496.41,-258.71 -974.62,-406.91 -2033.91,-267.5 -2867.64,340.98l-385.82 360.25c-228.46,255.76 -437.23,578.14 -558.24,903.51 -96.8,260.32 -77.13,326.91 -122.52,369.27 -83.15,502.43 -27.12,789.93 22.91,1253.01 -3.03,87.77 -4.52,131.64 15.14,198.24 98.44,332.89 346.68,780.8 537.38,985.1 273.98,338.88 616.02,614.25 1005,803.33 346.52,143.73 652.21,198.16 914.05,251.08 22.73,-21.24 43.94,1.46 43.94,1.46 131.6,4.57 263.28,9.05 372.22,34.8 122.52,-369.27 178.45,-718.86 102.71,-1072.97 -43.85,-1.51 -110.47,18.18 -154.32,16.66 -65.09,-24.19 -131.69,-4.52 -196.76,-28.74l21.2 22.73c-588.72,-130.04 -808.13,-137.56 -1272.79,-680.8 -169.54,-181.52 -375.37,-584.06 -367.88,-803.49 -21.19,-22.68 -54.53,-331.37 -30.34,-396.46 -3.09,-549.32 278.27,-1066.91 706.5,-1381.77 518.99,-399.58 1245.35,-440.55 1829.52,-178.85 584.17,261.7 1044.35,936.54 1065.64,1596.31zm-1922.99 2262.7c16.62,154.42 -27.25,152.89 -31.78,284.52 -528.14,25.81 -1349.89,-353.88 -1666.21,-738.21 -1925.32,-2153.08 327.5,-5063.53 2712.61,-4146.87 1018.53,408.41 367.86,803.47 1755.33,-576.86l727.77 -721.97c46.88,-86.26 181.56,-169.54 186.08,-301.16 4.52,-131.69 -102.93,-201.26 -213.4,-183.08l-1119.83 -16.47 12.04 -351.09 2241.18 -10.94 10.99 2241.19 -373.8 9.12 -6.24 -1098.65c6.03,-175.53 -77.21,-310.21 -254.28,-272.33 -131.64,-4.52 -748.96,699.25 -862.43,805.19l-841.25 827.94c-410.03,425.31 -249.65,233.08 142.38,971.5 204.39,446.4 193.86,753.6 199.96,1215.15 -5.89,812.63 -583.84,1649.59 -1278.37,2043.15 -111.97,62.07 -201.23,102.95 -313.21,165.02l-6.15 -461.54c553.83,-134.8 1199.88,-1035.3 1204.28,-1804.06 -3.11,-549.35 -56.13,-924.61 -392.18,-1375.53 -1260.83,-1668.95 -3883.21,-792.31 -3845.04,1296.01 -16.48,1119.87 938.59,2097.27 2014.57,2112.2l-3.01 87.79z"/>
 </g>
</svg>
