<svg width="70" height="117" viewBox="0 0 70 117" fill="none" xmlns="http://www.w3.org/2000/svg">
<path fill-rule="evenodd" clip-rule="evenodd" d="M50.5536 66.2451C53.7506 69.8397 55.4163 73.7232 56.3494 77.1852C56.9494 79.8705 57.0175 85.1749 55.731 87.7498C55.6426 89.259 55.177 90.7462 54.334 92.2112C57.9745 94.6959 60.7942 98.2684 62.8151 102.551C64.4347 100.753 65.2777 99.2881 65.7213 98.1782C65.7434 97.8009 66.5642 96.7132 67.5176 93.3616C73.3945 77.0472 66.5091 58.85 50.3273 50.7093L43.6683 48.0479C42.5364 47.9816 42.1591 47.9595 41.4265 47.5381L41.7745 22.1922C43.5506 24.1892 45.704 26.2083 47.4801 28.2052C52.4752 33.4195 51.7648 32.6207 58.976 25.8494C60.1741 24.7837 59.8852 23.2524 58.8195 22.0543L38.4837 0.798017C37.418 -0.400165 35.1321 -0.155382 33.9339 0.910277L13.077 20.8909C10.2813 23.3775 14.255 26.6389 17.1409 29.0794C20.6931 33.0734 24.0429 27.5904 29.6565 22.2401L29.3306 47.2086C28.1545 47.8969 25.114 48.0975 22.7839 49.0969C10.7782 53.6945 2.61357 63.8174 0.375468 76.1801L-1.55429e-05 82.5944C0.134332 86.7668 1.00121 91.3608 2.66687 95.2443C3.9994 98.3511 4.73192 98.7726 4.68775 99.5272C8.17368 104.653 11.0817 106.716 15.4106 110.377C16.121 111.176 16.4763 111.575 17.2088 111.997C20.8714 114.104 26.82 115.967 30.2157 116.166C35.4759 116.852 40.8024 116.407 45.8178 114.807C50.0786 113.164 53.2296 111.077 55.9812 109.345C56.0033 108.967 56.3806 108.989 56.3806 108.989C57.5788 107.924 58.777 106.858 59.9531 106.17C57.9322 101.887 55.4898 98.3365 51.8493 95.8518C51.4499 96.207 51.0284 96.9395 50.629 97.2947C49.8523 97.6279 49.4308 98.3604 48.6541 98.6935L49.0314 98.7156C42.7516 102.513 40.7546 104.289 32.0986 103.403C29.0802 103.227 23.8862 101.408 22.1101 99.4113C21.7328 99.3892 18.8469 96.9486 18.5138 96.1719C13.8738 91.3571 12.0075 84.4331 13.1376 78.063C14.3561 70.1838 20.4133 63.7236 27.7588 61.1248C35.1043 58.526 44.8259 60.6095 50.5536 66.2451ZM52.6057 102.332C54.0487 103.553 53.6493 103.908 54.7149 105.106C50.2774 109.768 39.8472 113.322 33.8324 112.591C-1.21299 109.783 -5.79761 65.218 22.9182 53.2694C35.3234 48.3166 32.9067 57.2615 33.5436 33.447L33.8952 20.9738C33.5841 19.8198 34.0719 17.9553 33.0062 16.7572C31.9406 15.559 30.4093 15.8479 29.5884 16.9357L19.5814 26.1935L16.7397 22.9983L36.3983 4.08334L55.3133 23.742L52.0961 26.9611L42.8162 17.3314C41.3953 15.7339 39.5309 15.2461 38.2885 17.0664C37.0903 18.132 37.5596 29.5175 37.4492 31.404L36.9872 45.7638C36.9448 52.9547 36.7442 49.9142 46.3996 53.1296C51.9488 55.3474 54.4353 58.1432 58.3648 62.1592C65.1361 69.3704 67.0704 81.5988 64.2544 90.899C63.7887 92.3861 63.3452 93.4959 62.8795 94.9831L58.95 90.9671C62.6992 85.1289 60.8311 71.7686 54.415 64.9568C49.7751 60.142 46.1566 57.28 39.4093 56.1278C14.2843 52.0068 -1.46507 81.7514 16.4063 99.8346C25.6641 109.842 42.2877 110.436 51.8953 101.533L52.6057 102.332Z" fill="#CB3148"/>
</svg>
