<?xml version="1.0" encoding="UTF-8"?>
<!DOCTYPE svg PUBLIC "-//W3C//DTD SVG 1.1//EN" "http://www.w3.org/Graphics/SVG/1.1/DTD/svg11.dtd">
<!-- Creator: CorelDRAW -->
<svg xmlns="http://www.w3.org/2000/svg" xml:space="preserve" width="85.3033mm" height="86.304mm" version="1.1" style="shape-rendering:geometricPrecision; text-rendering:geometricPrecision; image-rendering:optimizeQuality; fill-rule:evenodd; clip-rule:evenodd"
viewBox="0 0 8496.99 8596.67"
 xmlns:xlink="http://www.w3.org/1999/xlink"
 xmlns:xodm="http://www.corel.com/coreldraw/odm/2003">
 <defs>
  <style type="text/css">
   <![CDATA[
    .fil0 {fill:#DF3655}
   ]]>
  </style>
 </defs>
 <g id="Layer_x0020_1">
  <metadata id="CorelCorpID_0Corel-Layer"/>
  <path class="fil0" d="M1180.43 6422.57c100.54,59.42 220.01,117.76 322.23,171.93l314.75 173.29c-58.01,144.32 -23.02,311.02 64.75,409.04 103.68,115.8 182.03,152.92 389.76,148.36 -9.01,314.2 248.14,502.19 548.51,418.25 24.19,87.91 16.4,119.6 62.46,195.99 119.37,197.93 332.75,229.04 548.73,153.45 35.2,150.42 85.08,269.67 250.6,340.19 239.46,102.02 370.09,-33.36 454.16,-74.95 68.85,67.34 81.45,123.2 249.25,193.23 324.38,135.38 743.63,-38.82 788.05,-438.36 62.96,7.36 221.2,111.63 431.14,-28.36 155.92,-103.96 175.37,-223.97 185.55,-373.87 199.47,39.17 376.21,-79.86 448.59,-234.69 31.08,-66.47 33.94,-127.43 31.47,-207.02 179.2,5.59 265.85,-52.18 351.31,-141.81 101.76,-106.75 108.58,-205.41 84.63,-366.5 54.13,-40.58 552.61,-302.83 622.97,-340.62 97.26,157.71 62.86,308.7 288.93,200.86 199.48,-95.15 606.36,-290.17 794.31,-367.9 159.37,-65.91 61.98,-169.02 -37.49,-378.55 -249.98,-526.59 -507,-1050.85 -761.31,-1573.38 -247.22,-507.97 -148.66,-479.18 -614.8,-273.58l-604.58 267.2c-35.78,29.03 -11.16,37.28 -68.02,72.14 -375.15,229.91 -650.16,102.93 -1048.65,5.27 -187.31,-45.9 -327.37,-63.37 -530.29,-52.99 -194.44,9.96 -328.04,52.7 -506.44,87.62 -46.53,9.11 -299.29,-76.57 -484.97,-87.89 -189.06,-11.52 -353.48,14.33 -524.49,59 -415.41,108.51 -679.74,208.75 -1045.47,-10.11 -68.87,-41.21 -37.76,-45.11 -77.09,-73.23 -28.29,-20.23 -158.68,-69.32 -201.84,-88.86l-605.21 -266.33c-241.06,-101.17 -183.47,-98.39 -413.63,370.54 -126.01,256.72 -261.53,522.69 -380.46,781.83 -121.3,264.34 -263.83,522.05 -384.92,787.49 -31.11,68.19 -60.77,131.64 -94.14,196.76 -53.89,105.17 -29.91,140.23 53.94,174.55l795.09 367.61c234.67,113.15 187.34,-17.54 289.01,-176.62l13.63 -18.96zm2370.47 -3814.59l-248.97 638.73c-32.14,81.41 -150.66,281.67 12.54,276.49 95.27,-3.04 253.48,-86.11 360.96,-93.11 60.91,93.43 107.66,184.7 166.28,273.97 34.79,52.98 107.03,73.74 143.24,15.1l332.31 -791.55c108.03,12.32 140.39,27.8 249.98,-4.15 26.97,24.32 237.41,538.54 274.55,622.26 22.92,51.69 42.91,104.4 66.55,153.9 31.26,65.45 101.24,70.19 143.35,14.06l169.12 -283.03c98.26,0.6 248.84,79.41 349.57,91.94 179.16,22.3 54.35,-201.98 28.57,-272.89 -64.18,-176.57 -210.71,-503.72 -253.12,-641.7 55.41,-37.48 246.19,-81.32 274.98,-320.85 26.35,-219.22 -45.05,-295.64 50.7,-388.55 28.34,-27.49 45.59,-49.94 75.11,-75.16 87.85,-75.06 228.13,-180.1 216.64,-378.19 -4.88,-84.05 -34.95,-159.78 -83.05,-210.23l-220.29 -220.83c-88.41,-81.72 -1.6,-218.01 -45.01,-405.67 -32.89,-142.18 -153.33,-265.49 -300.75,-289.86 -74.54,-12.32 -205.56,-4.04 -286.03,-3.64 -134.69,0.68 -83.08,11.03 -206.16,-96.23 -90.92,-79.24 -169.3,-225.25 -375.19,-218.55 -204.3,6.64 -280.86,126.19 -375.36,217.87 -69.26,67.19 -66.52,97.26 -195.46,96.55 -81.39,-0.44 -221.56,-8.8 -296.2,4.17 -151.48,26.33 -266.67,145.42 -298.75,290.39 -38.83,175.48 35.58,327.29 -40.87,401.02 -27.83,26.83 -47.64,48.16 -75.48,74.93 -26.37,25.34 -45.86,43.59 -72.07,68.31 -89.12,84.07 -154.95,158.1 -162.47,291.7 -17.2,305.73 337.22,400.35 343.2,540.9 8.13,190.81 -44.39,364.22 96.55,506.47 106.43,107.43 93.17,64.64 181.04,115.45zm-1479.12 1914.82l-814.21 1722.02 339.1 185.21c67.55,36.63 295.8,174.03 339.18,187.96 71.28,-93.28 161.02,-147.06 235.95,-233.23 155,-178.24 405.02,-338.51 644.41,-192.17 59.92,36.63 93.81,62 128.76,112.04 71.12,101.83 50.8,112 79.14,164.21 126.71,-60.39 250.88,-136.84 441.75,-44.12 106.37,51.67 225.27,167.83 236.48,326.75 64.99,5.82 236.56,-103.36 448.04,61.07 110.55,85.96 186.6,245.93 130.04,431.31 108.18,17.28 144.16,12.16 232.34,67.81 166.78,105.26 130.09,194.98 209.61,251.34l445.85 335.82c60.33,45.3 117.54,94.1 216.94,85.79 161.44,-13.49 299.94,-187.45 197.34,-349.74 -38.28,-60.56 -626.46,-474.99 -700.61,-531.75 -60.02,-45.95 -332.51,-227.49 -347.58,-274.22 -30.73,-95.34 65.93,-148.71 152.18,-81.64 316.89,246.43 663.04,479.82 976.29,717.16 97.31,73.71 204.1,130.53 340.53,36.51 45.55,-31.4 103.79,-118.21 91.89,-209.03 -12.55,-95.75 -72.13,-135.39 -132.61,-177.42 -245.45,-170.54 -470.96,-347.22 -710.66,-521.85 -56,-40.79 -119.09,-95.16 -178.45,-132.11 -119.87,-74.62 -61.56,-171.57 5.47,-178.1 67.98,-6.62 323,206.61 376.33,247.07l709.54 523.03c157.16,111.21 354.14,11.92 379.64,-152.25 27.77,-178.78 -134.42,-245.57 -271.66,-336.6 -495.36,-328.57 -985.86,-651.17 -1495.42,-979.24 -120.06,-77.3 -251.55,-181.61 -447.73,-117.74 -153.11,49.83 -236.21,183.57 -316.87,304.17 -78.95,118.06 -180.5,248.56 -309.19,312.41 -160.59,79.68 -331.49,97.34 -490.4,-6.76 -147.29,-96.49 -164.56,-236.94 -136.65,-459.88 64.52,-515.47 245.15,-887.27 777.3,-1085.44 -141.51,-103.49 -732.07,70.69 -900.85,109.64 -238.62,55.06 -472.43,73.36 -704.7,-24.41 -65.33,-27.5 -118.23,-69.82 -176.53,-93.61zm2323.8 -4354.38c-73.23,18.81 -145.66,98.47 -188.42,145.58 -21.39,23.56 -146.14,139.79 -178.1,152.6 -162.3,65.07 -439.01,-72.37 -558.5,102.83 -48.75,71.47 -34.68,197.12 -34.17,295.06 1.37,260.21 -5.64,187.64 -243.3,419.74 -286.51,279.81 142.18,427.42 223.59,580.59 78.49,147.69 -71.69,436.51 117.79,553.44 80.87,49.9 182.86,35.4 291.26,35.75 222.77,0.72 174.52,-19.89 351.05,143.64 30.72,28.46 49.49,53.99 85.29,84.9 60.01,51.81 102.3,128.5 242.03,92.81 104.69,-26.74 258.32,-257.49 355.66,-305.63 148.17,-73.26 411.01,72 557.66,-103.71 112.45,-134.73 -45.9,-395.47 105.96,-555.26 126.98,-133.6 307.93,-224.08 268.91,-386.94 -29.39,-122.7 -257.43,-260.52 -310.9,-351.47 -86.63,-147.36 64.67,-430.3 -114.41,-556.55 -146.57,-103.33 -431.43,39.24 -566.72,-94.77l-166.92 -163.61c-50.9,-46.68 -120.25,-119.18 -237.79,-88.99zm2225.67 6414.88l626.75 -334.78 -815.52 -1725.18c-68.85,31.27 -130.79,78.23 -213.2,107.65 -287.3,102.57 -548.1,42.58 -833.52,-36.18 -431.77,-119.14 -671.84,-117.86 -1110.29,-4.01 -276.78,71.88 -663.06,216.33 -829.36,463.09 -74.53,110.6 -141.75,327.94 -166.48,484.29 -33.01,208.67 -76.86,420.48 175.59,423.46 327.03,3.85 421.5,-460.05 680.33,-609.02 304.58,-175.29 490.61,-89.64 729.3,63.87l1567.41 1027.86c32.77,22.43 61.45,40.14 95.42,64.97 30.28,22.12 66.07,53.82 93.57,73.99zm-2282.09 -6002.54c-293.35,40.13 -443.68,165.38 -583.39,313.96 -58.6,62.31 -127.68,182.81 -164.14,286.54 -130.87,372.38 7.81,746.17 279.77,980.19 151.19,130.09 415.63,241.69 690.99,201.56 455.02,-66.32 847.57,-468.35 783.26,-1004.42 -53.98,-449.89 -487.81,-848.78 -1006.49,-777.83zm-4116.83 5527.28l726.98 337.09 971.04 -2034.19 -719.15 -312.99 -978.87 2010.09zm6368.89 -1696.78c17.56,63.11 946.68,2010.64 961.99,2029.92l721.43 -333.7 -967.88 -2010.23 -715.53 314.02zm-2232.34 -3670.18c-372.42,48.4 -702.22,384.91 -645.18,818.05 31.73,240.89 142.03,366.06 263.24,476.71 121.57,110.97 341.49,198.68 565.9,165.76 368.31,-54.05 698.08,-384.9 640.69,-819.08 -49.03,-370.97 -392.5,-697.6 -824.64,-641.44zm-537.69 6154.98c-102.4,23.84 -232.36,168.85 -310.19,246.81 -44.87,44.95 -93.49,87.05 -141.56,129.27 -49.04,43.09 -92.05,95.44 -139.21,141.18 -70.95,68.81 -230.95,173.82 -233.32,314.96 -2.53,150.26 151.64,271.87 308.39,230.45 127.3,-33.65 222.53,-170.14 306.1,-244.35l420.16 -401.55c44.41,-44.36 95.91,-83.77 96.36,-185.77 0.66,-151.72 -147.4,-268.09 -306.72,-230.99zm-602.79 -331.56c-114.79,32.65 -180.54,134.42 -296.46,239.96 -93.69,85.3 -177.59,174.79 -273.2,257.99 -48.91,42.56 -82.54,86.5 -132.03,128.26 -45.16,38.09 -88.04,105.63 -76.3,196.99 17.47,135.86 155.74,239.64 311.1,198.14 117.23,-31.32 184.46,-134.59 296.34,-234.7l401.72 -389.76c209.76,-230.92 -30.9,-453.84 -231.17,-396.87zm996.91 859.06c-112.89,30.04 -374.29,319.55 -484.78,419.79 -70.29,63.8 -181.06,156.92 -107.88,308.31 41.94,86.75 150.5,177.15 291.6,136.83 105.29,-30.1 252.91,-200.13 367.81,-304.43 40.89,-37.11 73.55,-77.48 114.85,-115.44 66.48,-61.1 174.33,-145.27 113.7,-304.4 -38.34,-100.66 -153.3,-178.46 -295.3,-140.68zm-1657.99 -1109.79c-81.46,15.91 -94.21,34.16 -139.68,76.41l-340.43 321.24c-69.53,64.76 -163.32,152.69 -100.85,301.46 36.91,87.91 154.16,176.45 290.8,138.07 119.02,-33.42 165.42,-125.62 240.63,-189.4 103.41,-87.7 142.75,-137.98 225.75,-215.18 65.39,-60.83 165.81,-138.1 101.37,-291.99 -38.14,-91.1 -142.04,-167.08 -277.58,-140.61zm2158.43 -3485.34c20.41,83.96 264.67,641.64 284.17,660.88 169.72,-320.41 118.61,-251.42 452.43,-170.05l-280.85 -701.7c-56.18,-2.68 -110.15,0.12 -163.61,-0.21 -133.98,-0.82 -93.02,22.21 -203.9,127.14 -32.25,30.52 -55.22,53.41 -88.24,83.94zm-1266.21 487.27c70.25,-9.14 244.19,-81.67 301.5,-62.5 53.48,17.89 107.48,187.08 156.29,236.05l277.08 -657.32c-92.4,-80.64 -99.26,-99.6 -167.27,-164.84 -74.51,-71.48 -84.21,-48.31 -281.58,-50.53 -39.57,48.07 -246.63,595.35 -286.02,699.15zm829.19 4903.14c56.15,166.73 384.26,317.72 624.23,85.72 79.84,-77.18 135.76,-213.83 56.12,-336.96 -53.56,-82.83 -187.13,-138.99 -259.52,-220.25 -29.71,27.21 -27.21,72.94 -81.28,142.06l-339.55 329.42zm58.04 -6616.67c-84.63,-62.5 -155.52,-147.92 -240.76,-216.62 -59.14,-47.66 -131.11,-6.07 -132.62,60.3 -1.21,53.01 74.65,108.7 106.01,136.94 314.51,283.22 191.42,314.51 513.85,19.1l341.72 -350.97c25.66,-73.78 -40.99,-129.4 -106.57,-105.81 -39.9,14.35 -85.66,68.89 -120.81,110.23 -73.72,86.69 -268.84,252.19 -360.83,346.84z"/>
 </g>
</svg>
