<?xml version="1.0" encoding="UTF-8"?>
<!DOCTYPE svg PUBLIC "-//W3C//DTD SVG 1.1//EN" "http://www.w3.org/Graphics/SVG/1.1/DTD/svg11.dtd">
<!-- Creator: CorelDRAW -->
<svg xmlns="http://www.w3.org/2000/svg" xml:space="preserve" width="55.6606mm" height="87.4111mm" version="1.1" style="shape-rendering:geometricPrecision; text-rendering:geometricPrecision; image-rendering:optimizeQuality; fill-rule:evenodd; clip-rule:evenodd"
viewBox="0 0 5665.94 8897.97"
 xmlns:xlink="http://www.w3.org/1999/xlink"
 xmlns:xodm="http://www.corel.com/coreldraw/odm/2003">
 <defs>
  <style type="text/css">
   <![CDATA[
    .fil0 {fill:#DF3655}
   ]]>
  </style>
 </defs>
 <g id="Layer_x0020_1">
  <metadata id="CorelCorpID_0Corel-Layer"/>
  <path class="fil0" d="M1748.09 3301.4c11.03,165.86 19.53,504.79 -66.55,614 -106.81,135.5 -158.23,128.8 -307.47,372.8 -313.55,512.63 -356.32,1038.53 -94.88,1616.6 65.79,145.49 215.91,379.18 162.8,492.25 -75.44,160.6 -468.93,825.86 -468.08,893.14l839.92 5.37c52.58,440.3 -54.16,1109.94 84.65,1391.89 120.66,245.04 457.26,299.16 630.77,38.72 98.01,-147.1 68.82,-233.42 72.86,-437.26 6.57,-331.63 10.12,-664.11 15.7,-996.81 53.17,-17.33 348.51,-17.45 424.66,-17.44 37.79,415.2 -20.94,874.82 31.25,1197.08 8.26,50.97 47.89,263.08 72.39,306.69 22.29,39.69 21.13,53.44 63.27,66.72 56.46,17.8 171.4,28.02 232.71,26.05 615.82,-19.92 406.32,-1037.64 402.29,-1566.25l852.53 -12.6c0.45,-207.65 -325.87,-715.19 -462.31,-908.37 -34.42,-48.71 -36.27,-60.69 -6.95,-117.1l166.67 -351.16c83.49,-160.02 157.02,-303.43 183.39,-508.61 53.18,-413.59 -89.93,-818.23 -255.98,-1097.47 -91.09,-153.15 -197.72,-253.13 -300.11,-380.11 -69.63,-86.34 -86.82,-106.72 -93.19,-251.57 -4.9,-111.61 -0.91,-233.74 0.81,-346.08 141.84,48.47 393.74,383.58 522.76,523.71 180.42,195.97 539.52,722.65 794.42,772.35 206.49,40.27 414.64,-190.5 419.15,-366.71 7.5,-292.76 -93.02,-320.37 -270.67,-528.11l-353.95 -423.15c-156.51,-181.06 -319.2,-392.49 -477.27,-571.02 -193.3,-218.3 -419.34,-506.74 -732.79,-584.48 -285.4,-70.79 -714.85,-27.95 -1026.66,-37.56 -644.1,-19.88 -1085.42,-117.72 -1444.16,342.96l-360.54 428.11c-121.81,135.17 -241.49,284.33 -370.74,417.57 -25.22,26 -41.08,36.69 -63.96,65.23 -27.17,33.89 -32.24,41.3 -66.39,74.09 -25.28,24.27 -36.25,43.28 -59.39,70.65 -53.32,63.02 -120.96,125.84 -187.52,211.48 -123.8,159.3 -356.81,462.31 -197.9,736 213.59,367.86 688.89,-6.48 821.98,-186.99 131.7,-178.6 341.69,-385.16 476.11,-571.81 35.8,-49.72 80.96,-110.55 119.3,-150.82 27.21,-28.57 39.78,-39.85 65.53,-64.08 56.01,-52.69 138.75,-145.6 211.54,-187.88zm1078.15 3258.91c52.88,-26.4 815.62,-790.6 950.01,-917.51 102.68,-96.97 202.55,-190.86 271.42,-354.87 260.42,-620.12 -537.93,-1172.77 -1044.23,-698.61 -42.78,40.07 -85.77,148.55 -166.26,150.62 -134,3.43 -84.63,-143.95 -353.4,-266.36 -550.25,-250.58 -1081.42,312.18 -868.99,804.47 118.15,273.83 455.89,563.53 643.56,749.4 29.45,29.16 47.74,56.77 75.59,86.52l492.29 446.34zm-111.21 -6549.32c-479.46,84.59 -866.86,474.31 -784.93,1052.62 127.87,902.54 1152.37,1058.46 1640.02,463.93 133.74,-163.05 233.72,-429.15 197.18,-713.02 -37.34,-290.17 -177.31,-466.97 -331.28,-597.63 -152.49,-129.39 -441.09,-255.29 -720.99,-205.9z"/>
 </g>
</svg>
