<?xml version="1.0" encoding="UTF-8"?>
<!DOCTYPE svg PUBLIC "-//W3C//DTD SVG 1.1//EN" "http://www.w3.org/Graphics/SVG/1.1/DTD/svg11.dtd">
<!-- Creator: CorelDRAW -->
<svg xmlns="http://www.w3.org/2000/svg" xml:space="preserve" width="57.3527mm" height="89.1023mm" version="1.1" style="shape-rendering:geometricPrecision; text-rendering:geometricPrecision; image-rendering:optimizeQuality; fill-rule:evenodd; clip-rule:evenodd"
viewBox="0 0 5835.19 9065.47"
 xmlns:xlink="http://www.w3.org/1999/xlink"
 xmlns:xodm="http://www.corel.com/coreldraw/odm/2003">
 <defs>
  <style type="text/css">
   <![CDATA[
    .str0 {stroke:#DF3655;stroke-width:172.28;stroke-miterlimit:22.9256}
    .fil0 {fill:none}
   ]]>
  </style>
 </defs>
 <g id="Layer_x0020_1">
  <metadata id="CorelCorpID_0Corel-Layer"/>
  <path class="fil0 str0" d="M1833.22 3385.83c11.03,165.78 19.52,504.53 -66.52,613.69 -106.76,135.43 -158.15,128.73 -307.31,372.61 -313.39,512.36 -356.14,1037.99 -94.83,1615.77 65.76,145.42 215.8,378.99 162.72,491.99 -75.4,160.52 -468.69,825.43 -467.84,892.69l839.49 5.37c52.55,440.08 -54.14,1109.37 84.61,1391.17 120.6,244.91 457.03,299.01 630.45,38.7 97.96,-147.03 68.79,-233.31 72.83,-437.03 6.56,-331.46 10.11,-663.77 15.69,-996.3 53.14,-17.32 348.33,-17.44 424.44,-17.43 37.77,414.99 -20.93,874.37 31.23,1196.47 8.25,50.94 47.87,262.94 72.35,306.53 22.28,39.67 21.12,53.41 63.23,66.68 56.43,17.79 171.31,28.01 232.59,26.04 615.5,-19.91 406.11,-1037.11 402.09,-1565.45l852.09 -12.6c0.45,-207.54 -325.71,-714.82 -462.07,-907.91 -34.4,-48.68 -36.25,-60.66 -6.95,-117.04l166.58 -350.98c83.45,-159.94 156.94,-303.27 183.3,-508.34 53.15,-413.38 -89.88,-817.81 -255.85,-1096.9 -91.04,-153.07 -197.61,-253 -299.96,-379.92 -69.59,-86.3 -86.78,-106.67 -93.15,-251.45 -4.89,-111.55 -0.91,-233.62 0.81,-345.9 141.77,48.45 393.54,383.39 522.49,523.44 180.33,195.87 539.24,722.28 794.02,771.95 206.38,40.25 414.43,-190.4 418.93,-366.53 7.5,-292.61 -92.97,-320.2 -270.53,-527.84l-353.77 -422.93c-156.43,-180.97 -319.03,-392.29 -477.03,-570.72 -193.2,-218.19 -419.13,-506.48 -732.41,-584.18 -285.25,-70.75 -714.48,-27.94 -1026.13,-37.54 -643.77,-19.87 -1084.87,-117.65 -1443.42,342.78l-360.35 427.89c-121.74,135.1 -241.36,284.19 -370.55,417.36 -25.21,25.98 -41.06,36.67 -63.92,65.2 -27.15,33.87 -32.22,41.28 -66.36,74.05 -25.26,24.26 -36.23,43.26 -59.36,70.61 -53.29,62.99 -120.9,125.77 -187.42,211.37 -123.74,159.22 -356.63,462.07 -197.8,735.63 213.48,367.68 688.54,-6.48 821.56,-186.89 131.63,-178.51 341.52,-384.96 475.87,-571.52 35.78,-49.69 80.92,-110.49 119.24,-150.74 27.2,-28.56 39.76,-39.83 65.49,-64.05 55.98,-52.66 138.67,-145.52 211.43,-187.79zm1077.59 3257.24c52.86,-26.38 815.2,-790.19 949.52,-917.04 102.63,-96.92 202.45,-190.77 271.29,-354.68 260.29,-619.8 -537.66,-1172.17 -1043.69,-698.25 -42.76,40.05 -85.73,148.47 -166.18,150.54 -133.93,3.43 -84.59,-143.87 -353.22,-266.22 -549.97,-250.45 -1080.87,312.02 -868.54,804.06 118.09,273.69 455.65,563.24 643.23,749.02 29.43,29.15 47.72,56.74 75.55,86.47l492.04 446.11zm-111.15 -6545.96c-479.22,84.55 -866.42,474.07 -784.52,1052.08 127.81,902.08 1151.78,1057.92 1639.18,463.69 133.67,-162.97 233.6,-428.92 197.07,-712.65 -37.32,-290.02 -177.21,-466.73 -331.11,-597.32 -152.41,-129.32 -440.86,-255.16 -720.62,-205.79z"/>
 </g>
</svg>
