<?xml version="1.0" encoding="UTF-8"?>
<!DOCTYPE svg PUBLIC "-//W3C//DTD SVG 1.1//EN" "http://www.w3.org/Graphics/SVG/1.1/DTD/svg11.dtd">
<!-- Creator: CorelDRAW -->
<svg xmlns="http://www.w3.org/2000/svg" xml:space="preserve" width="88.1675mm" height="72.9206mm" version="1.1" style="shape-rendering:geometricPrecision; text-rendering:geometricPrecision; image-rendering:optimizeQuality; fill-rule:evenodd; clip-rule:evenodd"
viewBox="0 0 8834.62 7306.84"
 xmlns:xlink="http://www.w3.org/1999/xlink"
 xmlns:xodm="http://www.corel.com/coreldraw/odm/2003">
 <defs>
  <style type="text/css">
   <![CDATA[
    .fil0 {fill:#DF3655}
   ]]>
  </style>
 </defs>
 <g id="Layer_x0020_1">
  <metadata id="CorelCorpID_0Corel-Layer"/>
  <path class="fil0" d="M4080.27 3711.04l-1074.28 367.9c-72.08,-47.89 -123.94,-135.12 -216.15,-183.05 -127.86,90.84 -340.82,295.17 -461.82,346.84 45.21,108.39 117.82,180.5 189.92,266.77 -109.82,189.76 -2476.3,1942.31 -2515.36,2046.4 -15.07,40.17 38.65,499.58 91.73,552.82 116.52,85.96 346.01,162.71 510.51,198.11 100.93,-60.12 224.32,-169.56 309.43,-238.22l943.88 -755.49c244.21,-196.9 1100.16,-848.11 1251.85,-1010.4 120.75,52.86 178.99,157.27 239.56,240.87 110.9,-46.58 397.05,-292.74 487.66,-372.67 -24.69,-72.75 -97.08,-149.68 -152.45,-210.26 41.99,-98.58 528.32,-888.03 588.76,-940.21l438.6 439.17c2350.47,1751.11 5326.92,-942.83 3614.87,-3453.66 -90.64,-132.92 -315.65,-355.91 -452.39,-464.27 -849.41,-673.16 -1916.69,-695.05 -2840.62,-197.76 -246.86,132.86 -506.8,394.5 -657.96,556.96 -177.56,190.85 -347.47,487.51 -451.84,788.2 -111.87,322.37 -163.32,694.8 -127.19,1073.14 52.51,550.21 183.23,628.78 283.3,948.82zm409.03 -190.72c195.67,-92.91 645.95,-508.79 804.43,-540.65 -45.3,92.59 -262.91,254.38 -361.91,336.87 -60.31,50.24 -126.33,110.9 -190.94,160.13 -75.26,57.35 -127.89,80.09 -176.2,180.42 194.16,341.2 704,712.7 1181.03,848.08 615.54,174.66 1212.14,16.05 1650.17,-261.33 368.21,-233.18 728.34,-641.04 874.71,-1147.91 495.85,-1717.21 -1283.74,-3341.1 -3041.73,-2368.03 -369.33,204.41 -752.14,626.74 -909.18,1114.14 -168.86,524.14 -128.88,1292.69 169.62,1678.27zm-2416.71 1584.28c75.15,114.06 198.58,228.82 257.37,362.7l-78.03 51.64c-94.12,-54.8 -143.06,-162.81 -215.58,-244.43 -65.44,-73.67 -16.53,-34.13 -93,-80.8 -53.59,81.37 -71.4,64.39 -118.59,134.36 71.43,88.73 213.28,235.99 251.67,340.05 -118.74,83.73 -128.36,13.86 -195.66,-76.98 -59.36,-80.09 -103.55,-134.96 -169.94,-186.26l-132.29 83.92c65.44,155.81 188.11,230.74 254.21,361.49 -61.97,65.6 -26.34,37.54 -101.25,68.63 -73.09,-90.48 -171.95,-245.55 -263.45,-322.33 -62.51,34.85 -99.85,69.46 -139.9,110.62 63.12,100.64 239.27,265.21 235.97,365.31 -156.67,89.28 -148.25,-135.05 -364.53,-279.28 -29.53,27.72 -86.05,76.49 -117.28,102.81 75.06,134.65 188.65,230.52 243.1,350.7 -36.93,51.77 -31.1,43.01 -75.19,73.22 -103.74,-90.17 -183.77,-226.12 -276.56,-330.53 -72.13,44.51 -99.91,59.48 -148.56,124.61 64.48,71.49 223.37,253.67 259.24,343.78l-70.25 52.22c-86.43,-38.68 -217.22,-229.52 -269.28,-319.09 -149.24,40.75 -395.17,319.73 -574.9,406.42l42.8 378.02c7.97,4.47 16.82,3.73 19.81,12.88 0.26,0.79 275.89,173.1 382.14,106.06l2408.97 -1930.04c-45.11,-75.34 -313.35,-438.06 -395.65,-491.22 -167.65,93.86 -399.28,304.04 -555.39,431.52zm2263.94 -1447.83c-31.16,-242.33 -487.73,-747.2 -192.86,-1802.24 145.38,-520.16 588.63,-1035.89 961.89,-1249.55 510,-291.98 1085.18,-449.59 1775.93,-257.41 1857.36,516.76 2203.47,3019.66 637.22,4019.07 -771.87,492.51 -1748.31,518.12 -2534.48,-44.35 -343.23,-245.59 -483.43,-518.89 -575.85,-559.26 -81.24,140.44 99.5,252.69 175.01,338.55 1159.03,1318.16 3456.84,848.62 3987.07,-922.57 365.95,-1222.4 -334.67,-2522.36 -1579.25,-2914.79 -1540.08,-485.62 -3240.73,779.26 -3021.08,2561.72 36.19,293.69 97.31,438.06 203.75,688.06 56.32,132.26 35.27,146.82 162.65,142.77zm2148.09 -1402.39c-170.94,191.68 -245.11,49.99 -376.85,377.74 -110.39,274.64 -229.3,169.88 -460.04,321.12 -193.01,126.56 -160.77,335.88 -323.86,431.91 -274.68,161.69 -254.47,55.69 -397.56,373.27 65.16,-65.53 68.6,-126.96 176.93,-188.45 91.99,-52.23 199.86,-67.52 290.95,-113.94 208.21,-106.02 142.71,-299.65 385.52,-396.19 248.77,-98.86 350.22,-67.8 462.37,-321.06 121.52,-274.35 86.4,-127.92 405.27,-401.79 684.28,286.17 1219.8,-740.2 841.07,-1059.5 -270.5,-228.03 -946.78,68.05 -1066.3,481.03 -78.22,270.15 40.98,318.45 62.52,495.85zm692.11 -878.67c-238.85,43.24 -446.71,156.38 -546.37,322.28 -148.16,246.7 -28.49,506.61 235.71,527.62 486.86,38.68 853.14,-948.06 310.67,-849.9zm-1503.8 -723.97c-569.99,152.14 -302.61,918.81 201.94,775.56 546.77,-155.25 284.97,-905.51 -201.94,-775.56zm-2578.5 3544.85c74.08,124.19 406.67,552.69 504.68,623.33 84.56,-95.55 581.53,-877.58 576.4,-953.44 -117.79,-51.77 -1068.65,319.76 -1081.08,330.11zm-524.52 73.76c37.31,114.63 314.25,435.38 394.85,533.96 74.68,91.27 132.74,164.43 205.67,252.81 49.41,59.9 57.51,69.52 95.45,120.11 18.8,25.05 20.1,29.51 47.22,60.6l70.22 70.09c85,-47.38 152.93,-102.53 213.91,-167.21 -66.88,-130.33 -769.19,-991.89 -807.38,-1018.02l-219.93 147.65zm2649.11 -2590.36c-428.03,169.4 -187.44,799.24 237.11,653.31 434.99,-149.52 195.69,-824.6 -237.11,-653.31zm2419.42 722.8c-288.15,118.93 -151.09,571.62 172.68,478.01 315.81,-91.28 166.42,-617.98 -172.68,-478.01zm-2004.72 -1546.47c-59.2,37.41 -75.38,6.46 -103.07,119 -52.13,211.72 154.36,365.95 352.35,273.2 282.7,-132.44 61.17,-588.12 -249.28,-392.2zm-140.28 1275.01c91.28,-321.73 -188.96,-379.43 -294.84,-246.57 -117.89,147.9 11.91,392.9 294.84,246.57zm1238.56 1708.86c-210.67,103.33 -52.39,387.43 140.85,287.77 171.16,-88.26 51.36,-382.01 -140.85,-287.77zm372.61 -210.08c19.05,-104.09 30.61,-59.99 -19.95,-140.82 -247.87,-110.43 -211.3,297.13 19.95,140.82z"/>
 </g>
</svg>
